SplineFontDB: 3.2
FontName: muktibold
FullName: Mukti Bold
FamilyName: Mukti
Weight: Bold
Copyright: 
Version: 2.0
ItalicAngle: 0
UnderlinePosition: -166.016
UnderlineWidth: 73.2422
Ascent: 800
Descent: 200
InvalidEm: 0
sfntRevision: 0x0000f0a4
LayerCount: 2
Layer: 0 0 "Back" 1
Layer: 1 0 "Fore" 0
XUID: [1021 267 794593233 2403498]
StyleMap: 0x0000
FSType: 0
OS2Version: 3
OS2_WeightWidthSlopeOnly: 0
OS2_UseTypoMetrics: 0
CreationTime: 1035991877
ModificationTime: 1641399214
PfmFamily: 81
TTFWeight: 700
TTFWidth: 5
LineGap: 0
VLineGap: 0
Panose: 0 0 0 0 0 0 0 0 0 0
OS2TypoAscent: 1241
OS2TypoAOffset: 0
OS2TypoDescent: 438
OS2TypoDOffset: 0
OS2TypoLinegap: 0
OS2WinAscent: 1241
OS2WinAOffset: 0
OS2WinDescent: 438
OS2WinDOffset: 0
HheadAscent: 1241
HheadAOffset: 0
HheadDescent: -438
HheadDOffset: 0
OS2SubXSize: 700
OS2SubYSize: 650
OS2SubXOff: 0
OS2SubYOff: 138
OS2SupXSize: 700
OS2SupYSize: 650
OS2SupXOff: 0
OS2SupYOff: 477
OS2StrikeYSize: 50
OS2StrikeYPos: 259
OS2CapHeight: 537
OS2XHeight: 725
OS2Vendor: 'fbf '
OS2CodePages: 00000000.00000000
OS2UnicodeRanges: 00018001.00000000.00000000.00000000
Lookup: 1 0 0 "'init' Initial Forms in Bengali lookup 0" { "'init' Initial Forms in Bengali lookup 0 subtable"  } ['init' ('beng' <'dflt' > ) ]
Lookup: 4 0 0 "'nukt' Nukta Forms in Bengali lookup 1" { "'nukt' Nukta Forms in Bengali lookup 1 subtable"  } ['nukt' ('beng' <'dflt' > ) ]
Lookup: 4 0 0 "'akhn' Akhand in Bengali lookup 2" { "'akhn' Akhand in Bengali lookup 2 subtable"  } ['akhn' ('beng' <'dflt' > ) ]
Lookup: 4 0 0 "'rphf' Reph Form in Bengali lookup 3" { "'rphf' Reph Form in Bengali lookup 3 subtable"  } ['rphf' ('beng' <'dflt' > ) ]
Lookup: 4 0 0 "'blwf' Below Base Forms in Bengali lookup 4" { "'blwf' Below Base Forms in Bengali lookup 4 subtable"  } ['blwf' ('beng' <'dflt' > ) ]
Lookup: 4 0 0 "'half' Half Forms in Bengali lookup 5" { "'half' Half Forms in Bengali lookup 5 subtable"  } ['half' ('beng' <'dflt' > ) ]

StartChar: .notdef
Encoding: 65536 -1 0
Width: 431
GlyphClass: 2
Flags: HW
HStem: 0 33<66 333> 633 33<66 333>
VStem: 33 33<33 633> 333 33<33 633>
LayerCount: 2
Fore
SplineSet
66 33 m 1
 333 33 l 1
 333 633 l 1
 66 633 l 1
 66 33 l 1
33 0 m 1
 33 666 l 1
 366 666 l 1
 366 0 l 1
 33 0 l 1
EndSplineSet
EndChar

StartChar: exclam
Encoding: 33 33 4
Width: 332
GlyphClass: 2
Flags: HW
HStem: 0 146<112 262>
VStem: 112 150<0 146 465 726>
LayerCount: 2
Fore
SplineSet
262 146 m 1
 262 0 l 1
 112 0 l 1
 112 146 l 1
 262 146 l 1
262 726 m 1
 262 516 l 1
 220 207 l 1
 153 207 l 1
 112 516 l 1
 112 726 l 1
 262 726 l 1
EndSplineSet
EndChar

StartChar: quotedbl
Encoding: 34 34 5
Width: 473
GlyphClass: 2
Flags: HW
HStem: 470 259<90 146 326 382>
VStem: 50 138<578 729> 286 138<578 729>
LayerCount: 2
Fore
SplineSet
424 729 m 1
 424 599 l 1
 382 470 l 1
 326 470 l 1
 286 599 l 1
 286 729 l 1
 424 729 l 1
188 729 m 1
 188 599 l 1
 146 470 l 1
 90 470 l 1
 50 599 l 1
 50 729 l 1
 188 729 l 1
EndSplineSet
EndChar

StartChar: numbersign
Encoding: 35 35 6
Width: 555
GlyphClass: 2
Flags: HW
HStem: 172 99<3 80 205 289 413 513> 424 99<31 130 255 338 463 553>
LayerCount: 2
Fore
SplineSet
205 271 m 1
 308 271 l 1
 338 424 l 1
 235 424 l 1
 205 271 l 1
146 -32 m 1
 40 -32 l 1
 80 172 l 1
 3 172 l 1
 3 271 l 1
 100 271 l 1
 130 424 l 1
 31 424 l 1
 31 523 l 1
 150 523 l 1
 184 697 l 1
 289 697 l 1
 255 523 l 1
 358 523 l 1
 392 697 l 1
 497 697 l 1
 463 523 l 1
 553 523 l 1
 553 424 l 1
 444 424 l 1
 413 271 l 1
 513 271 l 1
 513 172 l 1
 394 172 l 1
 354 -32 l 1
 249 -32 l 1
 289 172 l 1
 186 172 l 1
 146 -32 l 1
EndSplineSet
EndChar

StartChar: dollar
Encoding: 36 36 7
Width: 555
GlyphClass: 2
Flags: HW
HStem: -21 107<195 243 311 358> 608 101<193 243 311 357>
VStem: 22 131<130 207> 39 123<462 577> 243 68<-126 -19 86 282 427 608 707 763> 389 128<498 577> 395 132<121 245>
LayerCount: 2
Fore
SplineSet
311 282 m 1
 311 86 l 1
 366 100 394 132 395 183 c 0
 395 232 367 264 311 282 c 1
243 427 m 1
 243 608 l 1
 190 597 163 566 162 516 c 0
 162 476 186 447 234 430 c 0
 237 429 239 429 243 427 c 1
517 498 m 1
 389 498 l 1
 391 550 374 584 337 601 c 0
 329 604 320 607 311 608 c 1
 311 407 l 1
 413 379 478 340 505 289 c 0
 520 264 527 232 527 195 c 0
 527 126 504 71 459 33 c 1
 441 20 l 1
 407 -1 364 -15 311 -21 c 1
 311 -126 l 1
 243 -126 l 1
 243 -21 l 1
 188 -16 143 0 108 25 c 0
 51 66 23 123 22 198 c 2
 22 207 l 1
 153 207 l 1
 157 136 186 96 243 86 c 1
 243 299 l 1
 108 331 40 401 39 512 c 0
 39 592 74 649 144 683 c 0
 172 697 205 706 243 709 c 1
 243 763 l 1
 311 763 l 1
 311 709 l 1
 397 704 457 670 492 605 c 0
 492 604 492 604 493 603 c 2
 493 602 l 1
 508 572 516 537 517 498 c 1
EndSplineSet
EndChar

StartChar: percent
Encoding: 37 37 8
Width: 888
GlyphClass: 2
Flags: HW
HStem: -13 98<630 736> 253 99<622 729> 337 98<148 263> 602 99<149 263> 699 10G<601 682>
VStem: 22 99<463 574> 291 99<464 554> 495 99<112 225> 764 99<113 225>
LayerCount: 2
Fore
SplineSet
679 253 m 0
 647 253 623 239 606 212 c 0
 599 199 595 185 594 169 c 0
 594 138 608 114 635 97 c 1
 636 97 l 1
 649 89 663 85 679 85 c 0
 710 85 735 99 752 126 c 0
 760 139 764 153 764 168 c 0
 764 200 750 224 723 241 c 1
 722 241 l 1
 709 249 694 253 679 253 c 0
679 352 m 0
 739 352 787 329 823 283 c 0
 849 249 863 211 863 167 c 0
 863 112 841 67 797 30 c 0
 762 1 723 -13 679 -13 c 0
 621 -13 574 9 538 53 c 0
 509 86 495 125 495 170 c 0
 495 227 517 273 562 310 c 0
 596 338 635 352 679 352 c 0
606 709 m 1
 682 709 l 1
 287 -20 l 1
 210 -20 l 1
 606 709 l 1
206 602 m 0
 174 602 150 588 133 561 c 0
 125 548 121 534 121 519 c 0
 121 488 135 464 162 447 c 0
 175 439 190 435 206 435 c 0
 237 435 262 449 279 476 c 0
 287 489 291 503 291 518 c 0
 291 551 277 575 248 591 c 0
 235 598 221 602 206 602 c 0
206 701 m 0
 265 701 313 679 350 633 c 0
 369 610 380 583 386 554 c 1
 390 517 l 1
 390 462 368 417 324 380 c 0
 289 351 250 337 206 337 c 0
 149 337 102 359 65 403 c 0
 36 437 22 475 22 519 c 0
 22 576 44 622 89 659 c 0
 123 687 162 701 206 701 c 0
EndSplineSet
EndChar

StartChar: ampersand
Encoding: 38 38 9
Width: 721
GlyphClass: 2
Flags: HW
HStem: -23 116<238 336> 0 10G<525 694> 614 109<270 366>
VStem: 55 133<143 271> 130 132<516 593> 377 120<500 602> 526 113<266 373>
LayerCount: 2
Fore
SplineSet
317 470 m 1
 356 492 376 521 377 556 c 0
 377 591 358 610 320 614 c 1
 291 614 273 603 265 582 c 1
 262 566 262 566 262 566 c 1
 262 551 269 534 281 516 c 1
 282 516 l 1
 317 470 l 1
278 319 m 1
 231 290 l 2
 203 271 189 245 188 210 c 0
 188 173 203 142 233 117 c 0
 253 101 273 93 294 93 c 0
 326 93 366 111 414 148 c 1
 278 319 l 1
526 373 m 1
 639 373 l 1
 639 362 l 1
 639 357 l 1
 637 286 620 225 586 174 c 1
 571 154 l 1
 694 0 l 1
 533 0 l 1
 487 56 l 1
 429 12 379 -13 336 -20 c 1
 292 -23 l 1
 205 -23 140 5 97 62 c 0
 69 98 55 142 55 193 c 0
 55 253 75 301 115 337 c 0
 137 358 170 379 212 401 c 1
 206 409 202 414 200 416 c 2
 172 450 l 2
 144 483 130 518 130 556 c 0
 130 611 153 654 200 687 c 0
 234 711 274 723 319 723 c 0
 390 723 441 700 473 653 c 1
 473 652 l 1
 489 628 497 600 497 568 c 0
 497 521 481 480 447 446 c 0
 431 430 409 412 380 392 c 1
 496 248 l 1
 516 286 526 325 526 363 c 2
 526 373 l 1
EndSplineSet
EndChar

StartChar: quotesingle
Encoding: 39 39 10
Width: 237
GlyphClass: 2
Flags: HW
HStem: 470 259<90 146>
VStem: 50 138<578 729>
LayerCount: 2
Fore
SplineSet
188 729 m 1
 188 599 l 1
 146 470 l 1
 90 470 l 1
 50 599 l 1
 50 729 l 1
 188 729 l 1
EndSplineSet
EndChar

StartChar: parenleft
Encoding: 40 40 11
Width: 332
GlyphClass: 2
Flags: HW
HStem: 719 10G<193 303>
VStem: 40 123<96 430>
LayerCount: 2
Fore
SplineSet
203 729 m 1
 303 729 l 1
 231 590 188 477 173 388 c 0
 166 350 163 309 163 265 c 0
 163 169 182 72 221 -25 c 0
 240 -74 268 -132 303 -200 c 1
 203 -200 l 1
 111 -61 58 67 44 186 c 0
 41 211 40 238 40 265 c 0
 40 388 76 514 149 641 c 0
 165 669 183 698 203 729 c 1
EndSplineSet
EndChar

StartChar: parenright
Encoding: 41 41 12
Width: 332
GlyphClass: 2
Flags: HW
HStem: 719 10G<22 168>
VStem: 162 123<99 430>
LayerCount: 2
Fore
SplineSet
122 -200 m 1
 22 -200 l 1
 94 -61 137 52 152 141 c 0
 159 179 162 220 162 264 c 0
 162 360 143 457 104 554 c 0
 85 603 57 661 22 729 c 1
 122 729 l 1
 214 590 267 462 281 343 c 0
 284 318 285 291 285 264 c 0
 285 141 249 15 176 -112 c 0
 160 -140 142 -169 122 -200 c 1
EndSplineSet
EndChar

StartChar: asterisk
Encoding: 42 42 13
Width: 388
GlyphClass: 2
Flags: HW
HStem: 407 322
VStem: 154 72<613 729>
LayerCount: 2
Fore
SplineSet
132 544 m 1
 23 580 l 1
 45 649 l 1
 154 613 l 1
 154 729 l 1
 226 729 l 1
 226 613 l 1
 335 649 l 1
 357 579 l 1
 248 544 l 1
 315 450 l 1
 257 407 l 1
 190 501 l 1
 123 407 l 1
 65 450 l 1
 132 544 l 1
EndSplineSet
EndChar

StartChar: plus
Encoding: 43 43 14
Width: 583
GlyphClass: 2
Flags: HW
HStem: 172 119<50 232 351 533>
VStem: 232 119<-10 172 291 473>
LayerCount: 2
Fore
SplineSet
533 291 m 1
 533 172 l 1
 351 172 l 1
 351 -10 l 1
 232 -10 l 1
 232 172 l 1
 50 172 l 1
 50 291 l 1
 232 291 l 1
 232 473 l 1
 351 473 l 1
 351 291 l 1
 533 291 l 1
EndSplineSet
EndChar

StartChar: comma
Encoding: 44 44 15
Width: 277
GlyphClass: 2
Flags: HW
HStem: -174 56<64 112> 0 146<64 150>
VStem: 64 150<0 146> 150 64<-81 0>
LayerCount: 2
Fore
SplineSet
64 146 m 1
 214 146 l 1
 214 9 l 2
 214 -51 202 -94 180 -119 c 0
 174 -125 167 -131 160 -137 c 0
 134 -157 102 -169 64 -174 c 1
 64 -118 l 1
 115 -107 143 -77 149 -26 c 0
 150 -3 150 -3 150 -3 c 1
 150 0 l 1
 64 0 l 1
 64 146 l 1
EndSplineSet
EndChar

StartChar: hyphen
Encoding: 45 45 16
AltUni2: 0000ad.ffffffff.0
Width: 332
GlyphClass: 2
Flags: HW
HStem: 207 135<26 298>
VStem: 26 272<207 342>
LayerCount: 2
Fore
SplineSet
298 342 m 1
 298 207 l 1
 26 207 l 1
 26 342 l 1
 298 342 l 1
EndSplineSet
EndChar

StartChar: period
Encoding: 46 46 17
Width: 277
GlyphClass: 2
Flags: HW
HStem: 0 146<64 214>
VStem: 64 150<0 146>
LayerCount: 2
Fore
SplineSet
214 146 m 1
 214 0 l 1
 64 0 l 1
 64 146 l 1
 214 146 l 1
EndSplineSet
EndChar

StartChar: slash
Encoding: 47 47 18
AltUni2: 002044.ffffffff.0
Width: 277
GlyphClass: 2
Flags: HW
VStem: 2 273
LayerCount: 2
Fore
SplineSet
208 714 m 1
 275 714 l 1
 69 -14 l 1
 2 -14 l 1
 208 714 l 1
EndSplineSet
EndChar

StartChar: zero
Encoding: 48 48 19
Width: 555
GlyphClass: 2
Flags: HW
HStem: -23 120<215 332> 611 113<216 329>
VStem: 29 140<153 549> 377 140<154 551>
LayerCount: 2
Fore
SplineSet
273 611 m 0
 232 611 204 589 187 544 c 0
 175 509 169 445 169 351 c 0
 169 250 176 184 191 152 c 0
 208 116 236 98 273 97 c 0
 314 97 342 119 359 162 c 0
 371 195 377 258 377 349 c 0
 377 454 370 522 355 554 c 0
 338 592 310 611 273 611 c 0
273 724 m 0
 356 724 420 691 463 625 c 1
 464 624 l 1
 467 619 l 2
 501 565 517 474 517 346 c 0
 517 214 497 122 457 68 c 0
 412 7 351 -23 273 -23 c 0
 192 -23 130 9 86 72 c 0
 83 76 81 79 79 82 c 0
 45 137 29 226 29 350 c 0
 29 485 49 580 89 633 c 0
 133 694 194 724 273 724 c 0
EndSplineSet
EndChar

StartChar: one
Encoding: 49 49 20
Width: 555
GlyphClass: 2
Flags: HW
HStem: 0 10G<238 378> 489 93<68 193> 699 10G<274 378>
VStem: 238 140<0 489> 285 93<660 709>
LayerCount: 2
Fore
SplineSet
238 489 m 1
 68 489 l 1
 68 582 l 1
 191 582 263 624 285 709 c 1
 378 709 l 1
 378 0 l 1
 238 0 l 1
 238 489 l 1
EndSplineSet
EndChar

StartChar: two
Encoding: 50 50 21
Width: 555
GlyphClass: 2
Flags: HW
HStem: 0 125<212 512> 610 114<210 338>
VStem: 40 134<462 570> 375 137<412 574>
LayerCount: 2
Fore
SplineSet
512 125 m 1
 512 0 l 1
 30 0 l 1
 34 77 53 138 87 182 c 0
 110 211 145 243 194 276 c 0
 277 336 329 379 350 407 c 0
 367 430 375 460 375 496 c 0
 375 552 355 588 314 603 c 0
 302 608 289 610 275 610 c 0
 225 610 192 584 179 533 c 0
 175 519 174 503 174 485 c 2
 174 462 l 1
 40 462 l 1
 39 487 l 1
 39 591 76 661 150 698 c 0
 185 715 225 724 272 724 c 0
 365 724 434 693 477 631 c 0
 502 595 515 551 515 499 c 0
 515 442 499 394 465 355 c 0
 443 328 406 296 356 259 c 0
 287 209 244 173 229 153 c 0
 223 145 218 136 212 125 c 1
 512 125 l 1
EndSplineSet
EndChar

StartChar: three
Encoding: 51 51 22
Width: 555
GlyphClass: 2
Flags: HW
HStem: -23 120<203 337> 317 94<217 315> 611 113<199 289>
VStem: 29 136<134 208> 38 130<486 579> 353 140<449 586> 376 140<138 273>
LayerCount: 2
Fore
SplineSet
217 317 m 1
 217 411 l 1
 229 411 l 2
 311 411 352 447 353 518 c 0
 353 569 332 600 289 609 c 1
 265 611 l 1
 224 611 196 596 181 566 c 1
 179 561 l 2
 172 544 169 520 168 486 c 1
 38 486 l 1
 38 498 l 2
 38 561 52 610 79 644 c 0
 120 697 183 724 268 724 c 0
 357 724 422 696 461 640 c 0
 482 610 493 574 493 531 c 0
 493 475 469 429 421 394 c 1
 420 393 l 1
 400 380 l 1
 469 347 507 297 514 232 c 0
 515 224 516 214 516 204 c 0
 516 120 484 58 420 17 c 1
 419 16 l 1
 378 -10 327 -23 268 -23 c 0
 176 -23 109 9 67 72 c 0
 42 109 30 155 29 208 c 1
 165 208 l 1
 169 134 204 97 271 97 c 0
 312 97 342 114 361 147 c 0
 371 164 376 183 376 204 c 0
 376 248 359 280 324 300 c 1
 299 310 l 1
 280 315 253 317 217 317 c 1
EndSplineSet
EndChar

StartChar: four
Encoding: 52 52 23
Width: 555
GlyphClass: 2
Flags: HW
HStem: 0 10G<308 448> 157 116<123 308 448 522> 699 10G<277 448>
VStem: 308 140<0 157 273 576>
LayerCount: 2
Fore
SplineSet
308 273 m 1
 308 576 l 1
 123 273 l 1
 308 273 l 1
522 273 m 1
 522 157 l 1
 448 157 l 1
 448 0 l 1
 308 0 l 1
 308 157 l 1
 24 157 l 1
 24 275 l 1
 283 709 l 1
 448 709 l 1
 448 273 l 1
 522 273 l 1
EndSplineSet
EndChar

StartChar: five
Encoding: 53 53 24
Width: 555
GlyphClass: 2
Flags: HW
HStem: -23 120<195 332> 368 111<207 319> 584 125<196 489>
VStem: 377 140<146 320>
LayerCount: 2
Fore
SplineSet
489 709 m 1
 489 584 l 1
 196 584 l 1
 173 436 l 1
 211 465 252 479 296 479 c 0
 372 479 431 449 472 390 c 0
 502 347 517 296 517 234 c 0
 517 146 487 78 425 30 c 0
 380 -5 325 -23 261 -23 c 0
 176 -23 112 5 69 60 c 0
 42 95 28 136 27 185 c 1
 165 185 l 1
 168 130 200 100 263 97 c 1
 313 97 348 120 366 167 c 0
 373 186 377 207 377 231 c 0
 377 298 354 340 309 359 c 1
 308 360 l 1
 295 366 280 368 263 368 c 0
 218 368 188 350 173 314 c 1
 47 314 l 1
 110 709 l 1
 489 709 l 1
EndSplineSet
EndChar

StartChar: six
Encoding: 54 54 25
Width: 555
GlyphClass: 2
Flags: HW
HStem: -23 120<214 340> 357 109<224 342> 548 10G<370 507> 611 113<224 350>
VStem: 32 138<148 526> 386 133<148 313>
LayerCount: 2
Fore
SplineSet
279 357 m 0
 235 357 203 336 184 295 c 0
 175 275 170 252 170 225 c 0
 170 172 188 135 223 112 c 0
 240 102 258 97 278 97 c 0
 318 97 348 117 369 155 c 0
 380 176 386 200 386 228 c 0
 386 285 367 324 329 345 c 0
 314 353 298 357 279 357 c 0
507 548 m 1
 377 548 l 1
 362 584 340 604 311 609 c 0
 305 610 298 611 290 611 c 0
 242 611 209 587 190 539 c 0
 187 531 184 522 182 513 c 0
 181 512 181 511 181 509 c 0
 177 489 174 454 172 404 c 1
 208 442 248 463 293 466 c 0
 294 466 294 466 295 466 c 0
 301 467 306 467 313 467 c 0
 385 467 440 439 478 382 c 0
 505 342 519 294 519 237 c 0
 519 147 490 77 432 29 c 0
 391 -6 341 -23 282 -23 c 0
 208 -23 149 3 104 54 c 1
 83 82 l 1
 49 135 32 220 32 337 c 0
 32 450 49 536 82 598 c 2
 91 614 l 1
 133 683 196 720 280 724 c 1
 294 724 l 2
 369 724 426 700 466 652 c 1
 466 652 466 652 467 651 c 2
 468 650 l 2
 468 649 468 649 469 648 c 0
 470 647 472 645 473 643 c 0
 490 619 501 587 507 548 c 1
EndSplineSet
EndChar

StartChar: seven
Encoding: 55 55 26
Width: 555
GlyphClass: 2
Flags: HW
HStem: 0 10G<133 276> 584 125<29 382>
VStem: 133 141<0 129>
LayerCount: 2
Fore
SplineSet
528 709 m 1
 528 599 l 1
 413 460 338 325 303 192 c 0
 287 133 278 69 274 0 c 1
 133 0 l 1
 149 128 176 235 213 320 c 1
 226 347 l 2
 249 398 288 460 341 534 c 0
 358 555 372 572 382 584 c 1
 29 584 l 1
 29 709 l 1
 528 709 l 1
EndSplineSet
EndChar

StartChar: eight
Encoding: 56 56 27
Width: 555
GlyphClass: 2
Flags: HW
HStem: -23 120<203 345> 330 95<204 343> 611 113<202 346>
VStem: 22 140<138 288> 46 123<459 577> 380 121<459 579> 385 140<137 288>
LayerCount: 2
Fore
SplineSet
273 330 m 0
 224 330 191 310 173 269 c 0
 166 252 162 233 162 212 c 0
 162 160 182 125 222 107 c 0
 237 100 254 97 273 97 c 0
 322 97 355 117 374 155 c 0
 381 171 385 189 385 210 c 0
 385 266 364 303 322 321 c 0
 307 327 291 330 273 330 c 0
275 611 m 0
 229 611 197 595 179 562 c 0
 172 549 169 535 169 519 c 0
 169 480 187 453 222 436 c 0
 238 429 256 425 275 425 c 0
 318 425 349 440 368 472 c 0
 376 485 380 501 380 518 c 0
 380 557 362 584 327 600 c 0
 312 607 295 611 275 611 c 0
409 386 m 1
 473 352 510 307 521 250 c 0
 524 237 525 221 525 204 c 0
 525 127 495 68 435 25 c 0
 391 -7 337 -23 274 -23 c 0
 186 -23 119 5 72 62 c 0
 39 101 22 148 22 204 c 0
 22 272 48 325 100 363 c 1
 138 386 l 1
 84 415 54 455 47 506 c 0
 46 514 46 523 46 531 c 0
 46 595 73 645 127 682 c 0
 168 710 217 724 274 724 c 0
 352 724 413 700 456 651 c 1
 457 650 l 1
 486 617 501 577 501 532 c 0
 501 483 486 445 455 416 c 0
 446 407 430 397 409 386 c 1
EndSplineSet
EndChar

StartChar: nine
Encoding: 57 57 28
Width: 555
GlyphClass: 2
Flags: HW
HStem: -24 120<196 321> 228 116<203 326> 610 114<202 328>
VStem: 28 133<388 552> 373 143<181 543>
LayerCount: 2
Fore
SplineSet
263 610 m 0
 219 610 189 587 172 542 c 1
 172 542 172 542 171 541 c 0
 164 522 161 501 161 476 c 0
 161 414 181 373 221 354 c 0
 234 347 249 344 265 344 c 0
 308 344 340 365 359 405 c 0
 368 425 373 447 373 474 c 0
 373 536 353 578 312 599 c 0
 297 606 281 610 263 610 c 0
38 165 m 1
 173 165 l 1
 176 132 193 111 226 101 c 0
 236 98 247 96 259 96 c 0
 336 96 375 164 376 298 c 1
 355 275 341 260 332 254 c 0
 308 237 277 228 240 228 c 0
 166 228 110 258 71 318 c 0
 42 361 28 412 28 474 c 0
 28 561 57 627 116 674 c 0
 157 708 208 724 267 724 c 0
 354 724 421 685 467 608 c 0
 500 554 516 474 516 370 c 0
 516 254 498 162 462 95 c 0
 461 91 459 89 457 86 c 0
 414 13 347 -24 255 -24 c 0
 182 -24 125 0 83 48 c 0
 54 82 39 120 38 165 c 1
EndSplineSet
EndChar

StartChar: colon
Encoding: 58 58 29
Width: 332
GlyphClass: 2
Flags: HW
HStem: 0 146<113 263> 374 146<113 263>
VStem: 113 150<0 146 374 520>
LayerCount: 2
Fore
SplineSet
263 520 m 1
 263 374 l 1
 113 374 l 1
 113 520 l 1
 263 520 l 1
263 146 m 1
 263 0 l 1
 113 0 l 1
 113 146 l 1
 263 146 l 1
EndSplineSet
EndChar

StartChar: semicolon
Encoding: 59 59 30
Width: 332
GlyphClass: 2
Flags: HW
HStem: -174 56<113 162> 0 146<113 199> 374 146<113 263>
VStem: 113 150<0 146 374 520> 199 64<-80 0>
LayerCount: 2
Fore
SplineSet
263 520 m 1
 263 374 l 1
 113 374 l 1
 113 520 l 1
 263 520 l 1
113 146 m 1
 263 146 l 1
 263 9 l 2
 263 -51 252 -94 229 -119 c 0
 223 -125 216 -131 209 -137 c 0
 183 -157 151 -169 113 -174 c 1
 113 -118 l 1
 164 -107 192 -77 198 -26 c 0
 199 -3 199 -3 199 -3 c 1
 199 0 l 1
 113 0 l 1
 113 146 l 1
EndSplineSet
EndChar

StartChar: less
Encoding: 60 60 31
Width: 583
GlyphClass: 2
Flags: HW
LayerCount: 2
Fore
SplineSet
529 474 m 1
 529 365 l 1
 147 232 l 1
 529 101 l 1
 529 -10 l 1
 40 172 l 1
 40 293 l 1
 529 474 l 1
EndSplineSet
EndChar

StartChar: equal
Encoding: 61 61 32
Width: 583
GlyphClass: 2
Flags: HW
HStem: 52 119<50 534> 292 119<50 534>
LayerCount: 2
Fore
SplineSet
534 171 m 1
 534 52 l 1
 50 52 l 1
 50 171 l 1
 534 171 l 1
534 411 m 1
 534 292 l 1
 50 292 l 1
 50 411 l 1
 534 411 l 1
EndSplineSet
EndChar

StartChar: greater
Encoding: 62 62 33
Width: 583
GlyphClass: 2
Flags: HW
LayerCount: 2
Fore
SplineSet
40 -10 m 1
 40 99 l 1
 422 232 l 1
 40 363 l 1
 40 474 l 1
 529 292 l 1
 529 171 l 1
 40 -10 l 1
EndSplineSet
EndChar

StartChar: question
Encoding: 63 63 34
Width: 610
GlyphClass: 2
Flags: HW
HStem: 0 146<235 385> 626 118<248 372>
VStem: 64 136<481 574> 235 150<0 146> 245 124<201 266> 415 141<460 583>
LayerCount: 2
Fore
SplineSet
385 146 m 1
 385 0 l 1
 235 0 l 1
 235 146 l 1
 385 146 l 1
369 201 m 1
 245 201 l 1
 243 256 256 301 283 336 c 0
 297 355 317 376 344 399 c 0
 381 430 403 454 410 473 c 0
 413 483 415 495 415 511 c 0
 415 555 399 588 366 609 c 0
 349 620 331 626 310 626 c 0
 269 626 239 607 218 568 c 0
 205 543 199 515 200 483 c 2
 200 481 l 1
 64 481 l 1
 65 553 79 608 106 647 c 0
 107 650 109 652 111 655 c 0
 154 715 219 744 307 744 c 0
 394 744 460 716 507 659 c 0
 507 658 507 658 508 657 c 0
 537 622 552 580 555 531 c 0
 556 526 556 520 556 514 c 0
 556 462 542 419 513 386 c 0
 506 377 497 369 487 360 c 0
 475 350 461 338 445 327 c 2
 436 320 l 1
 404 298 385 279 378 266 c 0
 372 253 369 232 369 201 c 1
EndSplineSet
EndChar

StartChar: at
Encoding: 64 64 35
Width: 974
GlyphClass: 2
Flags: HW
HStem: -138 78<353 640> 56 81<389 505 654 756> 442 76<440 573> 668 77<381 641>
VStem: 27 97<150 399> 258 97<173 338> 858 89<261 474>
LayerCount: 2
Fore
SplineSet
511 447 m 0
 470 447 434 425 401 380 c 0
 370 339 355 293 355 244 c 0
 355 203 369 172 398 152 c 0
 412 142 427 137 444 137 c 0
 473 137 501 151 528 179 c 2
 532 184 l 2
 565 222 585 267 593 318 c 0
 594 325 594 334 595 345 c 0
 595 396 577 429 542 442 c 1
 541 442 l 1
 540 442 l 1
 531 445 521 447 511 447 c 0
644 508 m 1
 734 508 l 1
 656 228 l 2
 651 208 648 194 648 186 c 0
 648 159 660 143 685 138 c 0
 688 137 692 137 697 137 c 0
 731 137 765 158 800 200 c 2
 807 209 l 1
 841 256 858 310 858 370 c 0
 858 448 825 517 760 576 c 0
 691 637 607 668 511 668 c 0
 394 668 300 626 227 542 c 0
 165 471 132 388 125 293 c 1
 124 266 l 1
 124 164 163 83 242 21 c 0
 311 -33 393 -60 486 -60 c 0
 563 -60 632 -46 693 -19 c 1
 721 -92 l 1
 654 -123 575 -138 484 -138 c 0
 361 -138 258 -106 178 -43 c 0
 99 18 51 97 33 194 c 0
 29 217 27 240 27 264 c 0
 27 355 56 444 113 530 c 0
 131 556 149 580 170 601 c 0
 263 697 378 745 516 745 c 0
 643 745 749 703 836 620 c 0
 910 548 947 460 947 355 c 0
 947 274 919 202 865 140 c 0
 815 84 759 56 697 56 c 0
 663 56 633 65 608 82 c 0
 591 94 580 109 573 127 c 0
 573 128 573 130 572 131 c 1
 534 85 488 60 434 56 c 0
 428 56 428 56 422 56 c 0
 369 56 327 77 294 120 c 0
 270 151 258 186 258 227 c 0
 258 292 279 354 321 413 c 1
 332 427 l 2
 372 477 422 507 483 516 c 0
 493 517 503 518 514 518 c 0
 564 518 600 497 623 455 c 2
 628 446 l 1
 644 508 l 1
EndSplineSet
EndChar

StartChar: A
Encoding: 65 65 36
Width: 721
GlyphClass: 2
Flags: HW
HStem: 0 10G<26 182 546 703> 147 125<270 460> 719 10G<282 455>
LayerCount: 2
Fore
SplineSet
460 272 m 1
 365 557 l 1
 270 272 l 1
 460 272 l 1
501 147 m 1
 228 147 l 1
 179 0 l 1
 26 0 l 1
 285 729 l 1
 451 729 l 1
 703 0 l 1
 549 0 l 1
 501 147 l 1
EndSplineSet
EndChar

StartChar: B
Encoding: 66 66 37
Width: 721
GlyphClass: 2
Flags: HW
HStem: 0 125<232 489> 314 125<232 472> 604 125<232 474>
VStem: 82 150<125 314 439 604> 501 144<466 578> 522 144<156 283>
LayerCount: 2
Fore
SplineSet
232 314 m 1
 232 125 l 1
 411 125 l 2
 484 125 521 156 522 219 c 0
 522 282 485 314 411 314 c 2
 232 314 l 1
232 604 m 1
 232 439 l 1
 395 439 l 2
 462 439 498 466 501 521 c 1
 501 573 469 601 406 604 c 0
 401 604 401 604 395 604 c 2
 232 604 l 1
82 0 m 1
 82 729 l 1
 407 729 l 2
 480 729 538 711 579 676 c 0
 619 641 641 599 645 549 c 1
 645 537 l 2
 645 489 624 448 582 413 c 1
 581 413 l 1
 545 387 l 1
 625 340 665 281 666 210 c 0
 666 157 648 111 612 71 c 1
 598 57 l 1
 594 53 l 1
 552 18 490 0 410 0 c 2
 82 0 l 1
EndSplineSet
EndChar

StartChar: C
Encoding: 67 67 38
Width: 721
GlyphClass: 2
Flags: HW
HStem: -23 126<293 468> 613 128<295 469>
VStem: 44 150<221 488> 539 146<177 249 482 541>
LayerCount: 2
Fore
SplineSet
682 482 m 1
 539 482 l 1
 531 517 520 543 506 560 c 0
 478 595 437 613 383 613 c 0
 307 613 252 576 220 502 c 0
 207 472 200 437 196 397 c 2
 194 356 l 1
 194 242 225 166 288 127 c 0
 314 111 344 103 378 103 c 0
 452 103 501 133 526 193 c 0
 533 210 537 228 539 249 c 1
 685 249 l 1
 679 150 639 76 563 27 c 0
 511 -6 448 -23 374 -23 c 0
 259 -23 173 20 113 105 c 0
 67 171 44 255 44 358 c 0
 44 497 84 600 164 668 c 0
 221 717 293 741 378 741 c 0
 485 741 568 706 626 635 c 1
 633 626 l 2
 661 589 677 541 682 482 c 1
EndSplineSet
EndChar

StartChar: D
Encoding: 68 68 39
Width: 721
GlyphClass: 2
Flags: HW
HStem: 0 125<227 447> 604 125<227 446>
VStem: 77 150<125 604> 531 150<226 505>
LayerCount: 2
Fore
SplineSet
227 125 m 1
 362 125 l 2
 474 125 530 205 531 364 c 0
 531 524 475 604 362 604 c 2
 227 604 l 1
 227 125 l 1
77 0 m 1
 77 729 l 1
 362 729 l 2
 460 729 531 706 577 661 c 1
 592 645 l 1
 652 575 681 482 681 365 c 0
 681 247 652 154 592 85 c 0
 548 32 479 3 385 0 c 1
 362 0 l 1
 77 0 l 1
EndSplineSet
EndChar

StartChar: E
Encoding: 69 69 40
Width: 666
GlyphClass: 2
Flags: HW
HStem: 0 125<229 624> 314 125<229 578> 604 125<229 606>
VStem: 79 150<125 314 439 604>
LayerCount: 2
Fore
SplineSet
229 314 m 1
 229 125 l 1
 624 125 l 1
 624 0 l 1
 79 0 l 1
 79 729 l 1
 606 729 l 1
 606 604 l 1
 229 604 l 1
 229 439 l 1
 578 439 l 1
 578 314 l 1
 229 314 l 1
EndSplineSet
EndChar

StartChar: F
Encoding: 70 70 41
Width: 610
GlyphClass: 2
Flags: HW
HStem: 0 10G<74 224> 314 125<224 543> 604 125<224 586>
VStem: 74 150<0 314 439 604>
LayerCount: 2
Fore
SplineSet
224 314 m 1
 224 0 l 1
 74 0 l 1
 74 729 l 1
 586 729 l 1
 586 604 l 1
 224 604 l 1
 224 439 l 1
 543 439 l 1
 543 314 l 1
 224 314 l 1
EndSplineSet
EndChar

StartChar: G
Encoding: 71 71 42
Width: 777
GlyphClass: 2
Flags: HW
HStem: -23 128<311 490> 267 125<419 585> 613 128<301 492>
VStem: 42 150<239 487> 621 90<-2 35>
LayerCount: 2
Fore
SplineSet
711 392 m 1
 711 -2 l 1
 621 -2 l 1
 603 94 l 1
 558 27 500 -11 429 -20 c 0
 414 -22 399 -23 383 -23 c 0
 284 -23 202 13 138 86 c 0
 74 158 42 249 42 359 c 0
 42 481 79 577 153 648 c 0
 217 710 298 741 395 741 c 0
 506 741 590 708 648 641 c 0
 683 601 704 553 711 496 c 1
 570 496 l 1
 559 528 544 552 525 569 c 0
 492 598 449 613 396 613 c 0
 314 613 256 577 221 505 c 0
 201 466 192 418 192 361 c 0
 192 272 218 204 271 155 c 0
 307 122 350 105 400 105 c 0
 458 105 506 127 545 170 c 0
 546 171 548 173 549 175 c 0
 570 199 582 230 585 267 c 1
 419 267 l 1
 419 392 l 1
 711 392 l 1
EndSplineSet
EndChar

StartChar: H
Encoding: 72 72 43
Width: 721
GlyphClass: 2
Flags: HW
HStem: 0 10G<68 218 507 657> 331 125<218 506> 719 10G<68 218 506 657>
VStem: 68 150<0 331 456 729> 507 150<0 331 456 729>
LayerCount: 2
Fore
SplineSet
507 331 m 1
 218 331 l 1
 218 0 l 1
 68 0 l 1
 68 729 l 1
 218 729 l 1
 218 456 l 1
 506 456 l 1
 506 729 l 1
 657 729 l 1
 657 0 l 1
 507 0 l 1
 507 331 l 1
EndSplineSet
EndChar

StartChar: I
Encoding: 73 73 44
Width: 277
GlyphClass: 2
Flags: HW
HStem: 0 10G<63 213> 719 10G<63 213>
VStem: 63 150<0 729>
LayerCount: 2
Fore
SplineSet
213 729 m 1
 213 0 l 1
 63 0 l 1
 63 729 l 1
 213 729 l 1
EndSplineSet
EndChar

StartChar: J
Encoding: 74 74 45
Width: 555
GlyphClass: 2
Flags: HW
HStem: -23 128<196 315> 719 10G<336 486>
VStem: 24 150<127 270> 336 150<175 729>
LayerCount: 2
Fore
SplineSet
336 729 m 1
 486 729 l 1
 486 190 l 2
 486 93 446 28 367 -3 c 0
 334 -16 296 -23 252 -23 c 0
 183 -23 128 -4 85 35 c 0
 47 70 27 118 24 180 c 1
 24 198 l 1
 24 270 l 1
 174 270 l 1
 174 200 l 2
 174 147 192 116 228 108 c 0
 236 106 245 105 255 105 c 0
 304 105 330 128 335 175 c 2
 336 190 l 1
 336 729 l 1
EndSplineSet
EndChar

StartChar: K
Encoding: 75 75 46
Width: 721
GlyphClass: 2
Flags: HW
HStem: 0 10G<74 224 531 717> 719 10G<74 224 500 686>
VStem: 74 150<0 244 409 729>
LayerCount: 2
Fore
SplineSet
224 244 m 1
 224 0 l 1
 74 0 l 1
 74 729 l 1
 224 729 l 1
 224 409 l 1
 509 729 l 1
 686 729 l 1
 395 415 l 1
 717 0 l 1
 538 0 l 1
 299 322 l 1
 224 244 l 1
EndSplineSet
EndChar

StartChar: L
Encoding: 76 76 47
Width: 610
GlyphClass: 2
Flags: HW
HStem: 0 125<230 579> 719 10G<80 230>
VStem: 80 150<125 729>
LayerCount: 2
Fore
SplineSet
230 729 m 1
 230 125 l 1
 579 125 l 1
 579 0 l 1
 80 0 l 1
 80 729 l 1
 230 729 l 1
EndSplineSet
EndChar

StartChar: M
Encoding: 77 77 48
Width: 832
GlyphClass: 2
Flags: HW
HStem: 0 10G<66 216 345 499 626 776> 719 10G<66 292 548 776>
VStem: 66 150<0 568> 626 150<0 568>
LayerCount: 2
Fore
SplineSet
216 568 m 1
 216 0 l 1
 66 0 l 1
 66 729 l 1
 290 729 l 1
 422 149 l 1
 550 729 l 1
 776 729 l 1
 776 0 l 1
 626 0 l 1
 626 568 l 1
 497 0 l 1
 347 0 l 1
 216 568 l 1
EndSplineSet
EndChar

StartChar: N
Encoding: 78 78 49
Width: 721
GlyphClass: 2
Flags: HW
HStem: 0 10G<68 218 506 661> 719 10G<68 228 511 661>
VStem: 68 150<0 504> 511 150<233 729>
LayerCount: 2
Fore
SplineSet
511 0 m 1
 218 504 l 1
 218 0 l 1
 68 0 l 1
 68 729 l 1
 222 729 l 1
 511 233 l 1
 511 729 l 1
 661 729 l 1
 661 0 l 1
 511 0 l 1
EndSplineSet
EndChar

StartChar: O
Encoding: 79 79 50
Width: 777
GlyphClass: 2
Flags: HW
HStem: -23 128<301 482> 613 128<299 481>
VStem: 41 149<232 483> 592 150<233 484>
LayerCount: 2
Fore
SplineSet
391 613 m 0
 319 613 265 581 228 519 c 1
 228 518 l 1
 203 475 190 422 190 359 c 0
 190 263 217 192 272 146 c 0
 305 119 345 105 391 105 c 0
 461 105 515 136 552 197 c 0
 579 240 592 293 592 355 c 0
 592 458 563 531 505 576 c 0
 473 600 435 613 391 613 c 0
390 741 m 0
 494 741 577 707 640 640 c 0
 705 570 739 479 742 367 c 1
 742 354 l 2
 742 265 719 186 671 117 c 0
 662 103 651 90 640 78 c 0
 577 11 494 -23 391 -23 c 0
 287 -23 204 11 142 78 c 0
 82 142 48 224 41 325 c 1
 40 359 l 1
 40 464 69 552 128 624 c 1
 129 625 l 1
 130 626 l 1
 130 626 130 626 131 627 c 0
 135 631 138 635 142 640 c 0
 204 707 286 741 390 741 c 0
EndSplineSet
EndChar

StartChar: P
Encoding: 80 80 51
Width: 666
GlyphClass: 2
Flags: HW
HStem: 0 10G<76 226> 260 125<226 446> 604 125<226 445>
VStem: 76 150<0 260 385 604> 483 150<479 568>
LayerCount: 2
Fore
SplineSet
226 385 m 1
 366 385 l 2
 439 385 477 416 482 479 c 2
 483 494 l 1
 483 561 451 597 387 603 c 1
 366 604 l 1
 226 604 l 1
 226 385 l 1
226 260 m 1
 226 0 l 1
 76 0 l 1
 76 729 l 1
 398 729 l 2
 516 729 590 684 620 594 c 0
 620 593 620 593 620 592 c 0
 628 566 633 537 633 503 c 0
 633 410 603 342 542 299 c 1
 542 298 l 1
 541 297 l 1
 505 272 462 260 413 260 c 2
 226 260 l 1
EndSplineSet
EndChar

StartChar: Q
Encoding: 81 81 52
Width: 777
GlyphClass: 2
Flags: HW
HStem: -23 128<306 480> 613 128<302 485>
VStem: 43 150<232 483> 595 150<228 486>
LayerCount: 2
Fore
SplineSet
480 278 m 1
 562 200 l 1
 584 244 595 297 595 358 c 0
 595 457 567 528 511 574 c 0
 478 600 439 613 394 613 c 0
 322 613 268 581 231 519 c 1
 231 518 l 1
 206 475 193 422 193 359 c 0
 193 263 220 192 275 146 c 0
 309 119 348 105 393 105 c 0
 428 105 457 111 481 124 c 1
 404 197 l 1
 480 278 l 1
665 103 m 1
 745 27 l 1
 669 -54 l 1
 583 27 l 1
 528 -6 465 -23 394 -23 c 0
 290 -23 207 11 145 78 c 0
 86 141 53 222 45 321 c 0
 44 333 43 346 43 359 c 0
 43 460 71 546 126 618 c 1
 145 640 l 1
 207 707 290 741 394 741 c 0
 497 741 580 707 643 640 c 0
 701 577 734 498 743 402 c 0
 745 361 745 361 745 361 c 1
 745 274 725 198 686 133 c 1
 665 103 l 1
EndSplineSet
EndChar

StartChar: R
Encoding: 82 82 53
Width: 721
GlyphClass: 2
Flags: HW
HStem: 0 10G<80 230 509 677> 289 125<230 472> 604 125<230 491>
VStem: 80 150<0 289 414 604> 493 152<35 268> 517 150<439 579>
LayerCount: 2
Fore
SplineSet
230 414 m 1
 411 414 l 2
 449 414 475 420 490 433 c 0
 508 448 517 474 517 511 c 0
 517 545 508 570 490 585 c 0
 475 597 449 603 411 604 c 2
 230 604 l 1
 230 414 l 1
230 289 m 1
 230 0 l 1
 80 0 l 1
 80 729 l 1
 471 729 l 2
 532 729 579 712 612 679 c 0
 649 642 667 593 667 532 c 0
 667 444 626 384 544 352 c 1
 582 335 606 320 617 306 c 0
 632 286 640 243 643 176 c 0
 644 156 644 126 645 87 c 0
 645 60 654 41 673 30 c 1
 674 29 l 1
 677 27 l 1
 677 0 l 1
 516 0 l 1
 502 25 494 57 493 93 c 2
 493 125 l 1
 494 173 l 1
 495 202 l 2
 495 251 475 279 434 286 c 0
 425 288 414 289 402 289 c 2
 230 289 l 1
EndSplineSet
EndChar

StartChar: S
Encoding: 83 83 54
Width: 666
GlyphClass: 2
Flags: HW
HStem: -23 120<295 442> 621 120<225 412>
VStem: 45 143<478 575> 489 144<139 254>
LayerCount: 2
Fore
SplineSet
607 507 m 1
 467 507 l 1
 462 574 421 612 342 620 c 1
 314 621 l 1
 254 621 215 603 197 568 c 0
 196 567 196 567 196 567 c 1
 191 556 188 544 188 531 c 0
 188 500 202 478 230 464 c 0
 245 456 267 449 294 443 c 0
 295 443 295 443 296 442 c 2
 326 436 l 1
 440 414 l 2
 537 395 597 356 620 295 c 0
 628 273 633 245 633 213 c 0
 633 120 592 53 511 13 c 0
 463 -11 404 -23 334 -23 c 0
 191 -23 98 24 55 119 c 0
 42 148 34 181 32 218 c 1
 178 218 l 1
 182 152 221 112 295 100 c 1
 342 97 l 1
 414 97 460 117 480 157 c 0
 486 168 489 181 489 195 c 0
 489 234 469 262 431 279 c 0
 411 288 385 295 352 301 c 2
 250 321 l 2
 154 339 93 372 66 421 c 1
 65 422 l 1
 65 423 l 1
 65 423 65 423 64 424 c 0
 51 449 45 480 45 517 c 0
 45 612 87 678 170 714 c 0
 212 732 262 741 321 741 c 0
 427 741 505 713 556 658 c 0
 590 621 607 570 607 507 c 1
EndSplineSet
EndChar

StartChar: T
Encoding: 84 84 55
Width: 610
GlyphClass: 2
Flags: HW
HStem: 0 10G<235 385> 604 125<14 235 385 598>
VStem: 235 150<0 604>
LayerCount: 2
Fore
SplineSet
385 604 m 1
 385 0 l 1
 235 0 l 1
 235 604 l 1
 14 604 l 1
 14 729 l 1
 598 729 l 1
 598 604 l 1
 385 604 l 1
EndSplineSet
EndChar

StartChar: U
Encoding: 85 85 56
Width: 721
GlyphClass: 2
Flags: HW
HStem: -23 128<278 453> 719 10G<76 226 504 654>
VStem: 76 150<155 729> 504 150<156 729>
LayerCount: 2
Fore
SplineSet
504 729 m 1
 654 729 l 1
 654 235 l 2
 654 155 630 94 583 51 c 0
 529 2 456 -23 365 -23 c 0
 274 -23 202 2 147 51 c 0
 100 93 76 154 76 235 c 2
 76 729 l 1
 226 729 l 1
 226 235 l 2
 226 151 272 108 365 105 c 1
 455 105 501 148 504 235 c 1
 504 729 l 1
EndSplineSet
EndChar

StartChar: V
Encoding: 86 86 57
Width: 666
GlyphClass: 2
Flags: HW
HStem: 0 10G<267 400> 719 10G<24 178 493 647>
LayerCount: 2
Fore
SplineSet
397 0 m 1
 270 0 l 1
 24 729 l 1
 175 729 l 1
 337 180 l 1
 496 729 l 1
 647 729 l 1
 397 0 l 1
EndSplineSet
EndChar

StartChar: W
Encoding: 87 87 58
Width: 943
GlyphClass: 2
Flags: HW
HStem: 0 10G<216 356 593 733> 719 10G<13 174 396 548 771 932>
LayerCount: 2
Fore
SplineSet
730 0 m 1
 595 0 l 1
 473 569 l 1
 354 0 l 1
 219 0 l 1
 13 729 l 1
 172 729 l 1
 285 183 l 1
 398 729 l 1
 546 729 l 1
 664 182 l 1
 773 729 l 1
 932 729 l 1
 730 0 l 1
EndSplineSet
EndChar

StartChar: X
Encoding: 88 88 59
Width: 666
GlyphClass: 2
Flags: HW
HStem: 0 10G<22 201 470 653> 719 10G<30 213 465 644>
LayerCount: 2
Fore
SplineSet
419 372 m 1
 653 0 l 1
 475 0 l 1
 335 253 l 1
 196 0 l 1
 22 0 l 1
 252 367 l 1
 30 729 l 1
 208 729 l 1
 336 489 l 1
 470 729 l 1
 644 729 l 1
 419 372 l 1
EndSplineSet
EndChar

StartChar: Y
Encoding: 89 89 60
Width: 666
GlyphClass: 2
Flags: HW
HStem: 0 10G<269 419> 719 10G<27 198 478 650>
VStem: 269 150<0 270>
LayerCount: 2
Fore
SplineSet
419 270 m 1
 419 0 l 1
 269 0 l 1
 269 270 l 1
 27 729 l 1
 194 729 l 1
 343 407 l 1
 482 729 l 1
 650 729 l 1
 419 270 l 1
EndSplineSet
EndChar

StartChar: Z
Encoding: 90 90 61
Width: 610
GlyphClass: 2
Flags: HW
HStem: 0 125<206 578> 604 125<30 403>
LayerCount: 2
Fore
SplineSet
578 729 m 1
 578 604 l 1
 206 125 l 1
 578 125 l 1
 578 0 l 1
 30 0 l 1
 30 125 l 1
 403 604 l 1
 30 604 l 1
 30 729 l 1
 578 729 l 1
EndSplineSet
EndChar

StartChar: bracketleft
Encoding: 91 91 62
Width: 332
GlyphClass: 2
Flags: HW
HStem: -200 102<196 308> 627 102<196 308>
VStem: 66 242<-200 -98 627 729> 66 130<-98 627>
LayerCount: 2
Fore
SplineSet
308 729 m 1
 308 627 l 1
 196 627 l 1
 196 -98 l 1
 308 -98 l 1
 308 -200 l 1
 66 -200 l 1
 66 729 l 1
 308 729 l 1
EndSplineSet
EndChar

StartChar: backslash
Encoding: 92 92 63
Width: 277
GlyphClass: 2
Flags: HW
VStem: -12 301
LayerCount: 2
Fore
SplineSet
55 714 m 1
 289 -14 l 1
 222 -14 l 1
 -12 714 l 1
 55 714 l 1
EndSplineSet
EndChar

StartChar: bracketright
Encoding: 93 93 64
Width: 332
GlyphClass: 2
Flags: HW
HStem: -200 102<18 130> 627 102<18 130>
VStem: 18 242<-200 -98 627 729> 130 130<-98 627>
LayerCount: 2
Fore
SplineSet
18 -200 m 1
 18 -98 l 1
 130 -98 l 1
 130 627 l 1
 18 627 l 1
 18 729 l 1
 260 729 l 1
 260 -200 l 1
 18 -200 l 1
EndSplineSet
EndChar

StartChar: asciicircum
Encoding: 94 94 65
Width: 583
GlyphClass: 2
Flags: HW
LayerCount: 2
Fore
SplineSet
522 270 m 1
 409 270 l 1
 288 570 l 1
 173 270 l 1
 61 270 l 1
 226 695 l 1
 351 695 l 1
 522 270 l 1
EndSplineSet
EndChar

StartChar: underscore
Encoding: 95 95 66
Width: 555
GlyphClass: 2
Flags: HW
HStem: -189 69<-22 578>
LayerCount: 2
Fore
SplineSet
578 -120 m 1
 578 -189 l 1
 -22 -189 l 1
 -22 -120 l 1
 578 -120 l 1
EndSplineSet
EndChar

StartChar: grave
Encoding: 96 96 67
Width: 332
GlyphClass: 2
Flags: HW
HStem: 607 150
VStem: 17 196
LayerCount: 2
Fore
SplineSet
17 757 m 1
 143 757 l 1
 212 607 l 1
 143 607 l 1
 17 757 l 1
EndSplineSet
EndChar

StartChar: a
Encoding: 97 97 68
Width: 555
GlyphClass: 2
Flags: HW
HStem: -23 113<184 283> 0 10G<367 524> 436 113<196 342>
VStem: 28 140<106 203> 355 137<27 54 133 255 341 422>
LayerCount: 2
Fore
SplineSet
355 217 m 2
 355 255 l 1
 342 249 323 244 296 238 c 2
 248 229 l 2
 204 220 178 203 171 179 c 1
 171 178 l 1
 169 172 168 164 168 155 c 0
 168 122 184 102 217 93 c 0
 225 91 234 90 244 90 c 0
 302 90 337 118 350 173 c 0
 353 186 355 201 355 217 c 2
524 17 m 1
 524 0 l 1
 372 0 l 1
 361 13 356 31 356 54 c 1
 307 3 252 -23 192 -23 c 0
 141 -23 99 -6 66 28 c 0
 41 55 28 92 28 139 c 0
 28 234 81 291 187 309 c 2
 243 319 l 2
 288 326 316 332 326 337 c 2
 331 340 l 2
 346 348 354 362 355 382 c 0
 355 418 328 436 274 436 c 0
 229 436 200 425 187 404 c 1
 187 403 l 1
 181 393 177 380 175 362 c 1
 40 362 l 1
 49 485 126 548 271 549 c 0
 418 549 491 494 492 383 c 2
 492 83 l 2
 492 60 501 40 518 23 c 2
 524 17 l 1
EndSplineSet
EndChar

StartChar: b
Encoding: 98 98 69
Width: 610
GlyphClass: 2
Flags: HW
HStem: -23 117<258 379> 0 10G<59 199> 432 117<258 377> 719 10G<59 199>
VStem: 59 140<0 55 159 367 470 729> 435 140<161 368>
LayerCount: 2
Fore
SplineSet
316 432 m 0
 272 432 239 409 217 361 c 0
 205 334 199 301 199 265 c 0
 199 192 218 142 258 113 c 0
 275 101 294 94 316 94 c 0
 359 94 392 117 415 163 c 0
 428 191 435 224 435 262 c 0
 435 330 415 379 378 410 c 0
 359 425 339 432 316 432 c 0
59 729 m 1
 199 729 l 1
 199 470 l 1
 232 522 282 549 348 549 c 0
 405 549 453 529 494 489 c 0
 502 481 510 471 517 462 c 0
 556 407 575 340 575 263 c 0
 575 172 549 98 496 42 c 0
 454 -1 405 -23 348 -23 c 0
 282 -23 232 3 199 55 c 1
 199 0 l 1
 59 0 l 1
 59 729 l 1
EndSplineSet
EndChar

StartChar: c
Encoding: 99 99 70
Width: 555
GlyphClass: 2
Flags: HW
HStem: -23 113<226 349> 430 119<215 356>
VStem: 34 140<149 378> 388 134<148 187 338 378>
LayerCount: 2
Fore
SplineSet
521 338 m 1
 388 338 l 1
 377 389 356 420 327 430 c 1
 326 430 l 1
 315 434 303 436 288 436 c 0
 247 436 218 421 201 390 c 0
 183 356 173 313 173 259 c 0
 173 178 196 125 240 102 c 0
 255 94 271 90 288 90 c 0
 328 90 357 108 374 145 c 1
 374 146 l 1
 375 147 l 1
 380 158 384 172 388 187 c 1
 521 187 l 1
 512 104 477 45 413 8 c 0
 376 -13 334 -23 287 -23 c 0
 182 -23 107 18 66 101 c 0
 44 144 34 197 34 259 c 0
 34 384 73 469 152 516 c 0
 190 538 236 549 289 549 c 0
 381 549 446 516 487 451 c 0
 500 429 510 405 516 378 c 1
 521 338 l 1
EndSplineSet
EndChar

StartChar: d
Encoding: 100 100 71
Width: 610
GlyphClass: 2
Flags: HW
HStem: -23 117<226 345> 0 10G<405 545> 432 117<225 345> 719 10G<405 545>
VStem: 29 140<158 364> 405 140<0 55 159 369 470 729>
LayerCount: 2
Fore
SplineSet
287 432 m 0
 243 432 210 409 189 361 c 0
 176 333 169 300 169 262 c 0
 169 193 188 144 226 115 c 0
 244 101 264 94 287 94 c 0
 332 94 365 118 386 165 c 0
 398 192 405 224 405 260 c 0
 405 333 385 384 346 413 c 0
 329 426 309 432 287 432 c 0
405 0 m 1
 405 55 l 1
 370 3 321 -23 256 -23 c 0
 200 -23 151 -3 110 36 c 0
 102 44 94 54 87 63 c 0
 48 118 29 185 29 262 c 0
 29 353 55 427 108 483 c 0
 149 527 199 549 256 549 c 0
 321 549 371 522 405 470 c 1
 405 729 l 1
 545 729 l 1
 545 0 l 1
 405 0 l 1
EndSplineSet
EndChar

StartChar: e
Encoding: 101 101 72
Width: 555
GlyphClass: 2
Flags: HW
HStem: -23 107<206 347> 226 93<164 379> 442 107<206 335>
VStem: 22 140<128 226 319 389> 381 138<119 152 319 393>
LayerCount: 2
Fore
SplineSet
164 319 m 1
 379 319 l 1
 376 353 369 378 357 397 c 0
 336 426 307 441 270 442 c 0
 209 442 173 401 164 319 c 1
524 226 m 1
 162 226 l 1
 164 181 171 149 182 131 c 0
 203 100 233 84 274 84 c 0
 324 84 359 104 378 145 c 0
 379 147 380 149 381 152 c 1
 519 152 l 1
 500 85 458 36 393 5 c 0
 356 -14 314 -23 269 -23 c 0
 174 -23 105 14 62 87 c 0
 35 133 22 189 22 256 c 0
 22 372 57 455 126 505 c 0
 166 534 215 549 272 549 c 0
 355 549 420 519 467 459 c 0
 481 441 492 421 501 399 c 0
 502 396 503 394 504 392 c 0
 518 351 525 304 525 250 c 1
 524 226 l 1
EndSplineSet
EndChar

StartChar: f
Encoding: 102 102 73
Width: 332
GlyphClass: 2
Flags: HW
HStem: 0 10G<90 230> 436 93<14 90 230 313> 621 105<233 308>
VStem: 90 140<0 436 529 618>
LayerCount: 2
Fore
SplineSet
313 529 m 1
 313 436 l 1
 230 436 l 1
 230 0 l 1
 90 0 l 1
 90 436 l 1
 14 436 l 1
 14 529 l 1
 90 529 l 1
 90 594 l 2
 90 684 136 729 228 729 c 1
 308 726 l 1
 308 621 l 1
 268 624 l 2
 244 624 231 610 230 582 c 2
 230 529 l 1
 313 529 l 1
EndSplineSet
EndChar

StartChar: g
Encoding: 103 103 74
Width: 610
GlyphClass: 2
Flags: HW
HStem: -216 88<217 365> -23 117<227 343> 432 117<227 338> 530 10G<408 541>
VStem: 34 140<155 366> 408 133<-85 55 158 366 457 540>
LayerCount: 2
Fore
SplineSet
288 432 m 0
 245 432 213 408 192 359 c 0
 180 331 174 298 174 259 c 0
 174 191 192 143 229 114 c 0
 246 101 265 94 286 94 c 0
 333 94 367 117 390 164 c 0
 403 191 410 223 410 259 c 0
 410 324 392 373 355 406 c 0
 335 424 313 432 288 432 c 0
408 540 m 1
 541 540 l 1
 541 -18 l 2
 541 -105 500 -164 419 -196 c 0
 394 -206 365 -213 333 -216 c 1
 284 -218 l 1
 203 -218 141 -201 98 -166 c 0
 64 -137 46 -104 45 -65 c 1
 190 -65 l 1
 201 -106 234 -127 289 -128 c 0
 338 -128 373 -109 394 -73 c 0
 403 -57 408 -39 408 -18 c 2
 408 55 l 1
 371 13 335 -12 299 -19 c 0
 286 -22 272 -23 255 -23 c 0
 179 -23 120 10 79 76 c 0
 49 125 34 185 34 257 c 0
 34 351 61 426 113 483 c 0
 154 527 202 549 258 549 c 0
 316 549 365 520 404 463 c 1
 408 457 l 1
 408 540 l 1
EndSplineSet
EndChar

StartChar: h
Encoding: 104 104 75
Width: 610
GlyphClass: 2
Flags: HW
HStem: 0 10G<67 207 401 541> 430 119<276 375> 719 10G<67 207>
VStem: 67 140<0 390 462 729> 401 140<0 403>
LayerCount: 2
Fore
SplineSet
67 729 m 1
 207 729 l 1
 207 462 l 1
 246 520 298 549 365 549 c 0
 413 549 453 535 486 508 c 0
 523 477 541 429 541 362 c 2
 541 0 l 1
 401 0 l 1
 401 330 l 2
 401 359 396 381 385 397 c 0
 369 419 346 430 315 430 c 0
 271 430 239 413 220 378 c 0
 211 362 207 344 207 324 c 2
 207 0 l 1
 67 0 l 1
 67 729 l 1
EndSplineSet
EndChar

StartChar: i
Encoding: 105 105 76
Width: 277
GlyphClass: 2
Flags: HW
HStem: 0 10G<67 207> 530 10G<67 207> 604 125<67 207>
VStem: 67 140<0 540 604 729>
LayerCount: 2
Fore
SplineSet
207 729 m 1
 207 604 l 1
 67 604 l 1
 67 729 l 1
 207 729 l 1
207 540 m 1
 207 0 l 1
 67 0 l 1
 67 540 l 1
 207 540 l 1
EndSplineSet
EndChar

StartChar: j
Encoding: 106 106 77
Width: 277
GlyphClass: 2
Flags: HW
HStem: -218 10G<4 99> 530 10G<70 210> 604 125<70 210>
VStem: 70 140<-100 540 604 729>
LayerCount: 2
Fore
SplineSet
210 729 m 1
 210 604 l 1
 70 604 l 1
 70 729 l 1
 210 729 l 1
210 540 m 1
 210 -94 l 2
 210 -157 189 -196 146 -210 c 0
 130 -215 110 -218 87 -218 c 2
 4 -213 l 1
 4 -101 l 1
 28 -105 l 1
 29 -105 l 2
 52 -105 66 -96 69 -79 c 0
 69 -78 69 -78 69 -78 c 1
 70 -63 l 1
 70 540 l 1
 210 540 l 1
EndSplineSet
EndChar

StartChar: k
Encoding: 107 107 78
Width: 555
GlyphClass: 2
Flags: HW
HStem: 0 10G<59 199 378 548> 530 10G<368 535> 719 10G<59 199>
VStem: 59 140<0 177 330 729>
LayerCount: 2
Fore
SplineSet
199 330 m 1
 376 540 l 1
 535 540 l 1
 351 336 l 1
 548 0 l 1
 384 0 l 1
 255 238 l 1
 199 177 l 1
 199 0 l 1
 59 0 l 1
 59 729 l 1
 199 729 l 1
 199 330 l 1
EndSplineSet
EndChar

StartChar: l
Encoding: 108 108 79
Width: 277
GlyphClass: 2
Flags: HW
HStem: 0 10G<67 207> 719 10G<67 207>
VStem: 67 140<0 729>
LayerCount: 2
Fore
SplineSet
207 729 m 1
 207 0 l 1
 67 0 l 1
 67 729 l 1
 207 729 l 1
EndSplineSet
EndChar

StartChar: m
Encoding: 109 109 80
Width: 888
GlyphClass: 2
Flags: HW
HStem: 0 10G<60 200 372 512 684 824> 430 119<315 353 562 667> 530 10G<60 199>
VStem: 60 140<0 397 473 540> 372 140<0 397> 684 140<0 413>
CounterMasks: 1 1c
LayerCount: 2
Fore
SplineSet
60 540 m 1
 199 540 l 1
 199 473 l 1
 235 516 274 541 315 547 c 1
 347 549 l 1
 411 549 457 527 486 482 c 1
 487 481 l 2
 490 478 492 474 494 469 c 1
 532 520 585 547 652 549 c 1
 731 549 783 520 809 461 c 0
 819 438 824 412 824 382 c 2
 824 0 l 1
 684 0 l 1
 684 360 l 2
 684 395 668 418 635 427 c 0
 627 429 618 430 608 430 c 0
 561 430 531 409 518 366 c 0
 514 354 512 340 512 324 c 2
 512 0 l 1
 372 0 l 1
 372 360 l 2
 372 395 356 418 323 427 c 0
 315 429 306 430 296 430 c 0
 249 430 219 409 206 366 c 0
 202 354 200 340 200 324 c 2
 200 0 l 1
 60 0 l 1
 60 540 l 1
EndSplineSet
EndChar

StartChar: n
Encoding: 110 110 81
Width: 610
GlyphClass: 2
Flags: HW
HStem: 0 10G<63 203 406 546> 430 119<272 380> 530 10G<63 203>
VStem: 63 140<0 392 462 540> 406 140<0 404>
LayerCount: 2
Fore
SplineSet
63 540 m 1
 203 540 l 1
 203 462 l 1
 239 517 289 546 352 549 c 0
 358 549 358 549 365 549 c 0
 450 549 505 515 532 448 c 0
 541 423 546 395 546 362 c 2
 546 0 l 1
 406 0 l 1
 406 333 l 2
 406 398 376 430 316 430 c 0
 267 430 233 411 214 374 c 0
 207 359 203 343 203 324 c 2
 203 0 l 1
 63 0 l 1
 63 540 l 1
EndSplineSet
EndChar

StartChar: o
Encoding: 111 111 82
Width: 610
GlyphClass: 2
Flags: HW
HStem: -23 113<237 368> 436 113<235 369>
VStem: 35 140<159 363> 429 140<162 369>
LayerCount: 2
Fore
SplineSet
302 436 m 0
 253 436 218 411 195 362 c 0
 182 334 175 301 175 263 c 0
 175 192 195 142 236 111 c 0
 256 97 278 90 302 90 c 0
 349 90 384 113 407 160 c 0
 422 189 429 222 429 261 c 0
 429 336 408 388 365 417 c 0
 349 428 328 435 302 436 c 0
301 549 m 0
 411 549 488 507 533 424 c 0
 557 379 569 324 569 259 c 0
 569 153 534 75 465 25 c 0
 420 -7 366 -23 302 -23 c 0
 198 -23 123 16 77 92 c 0
 49 138 35 195 35 263 c 0
 35 374 71 454 142 504 c 0
 185 534 239 549 301 549 c 0
EndSplineSet
EndChar

StartChar: p
Encoding: 112 112 83
Width: 610
GlyphClass: 2
Flags: HW
HStem: -218 10G<58 198> -24 117<261 378> 432 117<263 378> 530 10G<58 198>
VStem: 58 140<-218 64 156 366 460 540> 434 140<159 369>
LayerCount: 2
Fore
SplineSet
316 432 m 0
 271 432 238 408 217 360 c 0
 205 333 198 300 198 262 c 0
 198 191 218 142 256 113 c 0
 274 100 294 93 316 93 c 0
 359 93 392 116 414 162 c 0
 427 190 434 223 434 260 c 0
 434 333 414 384 375 413 c 0
 358 426 339 432 316 432 c 0
198 540 m 1
 198 460 l 1
 231 519 281 549 348 549 c 0
 402 549 450 530 491 493 c 0
 500 484 509 474 516 464 c 0
 552 413 572 345 574 262 c 1
 574 169 548 95 495 40 c 0
 454 -3 405 -24 348 -24 c 0
 281 -24 231 5 198 64 c 1
 198 -218 l 1
 58 -218 l 1
 58 540 l 1
 198 540 l 1
EndSplineSet
EndChar

StartChar: q
Encoding: 113 113 84
Width: 610
GlyphClass: 2
Flags: HW
HStem: -218 10G<404 544> -24 117<224 341> 432 117<223 340> 530 10G<404 544>
VStem: 28 140<156 363> 404 140<-218 64 160 368 460 540>
LayerCount: 2
Fore
SplineSet
286 432 m 0
 241 432 208 408 187 360 c 0
 174 333 168 300 168 262 c 0
 168 191 187 142 226 113 c 0
 244 100 264 93 286 93 c 0
 331 93 364 116 385 164 c 0
 398 191 404 223 404 259 c 0
 404 335 384 386 343 414 c 0
 326 426 307 432 286 432 c 0
404 540 m 1
 544 540 l 1
 544 -218 l 1
 404 -218 l 1
 404 64 l 1
 371 5 321 -24 253 -24 c 0
 200 -24 153 -5 112 31 c 0
 102 40 93 50 86 61 c 0
 49 111 30 175 28 252 c 0
 28 256 28 256 28 262 c 0
 28 355 55 430 108 485 c 0
 149 528 197 549 254 549 c 0
 321 549 371 519 404 460 c 1
 404 540 l 1
EndSplineSet
EndChar

StartChar: r
Encoding: 114 114 85
Width: 388
GlyphClass: 2
Flags: HW
HStem: 0 10G<63 203> 410 139<278 370> 530 10G<63 203>
VStem: 63 140<0 369 434 540>
LayerCount: 2
Fore
SplineSet
63 540 m 1
 203 540 l 1
 203 434 l 1
 228 494 266 531 317 544 c 0
 329 547 341 549 353 549 c 2
 370 548 l 1
 370 406 l 1
 326 410 l 1
 244 410 203 369 203 287 c 2
 203 0 l 1
 63 0 l 1
 63 540 l 1
EndSplineSet
EndChar

StartChar: s
Encoding: 115 115 86
Width: 555
GlyphClass: 2
Flags: HW
HStem: -23 110<193 364> 439 110<199 348>
VStem: 48 143<357 428> 380 140<103 174>
LayerCount: 2
Fore
SplineSet
505 366 m 1
 370 366 l 1
 369 414 336 438 269 439 c 0
 226 439 200 427 191 404 c 0
 191 403 191 403 191 403 c 1
 188 389 l 1
 188 374 196 363 212 356 c 1
 213 356 l 1
 237 347 l 1
 414 296 l 2
 484 275 519 230 520 160 c 0
 520 106 500 62 460 28 c 0
 459 27 457 26 456 25 c 0
 416 -7 359 -23 284 -23 c 0
 129 -23 45 30 31 134 c 0
 30 141 29 149 29 157 c 1
 166 157 l 1
 171 133 180 116 193 106 c 0
 213 93 240 87 276 87 c 0
 336 87 370 101 378 129 c 0
 379 132 380 136 380 140 c 0
 380 157 370 170 349 178 c 0
 344 180 339 182 333 184 c 2
 166 236 l 2
 125 249 96 263 81 278 c 2
 78 281 l 2
 58 303 48 332 48 369 c 0
 48 441 80 492 144 523 c 0
 179 540 221 549 270 549 c 0
 371 549 441 519 479 458 c 0
 496 432 504 401 505 366 c 1
EndSplineSet
EndChar

StartChar: t
Encoding: 116 116 87
Width: 332
GlyphClass: 2
Flags: HW
HStem: -23 110<227 300> 436 93<14 83 223 301>
VStem: 83 140<89 436 529 674>
LayerCount: 2
Fore
SplineSet
301 529 m 1
 301 436 l 1
 223 436 l 1
 223 142 l 2
 223 111 229 93 241 87 c 1
 242 87 l 1
 248 84 257 83 269 83 c 2
 301 86 l 1
 301 -12 l 1
 279 -19 251 -23 220 -23 c 0
 129 -23 84 19 83 104 c 2
 83 436 l 1
 14 436 l 1
 14 529 l 1
 83 529 l 1
 83 674 l 1
 223 674 l 1
 223 529 l 1
 301 529 l 1
EndSplineSet
EndChar

StartChar: u
Encoding: 117 117 88
Width: 610
GlyphClass: 2
Flags: HW
HStem: -23 119<224 331> 0 10G<401 541> 530 10G<58 198 401 541>
VStem: 58 140<122 540> 401 140<0 64 135 540>
LayerCount: 2
Fore
SplineSet
541 0 m 1
 401 0 l 1
 401 64 l 1
 365 9 315 -20 252 -23 c 1
 239 -23 l 2
 154 -23 99 11 72 78 c 0
 63 103 58 131 58 164 c 2
 58 540 l 1
 198 540 l 1
 198 193 l 2
 198 129 228 96 288 96 c 0
 337 96 370 115 389 151 c 0
 397 166 401 182 401 202 c 2
 401 540 l 1
 541 540 l 1
 541 0 l 1
EndSplineSet
EndChar

StartChar: v
Encoding: 118 118 89
Width: 555
GlyphClass: 2
Flags: HW
HStem: 0 10G<200 353> 530 10G<14 165 385 536>
LayerCount: 2
Fore
SplineSet
350 0 m 1
 203 0 l 1
 14 540 l 1
 162 540 l 1
 279 145 l 1
 388 540 l 1
 536 540 l 1
 350 0 l 1
EndSplineSet
EndChar

StartChar: w
Encoding: 119 119 90
Width: 777
GlyphClass: 2
Flags: HW
HStem: 0 10G<154 303 466 616> 530 10G<5 152 316 460 619 766>
LayerCount: 2
Fore
SplineSet
613 0 m 1
 468 0 l 1
 387 381 l 1
 301 0 l 1
 157 0 l 1
 5 540 l 1
 150 540 l 1
 236 162 l 1
 318 540 l 1
 458 540 l 1
 539 162 l 1
 621 540 l 1
 766 540 l 1
 613 0 l 1
EndSplineSet
EndChar

StartChar: x
Encoding: 120 120 91
Width: 555
GlyphClass: 2
Flags: HW
HStem: 0 10G<16 189 361 535> 530 10G<20 193 357 530>
LayerCount: 2
Fore
SplineSet
354 272 m 1
 535 0 l 1
 367 0 l 1
 275 168 l 1
 184 0 l 1
 16 0 l 1
 195 272 l 1
 20 540 l 1
 188 540 l 1
 275 377 l 1
 362 540 l 1
 530 540 l 1
 354 272 l 1
EndSplineSet
EndChar

StartChar: y
Encoding: 121 121 92
Width: 555
GlyphClass: 2
Flags: HW
HStem: -219 103<86 181> 530 10G<9 166 391 538>
LayerCount: 2
Fore
SplineSet
394 540 m 1
 538 540 l 1
 316 -99 l 2
 299 -145 281 -175 261 -189 c 1
 237 -202 l 1
 210 -213 176 -219 136 -219 c 0
 121 -219 105 -218 86 -215 c 1
 86 -110 l 1
 101 -114 113 -116 123 -116 c 0
 157 -116 182 -102 198 -72 c 0
 206 -59 210 -43 210 -26 c 2
 210 -23 l 1
 210 -22 l 1
 9 540 l 1
 163 540 l 1
 282 147 l 1
 394 540 l 1
EndSplineSet
EndChar

StartChar: z
Encoding: 122 122 93
Width: 500
GlyphClass: 2
Flags: HW
HStem: 0 113<194 468> 427 113<39 288>
LayerCount: 2
Fore
SplineSet
459 540 m 1
 459 427 l 1
 194 113 l 1
 468 113 l 1
 468 0 l 1
 21 0 l 1
 21 113 l 1
 288 427 l 1
 39 427 l 1
 39 540 l 1
 459 540 l 1
EndSplineSet
EndChar

StartChar: braceleft
Encoding: 123 123 94
Width: 388
GlyphClass: 2
Flags: HW
HStem: -200 99<260 317> 222 93<37 94> 630 99<243 317>
VStem: 118 117<-96 212 367 623>
LayerCount: 2
Fore
SplineSet
317 729 m 1
 317 630 l 1
 280 630 l 2
 252 630 237 611 235 573 c 1
 235 378 l 2
 235 333 223 303 201 288 c 0
 200 288 200 288 200 288 c 1
 187 279 166 273 138 269 c 1
 184 262 213 246 224 222 c 1
 225 222 l 1
 230 211 233 196 234 177 c 2
 235 159 l 1
 235 -36 l 2
 235 -72 243 -92 260 -98 c 1
 280 -101 l 1
 317 -101 l 1
 317 -200 l 1
 241 -200 l 2
 194 -200 159 -179 137 -138 c 0
 124 -116 118 -90 118 -60 c 2
 118 150 l 2
 118 182 110 203 95 213 c 1
 94 213 l 1
 93 214 l 1
 87 217 l 2
 78 221 62 222 41 222 c 1
 37 223 l 1
 37 315 l 1
 41 315 l 1
 53 315 l 2
 93 316 114 333 117 367 c 0
 118 378 118 378 118 378 c 1
 118 589 l 2
 118 644 138 685 176 710 c 0
 195 723 216 729 241 729 c 2
 317 729 l 1
EndSplineSet
EndChar

StartChar: bar
Encoding: 124 124 95
Width: 279
GlyphClass: 2
Flags: HW
HStem: 719 10G<100 180>
VStem: 100 80<-200 729>
LayerCount: 2
Fore
SplineSet
180 729 m 1
 180 -200 l 1
 100 -200 l 1
 100 729 l 1
 180 729 l 1
EndSplineSet
EndChar

StartChar: braceright
Encoding: 125 125 96
Width: 388
GlyphClass: 2
Flags: HW
HStem: -200 99<72 146> 214 93<282 352> 630 99<72 129>
VStem: 154 117<-94 162 317 625>
LayerCount: 2
Fore
SplineSet
72 -200 m 1
 72 -101 l 1
 109 -101 l 2
 137 -101 152 -82 154 -44 c 1
 154 151 l 2
 154 197 165 226 188 241 c 0
 189 241 189 241 189 241 c 1
 202 249 223 256 251 260 c 1
 205 267 176 283 165 307 c 0
 158 321 154 342 154 370 c 2
 154 565 l 2
 154 601 146 622 129 627 c 1
 109 630 l 1
 72 630 l 1
 72 729 l 1
 148 729 l 2
 195 729 229 708 252 667 c 0
 265 645 271 619 271 589 c 2
 271 379 l 2
 271 347 279 326 294 316 c 1
 302 312 l 2
 311 309 327 307 348 307 c 1
 352 306 l 1
 352 214 l 1
 348 214 l 1
 336 214 l 2
 296 213 275 196 272 162 c 0
 271 151 271 151 271 151 c 1
 271 -60 l 2
 271 -115 252 -156 213 -181 c 0
 194 -194 173 -200 148 -200 c 2
 72 -200 l 1
EndSplineSet
EndChar

StartChar: asciitilde
Encoding: 126 126 97
Width: 583
GlyphClass: 2
Flags: HW
HStem: 142 80<332 433> 234 80<146 249>
VStem: 60 78<169 225> 441 78<231 288>
LayerCount: 2
Fore
SplineSet
441 288 m 1
 519 288 l 1
 513 191 470 142 392 142 c 0
 362 142 334 151 309 168 c 2
 252 210 l 2
 231 226 211 234 191 234 c 0
 167 234 151 225 143 207 c 0
 140 200 139 187 138 169 c 1
 60 169 l 1
 65 266 107 314 187 314 c 0
 218 314 246 306 270 289 c 2
 327 247 l 2
 349 230 370 222 388 222 c 0
 412 222 428 231 436 249 c 0
 439 256 440 269 441 288 c 1
EndSplineSet
EndChar

StartChar: danda
Encoding: 2404 2404 98
Width: 541
GlyphClass: 2
Flags: HW
VStem: 390 82<45 685>
LayerCount: 2
Fore
SplineSet
472 68 m 2
 472 51 458 43 430 43 c 0
 403 43 390 51 390 67 c 2
 390 666 l 2
 390 680 404 687 432 687 c 0
 459 687 472 680 472 666 c 2
 472 68 l 2
EndSplineSet
EndChar

StartChar: doubledanda
Encoding: 2405 2405 99
Width: 424
GlyphClass: 2
Flags: HW
VStem: 110 197
LayerCount: 2
Fore
SplineSet
110 478 m 1
 110 11 l 1
 158 61 l 1
 156 535 l 1
 110 478 l 1
257 487 m 1
 253 16 l 1
 302 70 l 1
 307 545 l 1
 257 487 l 1
EndSplineSet
EndChar

StartChar: u0981
Encoding: 2433 2433 100
Width: 5
GlyphClass: 4
Flags: HW
HStem: 842 92<-133 -69>
VStem: -266 72<853 908> -146 92<856 920> -8 78<860 909>
AnchorPoint: "Anchor-0" -190 688 mark 0
LayerCount: 2
Fore
SplineSet
-101 934 m 0
 -88 934 -77 930 -68 921 c 0
 -59 912 -55 901 -55 888 c 0
 -55 875 -59 864 -68 855 c 0
 -77 846 -88 842 -101 842 c 0
 -114 842 -124 846 -133 855 c 0
 -142 864 -146 875 -146 888 c 0
 -146 901 -142 912 -133 921 c 0
 -124 930 -114 934 -101 934 c 0
69 888 m 1
 59 816 13 771 -69 751 c 1
 -129 747 -176 757 -212 783 c 0
 -248 809 -266 843 -266 887 c 1
 -254 904 -242 912 -231 912 c 0
 -222 912 -209 907 -193 896 c 1
 -189 875 -179 857 -162 843 c 0
 -145 829 -127 822 -108 823 c 0
 -77 824 -56 832 -41 847 c 0
 -31 856 -19 875 -8 904 c 1
 4 911 15 914 26 914 c 0
 43 914 58 905 69 888 c 1
EndSplineSet
EndChar

StartChar: u0982
Encoding: 2434 2434 101
Width: 470
GlyphClass: 2
Flags: HW
HStem: 595 76<196 266>
VStem: 101 80<493 581> 268 78<520 593>
LayerCount: 2
Fore
SplineSet
263 531 m 1
 266 542 268 551 268 560 c 0
 268 584 256 596 233 595 c 0
 211 594 196 582 187 558 c 0
 183 548 181 538 181 528 c 0
 181 499 194 487 221 492 c 1
 238 498 252 511 263 531 c 1
455 90 m 2
 460 84 462 78 462 71 c 0
 462 62 457 53 448 46 c 0
 439 39 429 35 417 35 c 0
 406 35 397 39 390 46 c 2
 117 331 l 1
 112 340 109 349 109 357 c 0
 109 380 121 392 144 392 c 0
 155 392 164 388 174 381 c 2
 455 90 l 2
344 531 m 0
 340 500 323 473 295 449 c 0
 267 425 238 413 207 413 c 0
 177 413 151 424 131 446 c 0
 111 468 101 495 101 526 c 0
 101 537 101 547 104 558 c 0
 123 633 166 671 233 671 c 0
 308 671 346 634 346 561 c 0
 346 551 345 541 344 531 c 0
EndSplineSet
EndChar

StartChar: u0983
Encoding: 2435 2435 102
Width: 437
GlyphClass: 2
Flags: HW
HStem: 33 82<194 273> 243 83<213 296> 375 82<180 262> 584 81<202 284>
VStem: 101 76<461 558> 289 79<484 579>
LayerCount: 2
Fore
SplineSet
254 243 m 1
 218 237 196 212 189 167 c 1
 188 132 202 115 229 115 c 0
 233 115 237 116 241 117 c 0
 256 119 270 128 282 146 c 0
 294 164 300 182 300 200 c 0
 300 229 285 243 254 243 c 1
245 584 m 1
 225 583 209 573 196 556 c 0
 183 539 176 520 176 500 c 0
 176 471 191 457 219 457 c 0
 238 457 254 467 269 486 c 0
 282 504 289 522 289 541 c 0
 289 568 274 583 245 584 c 1
377 178 m 1
 364 109 324 61 257 35 c 0
 249 34 240 33 232 33 c 0
 197 33 169 45 148 68 c 0
 127 91 114 122 112 163 c 1
 114 206 130 244 157 277 c 0
 184 310 218 326 259 326 c 0
 293 326 321 315 344 292 c 0
 370 265 381 227 377 178 c 1
362 506 m 0
 358 478 347 452 327 429 c 0
 305 402 277 385 244 378 c 0
 234 376 223 375 213 375 c 0
 180 375 154 386 133 409 c 0
 112 432 101 462 101 497 c 0
 101 510 101 523 104 536 c 0
 112 572 129 603 153 627 c 0
 177 651 205 664 238 665 c 0
 279 666 311 653 335 628 c 0
 356 605 368 576 368 543 c 0
 368 530 366 518 362 506 c 0
EndSplineSet
EndChar

StartChar: u0985
Encoding: 2437 2437 103
Width: 837
GlyphClass: 2
Flags: HW
HStem: 91 81<330 487> 590 83<-6 307 422 687 770 844>
VStem: 29 74<455 553> 294 81<378 478> 550 79<256 433> 687 82<178 590>
LayerCount: 2
Fore
SplineSet
687 178 m 1
 687 590 l 1
 422 590 l 1
 445 569 l 1
 482 559 510 549 529 539 c 0
 555 525 574 506 585 481 c 1
 614 438 629 390 629 338 c 0
 629 312 625 287 617 265 c 1
 687 178 l 1
844 590 m 1
 770 590 l 1
 769 80 l 1
 764 53 749 40 724 40 c 0
 712 40 702 45 694 54 c 2
 581 184 l 1
 542 122 487 91 417 91 c 0
 384 91 348 98 309 113 c 0
 236 141 173 197 121 280 c 0
 76 353 45 435 29 525 c 1
 38 546 51 557 68 557 c 0
 79 557 91 551 103 540 c 1
 118 457 147 384 189 321 c 0
 238 247 298 199 370 178 c 0
 385 174 400 172 415 172 c 0
 448 172 474 180 493 198 c 0
 531 234 550 282 550 342 c 0
 550 413 523 461 469 487 c 1
 458 488 448 489 439 489 c 0
 396 489 375 469 375 430 c 0
 375 417 377 402 382 384 c 1
 374 362 361 351 342 351 c 0
 330 351 317 357 305 369 c 1
 298 396 294 420 294 439 c 0
 294 484 314 520 354 545 c 1
 307 590 l 1
 -6 590 l 1
 -6 673 l 1
 844 673 l 1
 844 590 l 1
EndSplineSet
EndChar

StartChar: u0986
Encoding: 2438 2438 104
Width: 1027
GlyphClass: 2
Flags: HW
HStem: 91 81<330 487> 590 83<-6 307 422 687 770 844 844 940 1019 1087>
VStem: 29 74<455 553> 294 81<378 478> 550 79<256 433> 687 82<178 590> 940 78<48 590>
LayerCount: 2
Fore
SplineSet
687 178 m 1
 687 590 l 1
 422 590 l 1
 445 569 l 1
 482 559 510 549 529 539 c 0
 555 525 574 506 585 481 c 1
 614 438 629 390 629 338 c 0
 629 312 625 287 617 265 c 1
 687 178 l 1
1087 590 m 1
 1019 590 l 1
 1019 67 l 2
 1019 54 1005 47 978 47 c 0
 953 47 940 54 940 69 c 2
 940 590 l 1
 844 590 l 1
 844 590 l 1
 770 590 l 1
 769 80 l 1
 764 53 749 40 724 40 c 0
 712 40 702 45 694 54 c 2
 581 184 l 1
 542 122 487 91 417 91 c 0
 384 91 348 98 309 113 c 0
 236 141 173 197 121 280 c 0
 76 353 45 435 29 525 c 1
 38 546 51 557 68 557 c 0
 79 557 91 551 103 540 c 1
 118 457 147 384 189 321 c 0
 238 247 298 199 370 178 c 0
 385 174 400 172 415 172 c 0
 448 172 474 180 493 198 c 0
 531 234 550 282 550 342 c 0
 550 413 523 461 469 487 c 1
 458 488 448 489 439 489 c 0
 396 489 375 469 375 430 c 0
 375 417 377 402 382 384 c 1
 374 362 361 351 342 351 c 0
 330 351 317 357 305 369 c 1
 298 396 294 420 294 439 c 0
 294 484 314 520 354 545 c 1
 307 590 l 1
 -6 590 l 1
 -6 673 l 1
 844 673 l 1
 844 673 l 1
 1087 673 l 1
 1087 590 l 1
EndSplineSet
EndChar

StartChar: u0987
Encoding: 2439 2439 105
Width: 443
GlyphClass: 2
Flags: HW
HStem: 518 155<168 291> 589 84<-6 111 291 453> 777 76<-14 226> 853 2<112 226>
VStem: -136 77<896 976> 55 74<393 480> 325 83<671 735> 338 76<356 482>
LayerCount: 2
Fore
SplineSet
291 589 m 1
 373 565 414 506 414 413 c 0
 414 402 413 390 412 378 c 0
 389 285 313 228 186 208 c 1
 500 10 l 1
 502 3 503 -3 503 -9 c 0
 503 -35 488 -47 458 -44 c 1
 30 221 l 1
 23 231 19 242 19 254 c 0
 19 279 30 292 52 292 c 0
 57 292 62 291 67 289 c 0
 93 285 118 283 141 283 c 0
 242 283 306 318 335 388 c 0
 337 397 338 406 338 415 c 0
 338 440 331 462 317 481 c 0
 303 500 285 512 262 517 c 0
 255 518 249 518 243 518 c 0
 171 518 133 482 129 410 c 1
 122 397 110 390 92 390 c 0
 73 390 61 399 55 418 c 1
 55 447 62 475 77 504 c 0
 92 533 111 554 136 569 c 1
 111 589 l 1
 -6 589 l 1
 -6 673 l 1
 325 673 l 1
 324 742 273 777 172 777 c 0
 126 777 106 777 110 776 c 1
 18 787 -41 799 -67 813 c 0
 -108 836 -131 882 -136 952 c 0
 -138 969 -123 978 -93 978 c 0
 -71 978 -60 972 -60 960 c 0
 -59 917 -41 887 -6 870 c 0
 19 858 57 852 108 853 c 0
 192 854 232 854 226 855 c 1
 278 852 320 835 353 805 c 0
 389 772 408 728 408 673 c 1
 453 673 l 1
 453 589 l 1
 291 589 l 1
110 776 m 1
 110 776 l 1
 110 776 l 1
EndSplineSet
EndChar

StartChar: u0988
Encoding: 2440 2440 106
Width: 630
GlyphClass: 2
Flags: HW
HStem: 484 78<198 271> 590 83<-6 84 180 512 585 637> 735 77<176 500>
VStem: 64 71<853 939> 71 73<374 452> 300 72<405 454> 453 75<4 314> 512 73<673 719>
LayerCount: 2
Fore
SplineSet
637 590 m 1
 180 590 l 1
 209 561 l 1
 215 562 221 562 227 562 c 0
 268 562 302 547 329 516 c 0
 356 485 370 448 372 405 c 1
 456 483 519 523 561 524 c 0
 589 525 603 514 603 492 c 0
 603 486 602 480 600 475 c 0
 552 347 528 241 528 155 c 0
 528 89 540 23 564 -41 c 1
 560 -64 546 -75 522 -75 c 0
 512 -75 502 -72 493 -66 c 1
 466 8 453 84 453 162 c 0
 453 244 468 328 497 414 c 1
 468 395 425 355 366 292 c 0
 313 235 270 198 238 182 c 0
 189 157 140 161 91 193 c 1
 86 199 84 207 84 215 c 0
 84 240 98 254 126 259 c 1
 145 248 163 242 180 242 c 0
 209 242 240 263 275 306 c 1
 292 334 300 362 300 391 c 0
 300 423 289 448 267 466 c 0
 252 478 237 484 221 484 c 0
 200 484 183 474 167 455 c 0
 151 436 143 413 144 388 c 1
 136 377 124 372 109 372 c 0
 92 372 80 378 71 390 c 1
 68 451 90 497 135 530 c 1
 84 590 l 1
 -6 590 l 1
 -6 673 l 1
 512 673 l 1
 517 710 491 731 434 735 c 0
 419 736 382 736 321 735 c 0
 275 734 238 737 209 744 c 0
 159 755 125 770 106 789 c 0
 83 812 69 854 64 914 c 1
 67 933 78 942 96 942 c 0
 111 942 125 935 135 922 c 1
 137 875 154 844 185 828 c 0
 207 817 244 812 296 812 c 0
 304 812 304 812 321 812 c 0
 338 812 338 812 346 812 c 0
 415 812 468 805 503 792 c 0
 559 770 586 730 585 673 c 1
 637 673 l 1
 637 590 l 1
EndSplineSet
EndChar

StartChar: u0989
Encoding: 2441 2441 107
Width: 731
GlyphClass: 2
Flags: HW
HStem: 35 80<337 498> 264 76<332 419> 590 83<-6 281 364 734> 777 76<181 421> 853 2<308 421>
VStem: 29 73<457 521> 59 77<896 976> 281 83<342 590> 520 83<671 735> 581 79<201 378>
LayerCount: 2
Fore
SplineSet
734 590 m 1
 364 590 l 1
 364 354 l 1
 368 345 374 340 381 340 c 0
 406 340 449 384 508 473 c 0
 514 481 523 486 536 486 c 0
 553 486 569 480 582 467 c 0
 634 418 660 363 660 300 c 0
 660 267 653 231 640 192 c 1
 591 89 521 37 432 35 c 0
 377 34 322 51 268 87 c 0
 223 116 186 152 158 194 c 0
 108 270 65 370 29 495 c 0
 28 505 31 513 39 521 c 0
 47 529 58 533 70 533 c 0
 83 533 93 528 102 519 c 1
 137 412 168 335 195 289 c 1
 217 240 249 200 292 166 c 0
 335 132 378 115 422 115 c 0
 471 115 513 137 548 181 c 1
 570 214 581 251 581 292 c 0
 581 331 571 364 550 392 c 1
 512 350 484 321 464 306 c 0
 428 278 392 264 357 264 c 1
 306 272 281 311 281 381 c 2
 281 590 l 1
 -6 590 l 1
 -6 673 l 1
 520 673 l 1
 519 742 469 777 368 777 c 0
 322 777 301 777 305 776 c 1
 213 787 154 799 128 813 c 0
 87 836 64 882 59 952 c 0
 57 969 72 978 102 978 c 0
 124 978 136 972 136 960 c 0
 137 917 154 887 189 870 c 0
 214 858 253 852 304 853 c 0
 388 854 427 854 421 855 c 1
 473 852 515 835 548 805 c 0
 584 772 603 728 603 673 c 1
 734 673 l 1
 734 590 l 1
305 776 m 1
 306 776 l 1
 305 776 l 1
EndSplineSet
EndChar

StartChar: u098a
Encoding: 2442 2442 108
Width: 777
GlyphClass: 2
Flags: HW
HStem: 35 80<388 552> 263 75<391 470> 590 83<-10 330 413 547 633 787> 738 76<218 527>
VStem: 29 74<456 566> 95 77<859 942> 128 74<419 546> 330 83<338 590> 547 86<673 716> 631 78<205 376>
LayerCount: 2
Fore
SplineSet
787 590 m 1
 413 590 l 1
 413 353 l 1
 418 343 424 338 432 338 c 0
 448 338 471 356 502 393 c 0
 503 394 522 421 560 472 c 1
 566 485 577 491 593 491 c 0
 604 491 613 488 622 482 c 0
 683 430 712 363 709 280 c 0
 706 218 685 163 645 115 c 0
 601 62 546 35 480 35 c 0
 423 35 363 52 300 86 c 0
 237 120 187 163 151 214 c 0
 88 304 47 411 29 535 c 1
 32 557 44 569 65 569 c 0
 80 569 92 562 103 549 c 1
 124 450 146 378 171 331 c 1
 149 393 135 456 128 521 c 1
 136 540 148 550 164 550 c 0
 177 550 190 542 202 527 c 1
 215 432 241 343 278 263 c 0
 293 229 314 200 340 174 c 0
 370 144 401 126 435 119 c 0
 449 116 462 115 475 115 c 0
 551 115 601 160 626 250 c 0
 629 263 631 277 631 292 c 0
 631 333 620 366 598 393 c 1
 519 306 456 263 409 263 c 0
 373 263 347 288 330 337 c 1
 330 590 l 1
 -10 590 l 1
 -10 673 l 1
 547 673 l 1
 550 699 535 717 502 727 c 0
 475 735 433 739 376 738 c 0
 293 737 231 745 191 764 c 0
 129 792 97 846 95 926 c 1
 108 940 122 947 136 947 c 0
 148 947 161 941 172 930 c 1
 171 882 188 850 225 832 c 0
 252 819 294 813 352 813 c 0
 362 813 377 813 396 814 c 0
 426 814 426 814 440 814 c 0
 478 814 507 811 527 806 c 0
 563 796 591 777 610 750 c 0
 627 726 634 700 633 673 c 1
 787 673 l 1
 787 590 l 1
EndSplineSet
EndChar

StartChar: u098b
Encoding: 2443 2443 109
Width: 722
GlyphClass: 2
Flags: HW
HStem: 492 81<129 235>
VStem: 408 81<156 246 369 469 565 686> 570 82<275 686>
LayerCount: 2
Fore
SplineSet
408 156 m 1
 408 469 l 1
 205 342 l 1
 408 156 l 1
652 169 m 2
 652 159 647 150 637 144 c 0
 627 138 616 135 603 135 c 0
 589 135 579 139 573 146 c 2
 488 246 l 1
 487 66 l 2
 487 56 482 48 471 41 c 0
 460 34 450 31 437 31 c 0
 426 31 417 34 410 40 c 2
 110 323 l 2
 103 329 101 337 101 346 c 0
 101 361 107 374 119 383 c 2
 323 514 l 1
 296 543 l 1
 264 509 228 492 185 492 c 0
 126 492 78 520 41 575 c 0
 40 579 39 583 39 587 c 0
 39 598 43 607 52 615 c 0
 61 623 73 627 87 627 c 0
 93 627 98 626 104 625 c 1
 124 590 151 573 184 573 c 0
 216 573 238 589 253 622 c 1
 269 638 289 642 314 635 c 1
 331 617 357 590 391 554 c 1
 408 565 l 1
 408 664 l 2
 408 680 422 688 450 688 c 0
 476 688 488 681 488 666 c 2
 488 369 l 1
 570 275 l 1
 570 666 l 2
 570 681 584 688 611 688 c 0
 638 688 652 681 652 666 c 2
 652 169 l 2
EndSplineSet
EndChar

StartChar: u098c
Encoding: 2444 2444 110
Width: 641
GlyphClass: 2
Flags: HW
HStem: 275 76<168 274>
VStem: 37 77<610 675> 63 78<106 250> 302 77<127 247> 492 79<194 348>
LayerCount: 2
Fore
SplineSet
561 203 m 1
 543 155 509 116 460 85 c 0
 414 55 364 38 311 35 c 1
 281 40 266 50 266 64 c 0
 266 71 269 80 275 90 c 0
 281 105 287 121 293 137 c 0
 299 153 302 167 302 180 c 0
 302 195 298 212 291 231 c 1
 275 260 251 275 218 275 c 0
 199 275 183 269 168 256 c 0
 150 241 141 219 141 192 c 0
 141 170 146 147 157 124 c 0
 158 121 158 118 158 114 c 0
 158 92 144 81 116 81 c 0
 101 81 91 86 86 95 c 0
 71 126 63 157 63 190 c 0
 63 228 73 260 93 287 c 0
 124 330 166 351 219 351 c 0
 250 351 279 342 305 326 c 0
 331 310 351 287 364 258 c 1
 374 229 379 201 379 175 c 0
 379 159 377 143 373 127 c 1
 452 154 492 201 492 268 c 0
 492 279 491 291 488 303 c 0
 477 352 445 392 392 423 c 0
 365 440 316 461 245 485 c 0
 170 511 122 531 100 544 c 0
 56 571 35 604 37 643 c 0
 38 666 50 678 71 678 c 0
 97 678 111 667 114 646 c 1
 113 627 128 610 160 595 c 0
 166 591 203 578 272 555 c 0
 472 487 571 393 571 273 c 0
 571 251 568 228 561 203 c 1
EndSplineSet
EndChar

StartChar: u098f
Encoding: 2447 2447 111
Width: 677
GlyphClass: 2
Flags: HW
HStem: 101 75<153 382> 122 74<215 467> 586 81<426 521>
VStem: 31 77<223 388> 259 81<328 507> 528 82<149 582>
LayerCount: 2
Fore
SplineSet
610 67 m 2
 610 59 603 52 590 46 c 0
 577 40 564 36 551 36 c 0
 540 36 533 39 529 44 c 0
 491 96 442 122 383 122 c 0
 364 122 335 119 296 112 c 0
 257 105 228 101 208 101 c 0
 192 101 177 103 162 106 c 0
 113 123 79 150 58 185 c 0
 40 216 31 258 31 309 c 0
 31 329 32 352 35 377 c 1
 48 388 61 393 73 393 c 0
 86 393 99 386 112 372 c 1
 109 330 108 307 108 303 c 0
 108 254 124 217 158 194 c 0
 175 182 195 176 220 176 c 0
 235 176 261 179 297 186 c 0
 333 193 362 196 383 196 c 0
 436 196 484 180 528 149 c 1
 528 528 l 2
 528 567 515 586 489 586 c 0
 474 586 453 579 429 566 c 0
 369 535 340 490 340 431 c 0
 340 404 346 373 358 337 c 1
 355 313 341 301 314 301 c 0
 301 301 290 305 282 314 c 1
 266 349 259 386 259 422 c 0
 259 477 275 527 308 571 c 0
 341 615 385 643 441 658 c 0
 456 664 471 667 486 667 c 0
 515 667 543 655 570 632 c 0
 597 609 610 575 610 532 c 2
 610 67 l 2
EndSplineSet
EndChar

StartChar: u0990
Encoding: 2448 2448 112
Width: 748
GlyphClass: 2
Flags: HW
HStem: 101 75<153 382> 122 74<215 467> 341 90<605 646> 586 81<426 521>
VStem: 31 77<223 388> 259 81<328 507> 427 89<804 869> 528 82<149 582> 712 78<507 657>
LayerCount: 2
Fore
SplineSet
610 67 m 2
 610 59 603 52 590 46 c 0
 577 40 564 36 551 36 c 0
 540 36 533 39 529 44 c 0
 491 96 442 122 383 122 c 0
 364 122 335 119 296 112 c 0
 257 105 228 101 208 101 c 0
 192 101 177 103 162 106 c 0
 113 123 79 150 58 185 c 0
 40 216 31 258 31 309 c 0
 31 329 32 352 35 377 c 1
 48 388 61 393 73 393 c 0
 86 393 99 386 112 372 c 1
 109 330 108 307 108 303 c 0
 108 254 124 217 158 194 c 0
 175 182 195 176 220 176 c 0
 235 176 261 179 297 186 c 0
 333 193 362 196 383 196 c 0
 436 196 484 180 528 149 c 1
 528 528 l 2
 528 567 515 586 489 586 c 0
 474 586 453 579 429 566 c 0
 369 535 340 490 340 431 c 0
 340 404 346 373 358 337 c 1
 355 313 341 301 314 301 c 0
 301 301 290 305 282 314 c 1
 266 349 259 386 259 422 c 0
 259 477 275 527 308 571 c 0
 341 615 385 643 441 658 c 0
 456 664 471 667 486 667 c 0
 515 667 543 655 570 632 c 0
 597 609 610 575 610 532 c 2
 610 433 l 1
 637 441 660 460 680 490 c 0
 701 522 712 554 712 588 c 0
 712 648 679 684 614 697 c 0
 489 722 427 767 427 832 c 0
 427 854 435 874 450 895 c 0
 465 916 484 932 505 943 c 1
 521 945 534 942 543 934 c 0
 552 926 557 916 557 904 c 0
 557 896 554 888 549 881 c 0
 527 858 516 840 516 828 c 0
 516 812 540 798 588 788 c 0
 651 773 695 757 720 741 c 0
 767 710 791 664 791 601 c 0
 791 546 773 492 739 442 c 0
 704 391 661 358 610 343 c 1
 610 67 l 2
EndSplineSet
EndChar

StartChar: u0993
Encoding: 2451 2451 113
Width: 751
GlyphClass: 2
Flags: HW
HStem: 50 78<407 593> 588 83<431 554>
VStem: 39 75<536 635> 313 84<412 552> 600 81<425 542> 631 80<163 297>
LayerCount: 2
Fore
SplineSet
644 378 m 1
 689 340 711 292 711 234 c 0
 711 189 697 150 669 117 c 0
 638 82 596 60 543 53 c 0
 530 51 517 50 504 50 c 0
 439 50 374 71 310 114 c 0
 256 151 209 199 169 257 c 0
 108 346 65 460 39 600 c 1
 38 627 49 640 73 640 c 0
 88 640 101 633 114 618 c 1
 152 442 212 314 291 234 c 0
 361 163 432 128 504 128 c 0
 517 128 530 129 543 131 c 0
 602 141 631 173 631 228 c 0
 631 249 626 269 615 288 c 0
 604 307 589 322 570 331 c 0
 548 342 536 355 536 369 c 0
 536 379 542 391 555 403 c 1
 585 424 600 451 600 482 c 0
 600 505 592 526 576 545 c 0
 560 564 540 577 516 584 c 0
 507 587 497 588 489 588 c 0
 462 588 440 577 423 557 c 0
 406 537 397 513 397 484 c 0
 397 463 402 444 411 425 c 1
 405 401 389 388 360 388 c 0
 349 388 339 391 331 398 c 1
 319 426 313 454 313 482 c 0
 313 531 329 573 360 609 c 0
 391 645 432 665 482 671 c 1
 539 670 587 651 625 615 c 0
 663 579 681 537 681 488 c 0
 681 450 669 413 644 378 c 1
EndSplineSet
EndChar

StartChar: u0994
Encoding: 2452 2452 114
Width: 808
GlyphClass: 2
Flags: HW
HStem: 50 78<407 593> 336 90<645 685> 588 83<431 554>
VStem: 39 75<536 635> 313 84<412 552> 466 89<800 864> 600 81<425 542> 631 80<163 297> 751 78<502 652>
LayerCount: 2
Fore
SplineSet
759 736 m 0
 806 705 830 659 830 596 c 0
 830 541 812 488 778 438 c 0
 749 395 715 365 674 347 c 1
 699 315 711 277 711 234 c 0
 711 189 697 150 669 117 c 0
 638 82 596 60 543 53 c 0
 530 51 517 50 504 50 c 0
 439 50 374 71 310 114 c 0
 256 151 209 199 169 257 c 0
 108 346 65 460 39 600 c 1
 38 627 49 640 73 640 c 0
 88 640 101 633 114 618 c 1
 152 442 212 314 291 234 c 0
 361 163 432 128 504 128 c 0
 517 128 530 129 543 131 c 0
 602 141 631 173 631 228 c 0
 631 249 626 269 615 288 c 0
 604 307 589 322 570 331 c 0
 548 342 536 355 536 369 c 0
 536 379 542 391 555 403 c 1
 585 424 600 451 600 482 c 0
 600 505 592 526 576 545 c 0
 560 564 540 577 516 584 c 0
 507 587 497 588 489 588 c 0
 462 588 440 577 423 557 c 0
 406 537 397 513 397 484 c 0
 397 463 402 444 411 425 c 1
 405 401 389 388 360 388 c 0
 349 388 339 391 331 398 c 1
 319 426 313 454 313 482 c 0
 313 531 329 573 360 609 c 0
 391 645 432 665 482 671 c 1
 539 670 587 651 625 615 c 0
 663 579 681 537 681 488 c 0
 681 472 679 455 674 439 c 1
 691 449 705 465 719 485 c 0
 740 517 751 549 751 583 c 0
 751 643 718 679 653 692 c 0
 528 717 466 762 466 827 c 0
 466 849 474 869 489 890 c 0
 504 911 523 927 544 938 c 1
 560 940 573 937 582 929 c 0
 591 921 596 911 596 899 c 0
 596 891 593 883 588 876 c 0
 566 853 555 835 555 823 c 0
 555 807 579 793 627 783 c 0
 690 768 734 752 759 736 c 0
645 378 m 2
 645 379 l 2
 644 378 l 0
 645 378 l 2
EndSplineSet
EndChar

StartChar: u0995
Encoding: 2453 2453 115
Width: 707
GlyphClass: 2
Flags: HW
HStem: 224 75<473 538> 495 79<428 503> 590 83<-7 346 428 711>
VStem: 346 82<153 468 572 590> 557 74<316 446>
AnchorPoint: "Anchor-2" 417 0 basechar 0
AnchorPoint: "Anchor-1" 396 29 basechar 0
AnchorPoint: "Anchor-0" 359 667 basechar 0
LayerCount: 2
Fore
SplineSet
346 153 m 1
 346 468 l 1
 138 340 l 1
 346 153 l 1
711 590 m 1
 428 590 l 1
 428 574 l 1
 510 565 567 536 601 488 c 0
 621 460 631 425 631 383 c 0
 631 340 621 303 600 272 c 0
 578 239 548 223 512 224 c 1
 483 221 469 232 469 258 c 0
 469 278 479 292 498 299 c 1
 515 297 529 305 540 322 c 0
 551 339 557 359 557 382 c 0
 557 407 550 429 535 446 c 0
 509 477 473 493 428 495 c 1
 428 64 l 2
 428 45 417 35 396 35 c 0
 377 35 362 41 349 52 c 2
 46 320 l 1
 33 328 27 338 27 349 c 0
 27 362 35 373 51 382 c 2
 346 560 l 1
 346 590 l 1
 -7 590 l 1
 -7 673 l 1
 711 673 l 1
 711 590 l 1
EndSplineSet
EndChar

StartChar: u0996
Encoding: 2454 2454 116
Width: 623
GlyphClass: 2
Flags: HW
HStem: 458 80<88 221> 590 83<557 632>
VStem: 308 76<428 537> 475 82<149 590>
AnchorPoint: "Anchor-2" 491 29 basechar 0
AnchorPoint: "Anchor-1" 520 37 basechar 0
AnchorPoint: "Anchor-0" 498 681 basechar 0
LayerCount: 2
Fore
SplineSet
632 590 m 1
 557 590 l 1
 557 73 l 2
 557 64 552 57 541 50 c 0
 530 43 518 39 505 39 c 0
 495 39 486 42 479 47 c 2
 149 292 l 1
 142 303 139 313 139 323 c 0
 139 333 141 341 147 348 c 0
 153 355 160 359 168 359 c 0
 204 364 236 379 265 405 c 0
 294 431 308 460 308 494 c 0
 308 509 305 523 299 538 c 1
 269 485 226 458 169 458 c 0
 131 458 90 470 46 494 c 1
 35 502 30 513 30 526 c 0
 30 537 34 546 42 554 c 0
 50 562 58 567 68 567 c 0
 72 567 76 566 81 564 c 0
 112 547 139 538 164 538 c 0
 213 538 240 567 246 625 c 1
 245 652 256 665 279 665 c 0
 288 665 296 662 304 657 c 0
 361 620 388 563 384 486 c 0
 381 404 338 344 257 306 c 1
 475 149 l 1
 475 608 l 2
 475 651 496 673 538 673 c 2
 632 673 l 1
 632 590 l 1
EndSplineSet
EndChar

StartChar: u0997
Encoding: 2455 2455 117
Width: 615
GlyphClass: 2
Flags: HW
HStem: 413 77<143 208> 561 78<196 366> 589 84<549 624>
VStem: 243 79<254 378> 467 157<589 673> 467 82<32 466 565 589>
AnchorPoint: "Anchor-2" 498 -15 basechar 0
AnchorPoint: "Anchor-1" 498 22 basechar 0
AnchorPoint: "Anchor-0" 476 674 basechar 0
LayerCount: 2
Fore
SplineSet
624 589 m 1
 549 589 l 1
 549 60 l 2
 549 40 535 30 508 30 c 0
 481 30 467 40 467 60 c 2
 467 380 l 2
 467 419 457 452 436 479 c 0
 393 534 341 561 279 561 c 0
 222 561 177 537 142 490 c 1
 197 491 241 473 275 437 c 0
 306 404 322 364 322 316 c 0
 322 245 289 192 225 156 c 0
 220 155 215 154 210 154 c 0
 199 154 188 158 179 165 c 0
 170 172 166 181 166 191 c 0
 166 202 171 212 181 221 c 1
 222 244 243 276 243 316 c 0
 243 342 234 365 216 384 c 0
 198 403 176 413 150 413 c 0
 131 413 113 407 94 396 c 0
 82 389 71 385 60 385 c 0
 40 385 31 396 31 417 c 0
 31 423 32 429 34 436 c 0
 49 493 73 537 106 569 c 0
 136 598 178 619 232 634 c 0
 252 638 271 639 290 639 c 0
 357 639 417 614 467 565 c 1
 467 673 l 1
 624 673 l 1
 624 589 l 1
EndSplineSet
EndChar

StartChar: u0998
Encoding: 2456 2456 118
Width: 537
GlyphClass: 2
Flags: HW
HStem: 590 83<-9 38 113 389 471 546>
VStem: 27 78<499 582> 389 82<149 590>
AnchorPoint: "Anchor-2" 454 0 basechar 0
AnchorPoint: "Anchor-1" 454 29 basechar 0
AnchorPoint: "Anchor-0" 454 681 basechar 0
LayerCount: 2
Fore
SplineSet
389 149 m 1
 389 590 l 1
 137 590 l 1
 116 577 105 561 105 541 c 0
 105 526 111 512 124 501 c 0
 137 490 152 484 170 484 c 0
 176 484 182 486 191 488 c 0
 200 490 206 491 211 491 c 0
 222 491 232 487 239 479 c 0
 246 471 250 462 250 452 c 0
 250 442 247 433 240 425 c 2
 149 318 l 1
 389 149 l 1
546 590 m 1
 471 590 l 1
 471 71 l 2
 471 63 466 55 456 49 c 0
 446 43 434 39 422 39 c 0
 411 39 401 42 393 47 c 2
 68 279 l 1
 55 285 48 294 48 307 c 0
 48 316 52 326 60 335 c 2
 124 411 l 1
 96 419 72 434 54 457 c 0
 36 480 27 506 27 536 c 0
 27 554 31 572 38 590 c 1
 -9 590 l 1
 -9 673 l 1
 546 673 l 1
 546 590 l 1
EndSplineSet
EndChar

StartChar: u0999
Encoding: 2457 2457 119
Width: 639
GlyphClass: 2
Flags: HW
HStem: 38 76<309 461> 423 78<321 425> 531 10G<54 72>
VStem: 30 72<422 538> 225 76<355 441> 534 77<181 316>
AnchorPoint: "Anchor-2" 359 0 basechar 0
AnchorPoint: "Anchor-1" 315 37 basechar 0 {} {11-11 -7}
AnchorPoint: "Anchor-0" 359 659 basechar 0
LayerCount: 2
Fore
SplineSet
446 553 m 1
 448 565 443 575 432 583 c 0
 423 589 412 592 399 591 c 0
 363 584 337 556 321 507 c 1
 341 503 357 501 369 501 c 0
 405 501 431 518 446 553 c 1
514 606 m 1
 519 592 522 578 522 563 c 0
 522 532 512 503 490 477 c 0
 468 451 442 435 413 428 c 0
 398 424 383 423 367 423 c 0
 345 423 324 426 303 433 c 1
 302 411 301 399 301 396 c 0
 303 381 308 367 317 354 c 1
 445 416 l 1
 460 429 481 433 506 426 c 1
 576 376 611 316 611 248 c 0
 611 192 588 143 544 101 c 0
 500 59 449 38 390 38 c 0
 327 38 267 62 209 110 c 0
 159 151 121 200 97 255 c 0
 74 308 51 391 30 506 c 1
 33 529 44 541 64 541 c 0
 79 541 92 533 102 518 c 1
 121 416 144 339 170 286 c 0
 192 240 222 201 260 169 c 0
 303 132 345 114 388 114 c 0
 418 114 446 123 473 143 c 0
 514 172 534 207 534 248 c 0
 534 286 516 320 481 350 c 1
 307 256 l 1
 252 297 225 342 225 391 c 0
 225 398 226 406 227 413 c 1
 226 426 227 441 231 457 c 1
 150 496 95 550 66 621 c 0
 65 625 65 629 65 632 c 0
 65 654 78 665 103 665 c 0
 112 665 121 662 129 657 c 1
 164 596 204 554 247 532 c 1
 259 565 279 595 307 622 c 0
 338 651 368 668 398 671 c 0
 444 676 482 654 514 606 c 1
EndSplineSet
EndChar

StartChar: u099a
Encoding: 2458 2458 120
Width: 507
GlyphClass: 2
Flags: HW
HStem: 32 80<183 251> 588 83<-3 98 182 508>
VStem: 102 80<112 438 531 588> 360 74<248 364>
AnchorPoint: "Anchor-2" 286 59 basechar 0
AnchorPoint: "Anchor-1" 198 37 basechar 0
AnchorPoint: "Anchor-0" 132 667 basechar 0
LayerCount: 2
Fore
SplineSet
508 588 m 1
 182 588 l 1
 182 562 l 1
 201 528 230 501 271 480 c 1
 305 466 339 452 373 438 c 0
 407 422 426 401 432 374 c 0
 434 363 435 350 435 337 c 0
 435 276 413 215 369 152 c 0
 325 89 277 49 224 34 c 0
 219 33 214 32 208 32 c 0
 183 32 161 41 140 58 c 0
 115 79 102 105 102 139 c 2
 102 594 l 1
 98 590 l 1
 -3 590 l 1
 -3 673 l 1
 98 673 l 1
 102 671 l 1
 508 671 l 1
 508 588 l 1
357 355 m 1
 349 370 324 384 281 397 c 0
 231 412 198 425 182 438 c 1
 182 147 l 2
 182 123 190 111 207 111 c 0
 214 111 223 114 233 120 c 0
 261 137 289 166 316 207 c 0
 345 253 360 294 360 330 c 0
 360 339 359 347 357 355 c 1
EndSplineSet
EndChar

StartChar: u099b
Encoding: 2459 2459 121
Width: 640
GlyphClass: 2
Flags: HW
HStem: 90 75<194 324> 246 56<182 280> 536 10G<403 434> 589 84<-2 127 212 643>
VStem: 127 82<303 494> 496 73<315 440>
AnchorPoint: "Anchor-2" 439 7 basechar 0
AnchorPoint: "Anchor-1" 461 59 basechar 0
AnchorPoint: "Anchor-0" 110 681 basechar 0
LayerCount: 2
Fore
SplineSet
681 34 m 1
 686 23 689 13 689 4 c 0
 689 -21 672 -32 639 -28 c 1
 537 43 393 82 208 90 c 1
 196 101 190 116 190 134 c 0
 190 150 196 160 208 165 c 1
 258 171 291 176 308 181 c 0
 341 189 371 205 397 226 c 1
 422 243 445 267 464 297 c 0
 485 330 496 360 496 387 c 0
 496 422 479 446 444 459 c 1
 447 402 420 351 365 306 c 0
 315 266 262 246 209 246 c 0
 154 246 127 270 127 318 c 2
 127 592 l 1
 114 591 l 1
 -2 590 l 1
 -2 673 l 1
 159 673 l 2
 162 673 162 673 197 673 c 2
 643 673 l 1
 643 589 l 1
 212 589 l 1
 219 574 239 561 273 553 c 0
 301 546 332 543 365 543 c 0
 383 543 397 544 408 546 c 1
 460 543 501 526 530 495 c 0
 556 466 569 430 569 387 c 0
 569 335 552 286 518 239 c 0
 484 192 448 160 410 145 c 1
 510 128 600 91 681 34 c 1
368 435 m 0
 364 456 344 468 306 474 c 0
 253 481 221 488 209 494 c 1
 209 323 l 2
 209 309 215 302 228 302 c 0
 250 302 280 319 317 353 c 0
 354 387 371 415 368 435 c 0
EndSplineSet
EndChar

StartChar: u099c
Encoding: 2460 2460 122
Width: 833
GlyphClass: 2
Flags: HW
HStem: 76 77<312 475> 590 83<-11 302 578 840>
VStem: 29 73<416 545> 247 75<390 509> 547 76<218 347> 649 77<108 339>
AnchorPoint: "Anchor-2" 593 88 basechar 0
AnchorPoint: "Anchor-1" 732 15 basechar 0
AnchorPoint: "Anchor-0" 359 674 basechar 0
LayerCount: 2
Fore
SplineSet
840 590 m 1
 578 590 l 1
 763 476 l 1
 778 471 786 461 786 444 c 0
 786 437 784 431 780 424 c 0
 744 342 727 274 727 222 c 0
 727 165 745 101 781 31 c 1
 781 -1 767 -17 739 -17 c 0
 732 -17 724 -15 716 -12 c 1
 671 76 649 154 649 221 c 0
 649 277 665 345 697 424 c 1
 430 592 l 1
 400 575 374 552 353 523 c 0
 332 494 321 467 321 441 c 0
 321 416 333 396 354 382 c 1
 385 394 415 406 446 417 c 0
 483 431 515 438 540 437 c 1
 596 396 624 344 624 279 c 0
 624 206 589 150 521 112 c 0
 478 88 435 76 392 76 c 0
 291 76 200 136 119 254 c 1
 102 272 84 306 66 355 c 0
 47 407 35 459 29 509 c 1
 29 536 40 550 61 550 c 0
 76 550 90 543 103 528 c 1
 111 434 140 352 193 281 c 0
 256 196 324 153 396 153 c 0
 437 153 475 169 510 201 c 0
 535 223 547 250 547 281 c 0
 547 312 536 339 514 363 c 1
 505 360 475 349 425 329 c 0
 390 314 361 306 339 305 c 1
 277 331 247 376 247 440 c 0
 247 491 265 541 302 590 c 1
 -11 590 l 1
 -12 673 l 1
 840 673 l 1
 840 590 l 1
EndSplineSet
EndChar

StartChar: u099d
Encoding: 2461 2461 123
Width: 692
GlyphClass: 2
Flags: HW
HStem: 590 83<-6 336 622 700>
VStem: 336 82<154 251 355 466 560 590> 539 82<263 590>
AnchorPoint: "Anchor-2" 417 29 basechar 0
AnchorPoint: "Anchor-1" 381 22 basechar 0
AnchorPoint: "Anchor-0" 564 674 basechar 0
LayerCount: 2
Fore
SplineSet
336 154 m 1
 336 466 l 1
 132 340 l 1
 336 154 l 1
700 590 m 1
 622 590 l 1
 621 168 l 2
 621 149 606 139 575 139 c 0
 560 139 549 143 542 150 c 2
 418 251 l 1
 418 66 l 2
 418 55 414 47 404 40 c 0
 394 33 383 30 370 30 c 0
 357 30 347 34 339 41 c 2
 37 319 l 2
 31 325 29 333 29 346 c 0
 29 363 35 375 46 382 c 2
 336 560 l 1
 336 590 l 1
 -6 590 l 1
 -6 673 l 1
 347 673 l 2
 394 673 418 649 418 601 c 2
 418 355 l 1
 539 263 l 1
 539 601 l 2
 539 649 563 673 610 673 c 2
 700 673 l 1
 700 590 l 1
EndSplineSet
EndChar

StartChar: u099e
Encoding: 2462 2462 124
Width: 937
GlyphClass: 2
Flags: HW
HStem: 101 75<153 382> 122 74<215 467> 340 77<745 810> 586 81<426 521>
VStem: 31 77<223 388> 259 81<328 507> 528 92<149 352> 528 82<149 214 435 582> 830 87<437 510> 842 85<252 321>
AnchorPoint: "Anchor-2" 571 37 basechar 0
AnchorPoint: "Anchor-1" 571 44 basechar 0
AnchorPoint: "Anchor-0" 520 645 basechar 0
LayerCount: 2
Fore
SplineSet
610 67 m 2
 610 59 603 52 590 46 c 0
 577 40 564 36 551 36 c 0
 540 36 533 39 529 44 c 0
 491 96 442 122 383 122 c 0
 364 122 335 119 296 112 c 0
 257 105 228 101 208 101 c 0
 192 101 177 103 162 106 c 0
 113 123 79 150 58 185 c 0
 40 216 31 258 31 309 c 0
 31 329 32 352 35 377 c 1
 48 388 61 393 73 393 c 0
 86 393 99 386 112 372 c 1
 109 330 108 307 108 303 c 0
 108 254 124 217 158 194 c 0
 175 182 195 176 220 176 c 0
 235 176 261 179 297 186 c 0
 333 193 362 196 383 196 c 0
 436 196 484 180 528 149 c 1
 528 528 l 2
 528 567 515 586 489 586 c 0
 474 586 453 579 429 566 c 0
 369 535 340 490 340 431 c 0
 340 404 346 373 358 337 c 1
 355 313 341 301 314 301 c 0
 301 301 290 305 282 314 c 1
 266 349 259 386 259 422 c 0
 259 477 275 527 308 571 c 0
 341 615 385 643 441 658 c 0
 456 664 471 667 486 667 c 0
 515 667 543 655 570 632 c 0
 597 609 610 575 610 532 c 2
 608 435 l 1
 627 470 647 500 667 524 c 0
 702 568 743 591 790 594 c 1
 826 591 856 578 880 554 c 0
 904 530 917 502 917 471 c 0
 917 438 902 409 875 382 c 1
 910 353 927 319 927 278 c 0
 927 224 898 190 841 174 c 0
 832 173 824 172 816 172 c 0
 733 172 668 232 620 352 c 1
 610 67 l 2
821 251 m 1
 835 260 842 271 842 284 c 0
 842 298 834 311 819 323 c 0
 804 335 788 340 771 340 c 1
 751 351 740 364 740 379 c 0
 740 394 748 406 765 417 c 1
 784 420 800 427 812 440 c 0
 824 453 830 466 830 479 c 0
 830 503 814 515 782 514 c 0
 761 513 740 498 719 467 c 0
 713 458 699 431 677 387 c 1
 691 350 710 319 734 293 c 0
 763 260 792 246 821 251 c 1
EndSplineSet
EndChar

StartChar: u099f
Encoding: 2463 2463 125
Width: 552
GlyphClass: 2
Flags: HW
HStem: 34 102<231 318> 588 83<-4 138 220 424 502 555> 740 77<80 404>
VStem: -39 73<858 945> 138 82<150 588> 405 76<243 377>
AnchorPoint: "Anchor-2" 300 44 basechar 0
AnchorPoint: "Anchor-1" 264 44 basechar 0
AnchorPoint: "Anchor-0" 212 688 basechar 0
LayerCount: 2
Fore
SplineSet
555 588 m 1
 220 588 l 1
 220 184 l 2
 220 171 224 159 233 150 c 0
 242 141 254 136 267 136 c 0
 288 136 310 146 332 168 c 1
 381 227 405 277 405 319 c 0
 405 325 404 331 403 337 c 0
 401 355 394 369 382 379 c 0
 370 389 358 398 346 407 c 1
 343 412 341 416 341 423 c 0
 341 434 345 445 354 454 c 0
 363 463 375 468 388 468 c 1
 450 426 480 379 480 327 c 0
 480 264 457 200 410 136 c 0
 360 68 306 34 251 34 c 0
 224 34 200 48 175 76 c 0
 150 104 138 134 138 167 c 2
 138 588 l 1
 128 590 l 1
 -4 590 l 1
 -4 673 l 1
 128 673 l 1
 208 671 l 1
 424 671 l 1
 431 717 387 740 289 740 c 0
 275 740 258 739 239 738 c 0
 220 737 210 736 208 736 c 0
 115 745 55 758 28 773 c 0
 -12 797 -35 846 -39 920 c 1
 -38 938 -25 947 -2 947 c 0
 15 947 27 941 35 930 c 1
 36 884 52 852 83 835 c 0
 106 823 144 817 197 816 c 2
 273 816 l 2
 340 815 390 807 424 792 c 0
 474 769 501 729 504 671 c 1
 555 671 l 1
 555 588 l 1
EndSplineSet
EndChar

StartChar: u09a0
Encoding: 2464 2464 126
Width: 515
GlyphClass: 2
Flags: HW
HStem: 39 77<153 277> 590 83<-6 177 330 516> 976 76<150 207>
VStem: 32 76<165 254> 66 78<864 970> 220 73<421 516> 368 74<218 416>
AnchorPoint: "Anchor-2" 264 22 basechar 0
AnchorPoint: "Anchor-1" 212 37 basechar 0
AnchorPoint: "Anchor-0" 278 688 basechar 0
LayerCount: 2
Fore
SplineSet
301 157 m 0
 346 200 368 252 368 311 c 0
 368 374 343 442 293 516 c 1
 292 393 231 303 108 246 c 1
 109 207 119 176 139 152 c 0
 159 128 184 116 213 116 c 0
 244 116 273 130 301 157 c 0
516 590 m 1
 330 590 l 1
 405 490 442 393 442 300 c 0
 442 234 421 175 380 123 c 0
 335 67 281 39 216 39 c 0
 192 39 168 44 143 52 c 0
 116 62 92 88 68 129 c 0
 44 170 32 209 32 246 c 0
 32 273 39 294 54 307 c 1
 112 331 155 360 181 393 c 0
 207 426 220 469 220 522 c 0
 220 543 218 566 214 590 c 1
 -6 590 l 1
 -6 673 l 1
 177 673 l 1
 160 705 142 737 125 768 c 0
 104 807 89 843 78 874 c 0
 70 899 66 921 66 941 c 0
 66 1001 103 1038 179 1052 c 1
 201 1045 212 1030 212 1005 c 0
 212 990 207 980 196 976 c 1
 161 976 144 963 144 937 c 0
 144 919 155 887 176 841 c 0
 196 800 225 744 266 673 c 1
 516 673 l 1
 516 590 l 1
EndSplineSet
EndChar

StartChar: u09a1
Encoding: 2465 2465 127
Width: 733
GlyphClass: 2
Flags: HW
HStem: 35 80<337 498> 264 76<332 419> 590 83<-6 281 364 734>
VStem: 29 73<457 521> 281 83<342 590> 581 79<201 378>
AnchorPoint: "Anchor-2" 388 29 basechar 0
AnchorPoint: "Anchor-1" 425 29 basechar 0
AnchorPoint: "Anchor-0" 293 681 basechar 0
LayerCount: 2
Fore
SplineSet
734 590 m 1
 364 590 l 1
 364 354 l 1
 368 345 374 340 381 340 c 0
 406 340 449 384 508 473 c 0
 514 481 523 486 536 486 c 0
 553 486 569 480 582 467 c 0
 634 418 660 363 660 300 c 0
 660 267 653 231 640 192 c 1
 591 89 521 37 432 35 c 0
 377 34 322 51 268 87 c 0
 223 116 186 152 158 194 c 0
 108 270 65 370 29 495 c 0
 28 505 31 513 39 521 c 0
 47 529 58 533 70 533 c 0
 83 533 93 528 102 519 c 1
 137 412 168 335 195 289 c 1
 217 240 249 200 292 166 c 0
 335 132 378 115 422 115 c 0
 471 115 513 137 548 181 c 1
 570 214 581 251 581 292 c 0
 581 331 571 364 550 392 c 1
 512 350 484 321 464 306 c 0
 428 278 392 264 357 264 c 1
 306 272 281 311 281 381 c 2
 281 590 l 1
 -6 590 l 1
 -6 673 l 1
 734 673 l 1
 734 590 l 1
EndSplineSet
EndChar

StartChar: u09a2
Encoding: 2466 2466 128
Width: 522
GlyphClass: 2
Flags: HW
HStem: 33 100<204 290> 587 83<-6 112 193 523>
VStem: 113 80<147 587>
AnchorPoint: "Anchor-2" 308 59 basechar 0
AnchorPoint: "Anchor-1" 242 37 basechar 0
AnchorPoint: "Anchor-0" 154 667 basechar 0
LayerCount: 2
Fore
SplineSet
523 587 m 1
 193 587 l 1
 193 181 l 2
 193 168 197 155 206 146 c 0
 215 137 227 132 241 132 c 0
 262 132 283 144 303 166 c 0
 356 224 380 280 374 333 c 0
 372 350 365 364 353 374 c 0
 341 384 330 393 318 401 c 1
 315 406 313 411 313 418 c 0
 313 429 317 439 326 448 c 0
 335 457 346 461 359 461 c 1
 389 439 411 420 424 402 c 0
 441 379 450 353 450 322 c 0
 450 260 427 198 380 134 c 0
 331 67 279 33 225 33 c 0
 199 33 173 46 149 74 c 0
 125 102 113 132 113 165 c 2
 113 599 l 1
 112 590 l 1
 -6 590 l 1
 -6 673 l 1
 112 673 l 2
 112 671 136 670 182 670 c 2
 523 670 l 1
 523 587 l 1
EndSplineSet
EndChar

StartChar: u09a3
Encoding: 2467 2467 129
Width: 517
GlyphClass: 2
Flags: HW
HStem: 274 75<154 217> 572 76<163 307> 590 83<451 523>
VStem: 40 75<389 524> 370 81<49 512>
AnchorPoint: "Anchor-2" 439 132 basechar 0
AnchorPoint: "Anchor-1" 417 37 basechar 0
AnchorPoint: "Anchor-0" 447 667 basechar 0
LayerCount: 2
Fore
SplineSet
523 590 m 1
 451 590 l 1
 451 77 l 2
 451 55 439 44 414 44 c 0
 403 44 392 47 383 53 c 0
 374 59 370 67 370 76 c 2
 370 411 l 2
 370 426 365 451 358 486 c 0
 353 509 339 529 313 546 c 0
 287 563 259 572 230 572 c 0
 199 572 174 562 153 543 c 0
 127 519 115 490 115 457 c 0
 115 429 124 404 141 383 c 0
 158 362 180 350 205 349 c 1
 217 346 223 337 223 321 c 0
 223 310 220 299 213 289 c 0
 206 279 198 274 189 274 c 0
 116 288 69 328 49 393 c 0
 42 414 40 436 40 458 c 0
 40 503 53 543 80 578 c 0
 107 613 143 634 190 642 c 0
 211 646 231 648 248 648 c 0
 291 648 332 632 371 601 c 1
 378 649 400 673 439 673 c 2
 523 673 l 1
 523 590 l 1
EndSplineSet
EndChar

StartChar: u09a4
Encoding: 2468 2468 130
Width: 719
GlyphClass: 2
Flags: HW
HStem: 38 78<343 500> 590 83<-6 726>
VStem: 29 74<447 541> 302 79<356 459> 574 78<206 415>
AnchorPoint: "Anchor-2" 425 59 basechar 0
AnchorPoint: "Anchor-1" 432 44 basechar 0
AnchorPoint: "Anchor-0" 330 674 basechar 0
LayerCount: 2
Fore
SplineSet
646 252 m 0
 633 188 609 137 573 99 c 0
 535 58 488 38 432 38 c 0
 418 38 404 39 389 42 c 0
 334 52 288 71 250 99 c 0
 229 115 202 143 169 183 c 0
 90 280 44 390 29 515 c 0
 26 525 29 534 38 541 c 0
 47 548 57 552 69 552 c 0
 86 552 97 545 103 532 c 1
 123 451 138 398 148 371 c 0
 169 318 198 268 235 223 c 0
 264 188 291 163 315 150 c 0
 331 141 361 130 405 117 c 0
 412 116 418 116 425 116 c 0
 473 116 510 136 536 175 c 0
 559 210 572 255 574 312 c 0
 576 365 564 407 537 437 c 0
 512 465 478 477 437 474 c 1
 400 467 381 446 381 411 c 0
 381 396 385 382 394 370 c 1
 394 359 390 349 382 340 c 0
 374 331 363 327 352 327 c 0
 343 327 335 330 327 335 c 1
 310 362 302 388 302 415 c 0
 302 453 317 485 349 512 c 0
 378 538 412 551 451 551 c 0
 514 552 565 528 602 479 c 0
 635 435 652 380 652 315 c 0
 652 294 650 273 646 252 c 0
726 590 m 1
 -6 590 l 1
 -6 673 l 1
 726 673 l 1
 726 590 l 1
EndSplineSet
EndChar

StartChar: u09a5
Encoding: 2469 2469 131
Width: 577
GlyphClass: 2
Flags: HW
HStem: 575 79<121 240> 590 83<502 575>
VStem: 21 75<458 548> 264 75<427 551> 420 82<145 590>
AnchorPoint: "Anchor-2" 505 44 basechar 0
AnchorPoint: "Anchor-1" 476 37 basechar 0
AnchorPoint: "Anchor-0" 461 674 basechar 0
LayerCount: 2
Fore
SplineSet
575 590 m 1
 502 590 l 1
 502 69 l 2
 502 61 496 55 485 49 c 0
 474 43 463 40 450 40 c 0
 439 40 431 42 424 47 c 2
 128 269 l 1
 123 280 121 292 121 302 c 0
 121 318 127 327 138 332 c 0
 170 345 199 368 225 402 c 0
 251 436 264 467 264 498 c 0
 264 534 245 559 207 573 c 1
 196 574 185 575 176 575 c 0
 126 575 99 545 96 483 c 0
 93 465 80 456 56 456 c 0
 37 456 26 463 21 476 c 1
 14 585 58 644 152 653 c 0
 160 654 168 654 176 654 c 0
 225 654 264 640 294 611 c 0
 324 582 339 545 339 500 c 0
 339 463 330 425 310 387 c 0
 297 360 268 329 224 294 c 1
 420 145 l 1
 420 601 l 2
 420 625 428 644 444 657 c 0
 457 667 473 673 491 673 c 2
 575 673 l 1
 575 590 l 1
EndSplineSet
EndChar

StartChar: u09a6
Encoding: 2470 2470 132
Width: 439
GlyphClass: 2
Flags: HW
HStem: 590 83<-6 38 119 447>
VStem: 38 81<401 590> 249 76<140 397>
AnchorPoint: "Anchor-2" 381 103 basechar 0
AnchorPoint: "Anchor-1" 359 44 basechar 0
AnchorPoint: "Anchor-0" 154 674 basechar 0
LayerCount: 2
Fore
SplineSet
447 590 m 1
 119 590 l 1
 119 401 l 1
 148 428 180 453 215 476 c 0
 260 505 295 519 321 519 c 0
 325 519 329 519 332 518 c 0
 361 516 374 501 371 472 c 1
 340 387 325 317 325 262 c 0
 325 202 341 142 372 82 c 1
 375 65 369 53 354 46 c 0
 342 39 327 37 308 40 c 1
 269 110 249 182 249 255 c 0
 249 304 258 359 275 420 c 1
 215 393 159 349 107 288 c 1
 98 282 87 279 76 279 c 0
 51 279 38 290 38 311 c 2
 38 590 l 1
 -6 590 l 1
 -6 673 l 1
 447 673 l 1
 447 590 l 1
EndSplineSet
EndChar

StartChar: u09a7
Encoding: 2471 2471 133
Width: 477
GlyphClass: 2
Flags: HW
HStem: 590 83<109 205 412 484>
VStem: 28 78<512 583> 331 81<152 469 563 590>
AnchorPoint: "Anchor-2" 425 15 basechar 0
AnchorPoint: "Anchor-1" 381 37 basechar 0
AnchorPoint: "Anchor-0" 366 674 basechar 0
LayerCount: 2
Fore
SplineSet
331 152 m 1
 331 469 l 1
 128 341 l 1
 331 152 l 1
484 590 m 1
 412 590 l 1
 412 61 l 2
 412 54 407 48 396 43 c 0
 385 38 373 36 360 36 c 0
 350 36 341 38 335 42 c 2
 38 321 l 2
 33 328 31 336 31 347 c 0
 31 362 36 376 46 387 c 1
 115 428 l 1
 74 450 46 483 30 525 c 1
 29 534 28 543 28 551 c 0
 28 592 44 622 77 643 c 0
 106 662 142 671 186 671 c 1
 202 666 210 655 210 638 c 0
 210 615 203 600 188 593 c 1
 133 593 106 580 106 554 c 0
 106 548 107 543 109 536 c 0
 129 502 157 486 195 486 c 0
 201 486 206 486 211 487 c 1
 331 563 l 1
 331 601 l 2
 331 649 354 673 400 673 c 2
 484 673 l 1
 484 590 l 1
EndSplineSet
EndChar

StartChar: u09a8
Encoding: 2472 2472 134
Width: 519
GlyphClass: 2
Flags: HW
HStem: 381 78<158 313> 589 84<-6 372 453 526>
VStem: 37 79<204 340> 372 81<34 319 411 589>
AnchorPoint: "Anchor-2" 447 0 basechar 0
AnchorPoint: "Anchor-1" 410 37 basechar 0
AnchorPoint: "Anchor-0" 403 688 basechar 0
LayerCount: 2
Fore
SplineSet
526 589 m 1
 453 589 l 1
 453 56 l 2
 453 40 440 32 413 32 c 0
 386 32 372 40 372 56 c 2
 372 260 l 1
 364 295 352 322 335 341 c 0
 318 360 294 372 261 378 c 0
 251 380 241 381 230 381 c 0
 197 381 171 372 150 353 c 0
 128 333 116 307 116 275 c 0
 116 267 117 259 118 251 c 0
 121 232 127 217 136 206 c 0
 145 195 159 184 180 173 c 1
 186 166 189 159 189 150 c 0
 189 138 185 127 176 118 c 0
 167 109 157 106 146 108 c 1
 102 126 72 154 55 192 c 0
 43 220 37 248 37 277 c 0
 37 323 51 362 80 396 c 0
 109 430 147 449 196 456 c 0
 209 458 223 459 236 459 c 0
 288 459 333 443 372 411 c 1
 372 589 l 1
 -6 589 l 1
 -6 673 l 1
 526 673 l 1
 526 589 l 1
EndSplineSet
EndChar

StartChar: u09aa
Encoding: 2474 2474 135
Width: 666
GlyphClass: 2
Flags: HW
HStem: 589 84<222 359 600 672>
VStem: 518 82<37 407 531 589>
AnchorPoint: "Anchor-2" 557 -7 basechar 0
AnchorPoint: "Anchor-1" 571 44 basechar 0
AnchorPoint: "Anchor-0" 557 674 basechar 0
LayerCount: 2
Fore
SplineSet
404 535 m 1
 366 569 328 586 290 586 c 0
 252 586 213 569 176 534 c 1
 279 411 l 1
 404 535 l 1
672 589 m 1
 600 589 l 1
 600 61 l 2
 600 44 587 35 560 35 c 0
 532 35 518 43 518 60 c 2
 518 327 l 2
 518 364 498 414 457 477 c 1
 243 267 l 1
 239 266 235 266 231 266 c 0
 218 266 208 270 199 278 c 0
 190 286 187 296 187 308 c 0
 187 313 187 317 188 322 c 1
 222 357 l 1
 130 468 l 1
 107 431 l 1
 101 427 95 426 88 426 c 0
 77 426 66 430 56 439 c 0
 46 448 41 458 40 469 c 1
 87 573 156 638 251 661 c 0
 266 665 281 667 296 667 c 0
 375 667 450 622 518 531 c 1
 518 600 l 2
 518 620 524 637 538 651 c 0
 552 665 568 673 587 673 c 2
 672 673 l 1
 672 589 l 1
EndSplineSet
EndChar

StartChar: u09ab
Encoding: 2475 2475 136
Width: 690
GlyphClass: 2
Flags: HW
HStem: 226 79<474 525> 498 75<417 495> 590 83<-24 6 115 694>
VStem: 335 81<152 498> 541 79<319 455>
AnchorPoint: "Anchor-2" 432 15 basechar 0
AnchorPoint: "Anchor-1" 388 29 basechar 0
AnchorPoint: "Anchor-0" 308 674 basechar 0
LayerCount: 2
Fore
SplineSet
694 590 m 1
 115 590 l 1
 225 465 l 1
 229 454 231 444 231 436 c 0
 231 424 226 415 216 408 c 1
 126 323 l 1
 335 152 l 1
 335 509 l 2
 335 552 349 573 376 573 c 0
 490 573 564 541 598 476 c 0
 613 448 620 419 620 388 c 0
 620 347 608 310 584 278 c 0
 560 246 533 229 504 226 c 1
 482 229 470 243 470 270 c 0
 470 287 477 299 492 305 c 1
 505 304 516 311 526 328 c 0
 536 345 541 364 541 387 c 0
 541 407 537 425 528 442 c 0
 510 477 473 495 417 498 c 1
 416 73 l 1
 419 50 406 38 377 38 c 0
 362 38 349 43 338 51 c 2
 42 292 l 1
 36 302 33 312 33 321 c 0
 33 333 38 344 48 355 c 2
 141 440 l 1
 6 590 l 1
 -24 590 l 1
 -24 673 l 1
 694 673 l 1
 694 590 l 1
EndSplineSet
EndChar

StartChar: u09ac
Encoding: 2476 2476 137
Width: 480
GlyphClass: 2
Flags: HW
HStem: 590 83<-6 333 414 487>
VStem: 333 80<161 475 564 590>
AnchorPoint: "Anchor-2" 447 7 basechar 0
AnchorPoint: "Anchor-1" 381 44 basechar 0
AnchorPoint: "Anchor-0" 352 674 basechar 0
LayerCount: 2
Fore
SplineSet
333 161 m 1
 333 475 l 1
 129 346 l 1
 333 161 l 1
487 590 m 1
 414 590 l 1
 413 71 l 2
 411 63 405 55 396 49 c 0
 387 43 377 39 367 39 c 0
 355 39 345 43 336 51 c 2
 39 324 l 2
 32 330 29 339 29 351 c 0
 29 367 34 378 43 384 c 2
 333 564 l 1
 333 590 l 1
 -6 590 l 1
 -6 673 l 1
 487 673 l 1
 487 590 l 1
EndSplineSet
EndChar

StartChar: u09ad
Encoding: 2477 2477 138
Width: 797
GlyphClass: 2
Flags: HW
HStem: 24 87<365 546> 280 77<403 510> 590 83<-6 799>
VStem: 29 72<475 583> 309 82<368 476> 647 81<208 359>
AnchorPoint: "Anchor-2" 439 44 basechar 0
AnchorPoint: "Anchor-1" 483 29 basechar 0
AnchorPoint: "Anchor-0" 352 681 basechar 0
LayerCount: 2
Fore
SplineSet
696 175 m 0
 637 74 558 24 458 24 c 0
 345 24 245 89 156 219 c 0
 118 275 90 328 71 378 c 0
 54 425 40 484 29 556 c 1
 34 576 46 586 66 586 c 0
 77 586 88 583 101 577 c 1
 113 492 139 411 180 332 c 0
 210 274 245 226 286 187 c 0
 340 136 396 111 455 111 c 0
 479 111 503 115 527 124 c 0
 560 136 588 158 612 188 c 0
 636 218 647 250 647 285 c 0
 647 317 636 347 615 374 c 1
 571 323 528 292 485 284 c 0
 472 281 460 280 449 280 c 0
 407 280 374 294 348 323 c 0
 322 352 309 388 309 429 c 0
 309 448 312 466 317 484 c 1
 327 494 338 499 349 499 c 0
 366 499 381 489 396 470 c 1
 393 454 391 440 391 428 c 0
 391 380 411 357 450 357 c 0
 455 357 461 357 466 358 c 0
 492 365 514 378 532 399 c 0
 540 408 554 426 571 455 c 1
 577 468 589 475 610 475 c 0
 621 475 630 472 637 465 c 0
 698 408 728 348 728 286 c 0
 728 249 717 212 696 175 c 0
799 590 m 1
 -6 590 l 1
 -6 673 l 1
 799 673 l 1
 799 590 l 1
EndSplineSet
EndChar

StartChar: u09ae
Encoding: 2478 2478 139
Width: 564
GlyphClass: 2
Flags: HW
HStem: 63 76<178 253> 346 80<249 321> 590 83<-6 65 157 416 498 571>
VStem: 65 75<176 307> 416 82<42 240 350 590>
AnchorPoint: "Anchor-2" 461 22 basechar 0
AnchorPoint: "Anchor-1" 461 44 basechar 0
AnchorPoint: "Anchor-0" 432 667 basechar 0
LayerCount: 2
Fore
SplineSet
416 350 m 1
 416 590 l 1
 157 590 l 1
 132 548 l 1
 166 541 193 527 215 506 c 0
 237 485 250 458 253 426 c 1
 310 427 365 401 416 350 c 1
571 590 m 1
 498 590 l 1
 498 64 l 2
 498 48 485 40 460 40 c 0
 431 40 416 48 416 65 c 2
 416 108 l 2
 416 200 395 265 353 302 c 0
 320 332 285 346 246 346 c 0
 199 346 166 324 145 280 c 1
 142 268 140 256 140 244 c 0
 140 215 149 191 166 171 c 0
 184 150 208 139 239 139 c 1
 251 133 257 122 257 105 c 0
 257 94 255 84 249 75 c 0
 243 66 236 62 228 63 c 0
 146 68 93 113 69 196 c 1
 66 214 65 230 65 245 c 0
 65 314 102 370 176 411 c 1
 175 436 161 454 137 464 c 0
 117 472 94 475 67 473 c 1
 41 478 28 492 28 516 c 0
 28 521 29 526 30 531 c 2
 65 590 l 1
 -6 590 l 1
 -6 673 l 1
 571 673 l 1
 571 590 l 1
EndSplineSet
EndChar

StartChar: u09af
Encoding: 2479 2479 140
Width: 489
GlyphClass: 2
Flags: HW
HStem: 590 83<-6 25 127 342 423 496>
VStem: 342 81<143 590>
AnchorPoint: "Anchor-2" 432 15 basechar 0
AnchorPoint: "Anchor-1" 381 37 basechar 0
AnchorPoint: "Anchor-0" 359 667 basechar 0
LayerCount: 2
Fore
SplineSet
342 143 m 1
 342 590 l 1
 127 590 l 1
 236 454 l 2
 240 447 241 438 241 430 c 0
 241 417 237 408 230 401 c 2
 116 304 l 1
 342 143 l 1
496 590 m 1
 423 590 l 1
 423 69 l 2
 423 46 408 34 377 34 c 0
 364 34 354 37 346 43 c 2
 34 271 l 2
 24 278 19 288 19 299 c 0
 19 309 22 319 29 329 c 1
 152 438 l 1
 25 590 l 1
 -6 590 l 1
 -6 673 l 1
 496 673 l 1
 496 590 l 1
EndSplineSet
EndChar

StartChar: u09b0
Encoding: 2480 2480 141
Width: 480
GlyphClass: 2
Flags: HW
HStem: 96 109<31 105> 590 83<-6 333 414 487>
VStem: 15 106<112 187> 333 80<161 475 564 590>
AnchorPoint: "Anchor-2" 447 15 basechar 0
AnchorPoint: "Anchor-1" 381 37 basechar 0
AnchorPoint: "Anchor-0" 352 681 basechar 0
LayerCount: 2
Fore
SplineSet
333 161 m 1
 333 475 l 1
 129 346 l 1
 333 161 l 1
121 148 m 0
 121 133 115 121 105 111 c 0
 95 101 83 96 69 96 c 0
 54 96 41 101 30 111 c 0
 19 121 14 133 15 148 c 0
 14 163 19 177 29 188 c 0
 39 199 52 205 68 205 c 0
 82 205 94 199 105 188 c 0
 116 177 121 164 121 148 c 0
487 590 m 1
 414 590 l 1
 413 71 l 2
 411 63 405 55 396 49 c 0
 387 43 377 39 367 39 c 0
 355 39 345 43 336 51 c 2
 39 324 l 2
 32 330 29 339 29 351 c 0
 29 367 34 378 43 384 c 2
 333 564 l 1
 333 590 l 1
 -6 590 l 1
 -6 673 l 1
 487 673 l 1
 487 590 l 1
EndSplineSet
EndChar

StartChar: u09b0
Encoding: 2482 2482 142
Width: 688
GlyphClass: 2
Flags: HW
HStem: 182 74<213 255> 445 82<391 483> 454 80<141 266> 590 83<-6 539 621 695>
VStem: 27 79<295 420> 539 82<33 383 475 590>
AnchorPoint: "Anchor-2" 564 -7 basechar 0
AnchorPoint: "Anchor-1" 586 29 basechar 0
AnchorPoint: "Anchor-0" 564 674 basechar 0
LayerCount: 2
Fore
SplineSet
695 590 m 1
 621 590 l 1
 621 72 l 2
 621 44 607 30 579 30 c 0
 552 30 539 43 539 70 c 2
 539 348 l 1
 504 412 469 445 434 445 c 0
 407 445 385 424 367 383 c 1
 360 376 349 372 332 372 c 0
 315 372 303 377 295 385 c 1
 280 431 249 454 203 454 c 0
 162 454 132 435 113 396 c 0
 108 383 106 370 106 357 c 0
 106 324 119 298 145 279 c 0
 171 260 200 252 233 256 c 1
 250 250 259 239 259 223 c 0
 259 204 251 190 235 182 c 1
 228 181 220 181 213 181 c 0
 160 181 116 198 80 233 c 0
 44 268 27 309 27 356 c 0
 27 389 36 419 55 449 c 0
 90 506 140 534 205 534 c 0
 255 534 297 514 331 475 c 1
 364 510 397 527 431 527 c 0
 465 527 501 510 539 475 c 1
 539 590 l 1
 -6 590 l 1
 -6 673 l 1
 695 673 l 1
 695 590 l 1
EndSplineSet
EndChar

StartChar: u09b6
Encoding: 2486 2486 143
Width: 630
GlyphClass: 2
Flags: HW
HStem: 330 76<4 102 300 400> 590 83<-14 116 279 434 563 638>
VStem: 152 99<450 555> 480 83<44 551>
AnchorPoint: "Anchor-2" 505 15 basechar 0
AnchorPoint: "Anchor-1" 542 37 basechar 0
AnchorPoint: "Anchor-0" 535 667 basechar 0
LayerCount: 2
Fore
SplineSet
638 590 m 1
 563 590 l 1
 563 67 l 2
 563 50 550 41 525 41 c 0
 495 41 480 50 480 67 c 2
 480 507 l 2
 480 528 467 547 441 564 c 0
 413 582 382 591 346 591 c 0
 323 591 302 584 283 571 c 0
 261 556 250 535 251 508 c 0
 252 472 266 446 293 431 c 0
 312 420 346 412 393 406 c 1
 400 402 403 393 403 378 c 0
 403 356 398 339 387 330 c 1
 336 334 297 342 273 353 c 0
 246 365 223 387 203 419 c 1
 182 381 156 356 125 343 c 0
 104 335 68 330 18 327 c 1
 7 336 0 349 0 364 c 0
 0 379 5 392 14 403 c 1
 49 405 78 414 104 429 c 0
 130 444 146 465 152 491 c 1
 155 512 150 531 137 548 c 0
 121 568 102 581 79 586 c 0
 66 589 41 590 4 590 c 0
 -9 590 -16 604 -16 633 c 0
 -16 660 -9 673 4 673 c 0
 57 673 92 671 109 666 c 0
 144 655 176 630 202 590 c 1
 223 618 242 637 262 649 c 0
 282 661 308 669 343 673 c 0
 366 676 392 672 420 662 c 0
 448 652 470 640 486 625 c 1
 500 657 522 673 551 673 c 2
 638 673 l 1
 638 590 l 1
EndSplineSet
EndChar

StartChar: u09b7
Encoding: 2487 2487 144
Width: 489
GlyphClass: 2
Flags: HW
HStem: 590 83<-6 25 127 342 423 496>
VStem: 342 81<143 322 406 590>
AnchorPoint: "Anchor-2" 425 29 basechar 0
AnchorPoint: "Anchor-1" 388 22 basechar 0
AnchorPoint: "Anchor-0" 352 681 basechar 0
LayerCount: 2
Fore
SplineSet
342 143 m 1
 342 322 l 1
 207 382 l 1
 116 304 l 1
 342 143 l 1
342 406 m 1
 342 590 l 1
 127 590 l 1
 216 479 l 1
 216 461 258 437 342 406 c 1
496 590 m 1
 423 590 l 1
 423 69 l 2
 423 46 408 34 377 34 c 0
 364 34 354 37 346 43 c 2
 34 271 l 2
 24 278 19 288 19 299 c 0
 19 309 22 319 29 329 c 1
 152 438 l 1
 25 590 l 1
 -6 590 l 1
 -6 673 l 1
 496 673 l 1
 496 590 l 1
EndSplineSet
EndChar

StartChar: u09b8
Encoding: 2488 2488 145
Width: 655
GlyphClass: 2
Flags: HW
HStem: 113 85<128 209> 385 71<374 437> 589 84<-6 130 227 506 589 662>
VStem: 506 83<31 270 390 589>
AnchorPoint: "Anchor-2" 476 7 basechar 0
AnchorPoint: "Anchor-1" 549 29 basechar 0
AnchorPoint: "Anchor-0" 527 681 basechar 0
LayerCount: 2
Fore
SplineSet
506 390 m 1
 506 589 l 1
 227 589 l 1
 199 543 l 1
 254 530 303 496 343 441 c 1
 361 451 377 456 394 456 c 0
 427 456 464 434 506 390 c 1
662 589 m 1
 589 589 l 1
 589 56 l 2
 589 38 576 29 551 29 c 0
 521 29 506 38 506 56 c 2
 506 122 l 2
 506 193 493 255 469 310 c 0
 446 360 423 385 400 385 c 0
 389 385 380 377 373 361 c 0
 352 290 323 232 287 186 c 0
 248 137 208 113 166 113 c 0
 117 113 72 148 32 217 c 0
 30 223 29 229 29 234 c 0
 29 257 42 269 69 269 c 0
 79 269 88 266 97 261 c 1
 121 219 145 198 169 198 c 0
 206 198 246 254 291 367 c 1
 271 405 251 432 230 447 c 0
 207 463 174 472 132 473 c 1
 120 471 110 474 103 481 c 0
 96 488 93 498 93 509 c 0
 93 517 95 525 99 533 c 2
 130 589 l 1
 -6 589 l 1
 -6 673 l 1
 662 673 l 1
 662 589 l 1
EndSplineSet
EndChar

StartChar: u09b9
Encoding: 2489 2489 146
Width: 443
GlyphClass: 2
Flags: HW
HStem: 518 155<168 291> 589 84<-6 111 291 453>
VStem: 55 74<393 480> 338 76<356 482>
AnchorPoint: "Anchor-2" 396 15 basechar 0
AnchorPoint: "Anchor-1" 322 51 basechar 0
AnchorPoint: "Anchor-0" 220 674 basechar 0
LayerCount: 2
Fore
SplineSet
291 589 m 1
 373 565 414 506 414 413 c 0
 414 402 413 390 412 378 c 0
 389 285 313 228 186 208 c 1
 500 10 l 1
 502 3 503 -3 503 -9 c 0
 503 -35 488 -47 458 -44 c 1
 30 221 l 1
 23 231 19 242 19 254 c 0
 19 279 30 292 52 292 c 0
 57 292 62 291 67 289 c 0
 93 285 118 283 141 283 c 0
 242 283 306 318 335 388 c 0
 337 397 338 406 338 415 c 0
 338 440 331 462 317 481 c 0
 303 500 285 512 262 517 c 0
 255 518 249 518 243 518 c 0
 171 518 133 482 129 410 c 1
 122 397 110 390 92 390 c 0
 73 390 61 399 55 418 c 1
 55 447 62 475 77 504 c 0
 92 533 111 554 136 569 c 1
 111 589 l 1
 -6 589 l 1
 -6 673 l 1
 453 673 l 1
 453 589 l 1
 291 589 l 1
EndSplineSet
EndChar

StartChar: u09bc
Encoding: 2492 2492 147
Width: 5
GlyphClass: 2
Flags: HW
HStem: -116 88<-178 -103>
VStem: -186 90<-109 -34>
LayerCount: 2
Fore
SplineSet
-96 -71 m 0
 -96 -83 -101 -94 -110 -103 c 0
 -119 -112 -130 -116 -141 -116 c 0
 -152 -116 -163 -112 -172 -103 c 0
 -181 -94 -186 -83 -186 -71 c 0
 -186 -59 -181 -49 -172 -41 c 0
 -163 -33 -153 -28 -141 -28 c 0
 -129 -28 -118 -33 -109 -41 c 0
 -100 -49 -96 -59 -96 -71 c 0
EndSplineSet
EndChar

StartChar: u09be
Encoding: 2494 2494 148
Width: 231
GlyphClass: 2
Flags: HW
HStem: 590 83<-6 91 169 238>
VStem: 91 78<48 590>
LayerCount: 2
Fore
SplineSet
238 590 m 1
 169 590 l 1
 169 67 l 2
 169 54 155 47 128 47 c 0
 103 47 91 54 91 69 c 2
 91 590 l 1
 -6 590 l 1
 -6 673 l 1
 238 673 l 1
 238 590 l 1
EndSplineSet
EndChar

StartChar: u09bf
Encoding: 2495 2495 149
Width: 231
GlyphClass: 2
Flags: HW
HStem: 590 83<-6 70 179 253> 732 10G<595 613> 876 78<203 425>
VStem: 43 86<690 816> 97 82<50 590>
LayerCount: 2
Fore
SplineSet
638 783 m 1
 639 777 640 773 640 768 c 0
 640 744 626 732 599 732 c 0
 592 732 585 733 580 735 c 1
 500 829 413 876 319 876 c 0
 291 876 260 872 227 865 c 1
 162 840 129 804 129 758 c 0
 129 730 140 702 163 673 c 1
 253 673 l 1
 253 590 l 1
 179 590 l 1
 179 73 l 2
 179 56 165 48 135 48 c 0
 110 48 97 56 97 74 c 2
 97 590 l 1
 -6 590 l 1
 -6 673 l 1
 70 673 l 1
 52 698 43 725 43 756 c 0
 43 818 73 869 132 908 c 1
 191 939 252 954 316 954 c 0
 445 954 552 897 638 783 c 1
EndSplineSet
EndChar

StartChar: u09c0
Encoding: 2496 2496 150
Width: 231
GlyphClass: 2
Flags: HW
HStem: 590 83<-21 61 158 230> 860 74<-317 -77>
VStem: -99 77<608 685> 61 81<673 728> 75 83<33 590>
LayerCount: 2
Fore
SplineSet
230 590 m 1
 158 590 l 1
 158 73 l 2
 158 44 144 30 116 30 c 0
 89 30 75 44 75 73 c 2
 75 590 l 1
 -21 590 l 1
 -21 673 l 1
 61 673 l 1
 34 772 -27 832 -121 852 c 0
 -147 857 -173 860 -200 860 c 0
 -260 860 -309 847 -349 822 c 1
 -353 815 -355 810 -355 805 c 0
 -355 790 -327 783 -269 782 c 0
 -193 781 -139 775 -108 763 c 0
 -51 742 -22 698 -22 632 c 1
 -30 613 -45 603 -66 603 c 0
 -80 603 -91 610 -99 624 c 1
 -103 656 -108 676 -113 685 c 0
 -121 699 -139 708 -166 713 c 1
 -225 718 -283 722 -342 727 c 1
 -404 737 -433 769 -427 822 c 0
 -423 861 -396 889 -346 909 c 0
 -304 926 -253 934 -193 934 c 0
 -159 934 -130 932 -104 926 c 0
 40 896 122 812 142 673 c 1
 230 673 l 1
 230 590 l 1
EndSplineSet
EndChar

StartChar: u09c1
Encoding: 2497 2497 151
Width: 5
GlyphClass: 4
Flags: HW
HStem: -124 45<-218 -140>
VStem: -280 61<-77 -23>
AnchorPoint: "Anchor-1" -88 51 mark 0
LayerCount: 2
Fore
SplineSet
-127 -36 m 1
 -146 -21 -168 -17 -193 -22 c 0
 -211 -25 -219 -35 -219 -50 c 0
 -219 -70 -205 -79 -178 -79 c 0
 -171 -79 -162 -75 -151 -67 c 0
 -140 -59 -132 -49 -127 -36 c 1
64 -61 m 2
 69 -64 72 -68 72 -75 c 0
 72 -83 68 -92 62 -101 c 0
 56 -110 50 -114 43 -114 c 0
 41 -114 39 -114 37 -113 c 2
 -66 -65 l 1
 -91 -104 -130 -124 -185 -124 c 0
 -220 -124 -246 -114 -264 -93 c 0
 -274 -81 -280 -67 -280 -53 c 0
 -280 -36 -273 -20 -258 -4 c 0
 -244 10 -228 20 -210 25 c 0
 -198 28 -170 27 -127 20 c 1
 -130 27 -134 41 -140 61 c 1
 -68 61 l 1
 -51 36 -45 13 -48 -8 c 1
 64 -61 l 2
EndSplineSet
EndChar

StartChar: u09c2
Encoding: 2498 2498 152
Width: 5
GlyphClass: 4
Flags: HW
HStem: -126 64<-166 -86> -21 82<-142 -59> -21 62<-164 -132>
VStem: -232 324
AnchorPoint: "Anchor-1" -95 59 mark 0
LayerCount: 2
Fore
SplineSet
87 -139 m 2
 90 -143 92 -148 92 -154 c 0
 92 -164 88 -173 81 -181 c 0
 74 -189 64 -193 53 -193 c 1
 -77 -111 l 1
 -100 -121 -123 -126 -145 -126 c 0
 -188 -126 -217 -108 -232 -72 c 0
 -234 -64 -235 -55 -235 -47 c 0
 -235 -22 -224 -1 -202 17 c 0
 -181 33 -157 41 -132 41 c 1
 -134 45 -137 52 -142 61 c 1
 -68 61 -68 61 -68 61 c 1
 -56 45 -50 33 -49 26 c 0
 -48 13 -56 1 -72 -10 c 0
 -88 -21 -100 -26 -108 -23 c 0
 -113 -22 -118 -21 -123 -21 c 0
 -144 -21 -159 -30 -167 -48 c 1
 -165 -57 -158 -62 -147 -62 c 0
 -134 -62 -117 -56 -96 -45 c 0
 -88 -40 -81 -38 -74 -38 c 0
 -66 -38 -59 -41 -54 -47 c 1
 87 -139 l 2
EndSplineSet
EndChar

StartChar: u09c3
Encoding: 2499 2499 153
Width: 5
GlyphClass: 4
Flags: HW
HStem: -194 255
VStem: -233 221
AnchorPoint: "Anchor-1" -73 59 mark 0
LayerCount: 2
Fore
SplineSet
-19 -143 m 2
 -14 -148 -12 -154 -12 -161 c 0
 -12 -169 -15 -177 -22 -184 c 0
 -29 -191 -37 -194 -46 -194 c 0
 -50 -194 -53 -193 -57 -192 c 2
 -222 -60 l 2
 -229 -54 -233 -46 -233 -36 c 0
 -233 -24 -228 -14 -220 -7 c 1
 -102 61 l 1
 -91 64 -81 61 -74 54 c 0
 -67 47 -63 38 -63 27 c 0
 -63 19 -66 13 -71 7 c 1
 -148 -38 l 1
 -19 -143 l 2
EndSplineSet
EndChar

StartChar: u09c4
Encoding: 2500 2500 154
Width: 0
GlyphClass: 2
Flags: HW
LayerCount: 2
Fore
SplineSet
-184 61 m 1
 -310 -11 l 2
 -315 -16 -318 -22 -319 -29 c 1
 -398 -75 l 1
 -404 -81 -407 -88 -407 -96 c 0
 -407 -103 -404 -108 -399 -113 c 2
 -221 -255 l 2
 -218 -256 -216 -256 -213 -256 c 0
 -196 -256 -188 -249 -188 -234 c 0
 -188 -229 -190 -226 -193 -222 c 2
 -346 -97 l 1
 -292 -65 l 1
 -133 -192 l 2
 -130 -193 -128 -193 -125 -193 c 0
 -108 -193 -100 -186 -100 -171 c 0
 -100 -166 -102 -162 -105 -158 c 2
 -249 -40 l 1
 -245 -36 -243 -32 -243 -26 c 0
 -243 -25 -243 -25 -243 -24 c 2
 -161 23 l 2
 -157 27 -155 31 -155 37 c 0
 -155 44 -158 51 -163 56 c 0
 -168 61 -175 63 -184 61 c 1
EndSplineSet
EndChar

StartChar: u09c7
Encoding: 2503 2503 155
Width: 309
GlyphClass: 2
Flags: HW
HStem: 40 83<154 295> 590 83<-3 91 218 309>
VStem: 9 73<211 450>
LayerCount: 2
Fore
SplineSet
317 590 m 1
 282 590 249 588 217 585 c 1
 192 570 166 547 141 516 c 0
 102 468 82 404 82 325 c 0
 82 274 91 231 111 196 c 0
 133 155 165 129 207 119 c 0
 217 116 228 116 240 119 c 0
 256 122 266 123 270 123 c 0
 295 123 307 111 307 87 c 0
 307 74 303 64 295 56 c 1
 288 52 278 49 264 45 c 0
 250 41 236 40 223 40 c 0
 162 40 111 69 70 126 c 0
 33 178 12 239 9 310 c 0
 5 398 27 481 76 560 c 1
 91 587 l 1
 -3 590 l 1
 -3 673 l 1
 287 673 l 1
 309 673 l 1
 317 590 l 1
EndSplineSet
Substitution2: "'init' Initial Forms in Bengali lookup 0 subtable" ekaar_init
EndChar

StartChar: u09c8
Encoding: 2504 2504 156
Width: 349
GlyphClass: 2
Flags: HW
HStem: 27 87<200 339> 590 83<43 149 300 355> 720 81<-34 188>
VStem: -121 79<810 924> 52 80<203 447>
LayerCount: 2
Fore
SplineSet
361 590 m 1
 243 590 170 528 142 403 c 0
 136 376 132 349 132 320 c 0
 132 271 141 228 159 192 c 0
 178 150 207 122 244 109 c 1
 263 106 278 106 289 111 c 0
 296 113 303 114 310 114 c 0
 335 114 348 101 348 77 c 0
 348 68 345 58 340 49 c 1
 313 31 291 24 274 27 c 1
 202 25 146 57 105 123 c 0
 70 180 52 248 52 329 c 0
 52 356 55 382 60 406 c 0
 82 522 112 583 149 590 c 1
 142 590 l 1
 43 590 l 1
 43 673 l 1
 205 673 l 1
 202 693 184 706 150 714 c 0
 135 718 102 720 50 720 c 0
 4 721 -32 727 -57 737 c 0
 -100 755 -121 790 -121 840 c 0
 -121 851 -117 881 -110 932 c 1
 -98 939 -87 943 -75 943 c 0
 -57 943 -41 935 -28 920 c 1
 -37 885 -42 861 -42 848 c 0
 -42 819 -22 803 16 801 c 0
 108 796 166 790 193 781 c 0
 247 764 287 728 310 673 c 1
 355 673 l 1
 361 590 l 1
EndSplineSet
Substitution2: "'init' Initial Forms in Bengali lookup 0 subtable" aikaar_init
EndChar

StartChar: u09cb
Encoding: 2507 2507 157
Width: 655
GlyphClass: 2
Flags: HW
HStem: 40 83<154 295> 590 83<-3 91 218 309 482 579 657 726>
VStem: 9 73<211 450> 579 78<48 590>
LayerCount: 2
Fore
SplineSet
317 590 m 1
 282 590 249 588 217 585 c 1
 192 570 166 547 141 516 c 0
 102 468 82 404 82 325 c 0
 82 274 91 231 111 196 c 0
 133 155 165 129 207 119 c 0
 217 116 228 116 240 119 c 0
 256 122 266 123 270 123 c 0
 295 123 307 111 307 87 c 0
 307 74 303 64 295 56 c 1
 288 52 278 49 264 45 c 0
 250 41 236 40 223 40 c 0
 162 40 111 69 70 126 c 0
 33 178 12 239 9 310 c 0
 5 398 27 481 76 560 c 1
 91 587 l 1
 -3 590 l 1
 -3 673 l 1
 287 673 l 1
 309 673 l 1
 317 590 l 1
726 590 m 1
 657 590 l 1
 657 67 l 2
 657 54 643 47 616 47 c 0
 591 47 579 54 579 69 c 2
 579 590 l 1
 482 590 l 1
 482 673 l 1
 726 673 l 1
 726 590 l 1
EndSplineSet
EndChar

StartChar: u09cc
Encoding: 2508 2508 158
Width: 749
GlyphClass: 2
Flags: HW
HStem: 40 83<154 295> 590 83<-3 91 218 309 469 564 653 726>
VStem: 9 73<211 450> 171 76<822 912> 571 82<55 590>
LayerCount: 2
Fore
SplineSet
317 590 m 1
 282 590 249 588 217 585 c 1
 192 570 166 547 141 516 c 0
 102 468 82 404 82 325 c 0
 82 274 91 231 111 196 c 0
 133 155 165 129 207 119 c 0
 217 116 228 116 240 119 c 0
 256 122 266 123 270 123 c 0
 295 123 307 111 307 87 c 0
 307 74 303 64 295 56 c 1
 288 52 278 49 264 45 c 0
 250 41 236 40 223 40 c 0
 162 40 111 69 70 126 c 0
 33 178 12 239 9 310 c 0
 5 398 27 481 76 560 c 1
 91 587 l 1
 -3 590 l 1
 -3 673 l 1
 287 673 l 1
 309 673 l 1
 317 590 l 1
726 590 m 1
 653 590 l 1
 653 87 l 2
 653 58 640 43 613 43 c 0
 602 43 592 46 584 54 c 0
 576 62 571 73 571 86 c 2
 571 590 l 1
 469 590 l 1
 469 673 l 1
 564 673 l 1
 555 702 515 720 446 729 c 0
 337 742 276 751 265 754 c 0
 203 773 171 810 171 865 c 0
 171 875 172 886 174 897 c 1
 184 910 196 916 209 916 c 0
 227 916 241 907 250 888 c 1
 248 880 247 873 247 866 c 0
 247 827 279 804 343 796 c 1
 404 791 465 785 527 779 c 1
 596 764 635 729 644 673 c 1
 726 673 l 1
 726 590 l 1
EndSplineSet
EndChar

StartChar: u09cd
Encoding: 2509 2509 159
Width: 5
GlyphClass: 4
Flags: HW
AnchorPoint: "Anchor-1" -125 51 mark 0
LayerCount: 2
Fore
SplineSet
-71 10 m 1
 -106 -28 l 1
 62 -154 l 1
 94 -111 l 1
 -71 10 l 1
EndSplineSet
EndChar

StartChar: u09d7
Encoding: 2519 2519 160
Width: 231
GlyphClass: 4
Flags: HW
HStem: 590 83<-19 76 165 238>
VStem: -317 76<822 912> 83 82<55 590>
LayerCount: 2
Fore
SplineSet
238 590 m 1
 165 590 l 1
 165 87 l 2
 165 58 152 43 125 43 c 0
 114 43 103 46 95 54 c 0
 87 62 83 73 83 86 c 2
 83 590 l 1
 -19 590 l 1
 -19 673 l 1
 76 673 l 1
 67 702 27 720 -42 729 c 0
 -151 742 -212 751 -223 754 c 0
 -285 773 -317 810 -317 865 c 0
 -317 875 -316 886 -314 897 c 1
 -304 910 -292 916 -279 916 c 0
 -261 916 -247 907 -238 888 c 1
 -240 880 -241 873 -241 866 c 0
 -241 827 -209 804 -145 796 c 1
 -84 791 -23 785 39 779 c 1
 108 764 147 729 156 673 c 1
 238 673 l 1
 238 590 l 1
EndSplineSet
EndChar

StartChar: u09dc
Encoding: 2524 2524 161
Width: 734
GlyphClass: 2
Flags: HW
HStem: -102 88<364 439> 35 80<337 498> 264 76<332 419> 590 83<-6 281 364 734>
VStem: 29 73<457 521> 281 83<342 590> 356 90<-94 -19> 581 79<201 378>
AnchorPoint: "Anchor-2" 330 -81 basechar 0
AnchorPoint: "Anchor-1" 461 -81 basechar 0
AnchorPoint: "Anchor-0" 264 681 basechar 0
LayerCount: 2
Fore
SplineSet
734 590 m 1
 364 590 l 1
 364 354 l 1
 368 345 374 340 381 340 c 0
 406 340 449 384 508 473 c 0
 514 481 523 486 536 486 c 0
 553 486 569 480 582 467 c 0
 634 418 660 363 660 300 c 0
 660 267 653 231 640 192 c 1
 591 89 521 37 432 35 c 0
 377 34 322 51 268 87 c 0
 223 116 186 152 158 194 c 0
 108 270 65 370 29 495 c 0
 28 505 31 513 39 521 c 0
 47 529 58 533 70 533 c 0
 83 533 93 528 102 519 c 1
 137 412 168 335 195 289 c 1
 217 240 249 200 292 166 c 0
 335 132 378 115 422 115 c 0
 471 115 513 137 548 181 c 1
 570 214 581 251 581 292 c 0
 581 331 571 364 550 392 c 1
 512 350 484 321 464 306 c 0
 428 278 392 264 357 264 c 1
 306 272 281 311 281 381 c 2
 281 590 l 1
 -6 590 l 1
 -6 673 l 1
 734 673 l 1
 734 590 l 1
446 -56 m 0
 446 -68 441 -79 432 -88 c 0
 423 -97 412 -102 401 -102 c 0
 390 -102 379 -97 370 -88 c 0
 361 -79 356 -68 356 -56 c 0
 356 -44 361 -34 370 -26 c 0
 379 -18 389 -13 401 -13 c 0
 413 -13 424 -18 433 -26 c 0
 442 -34 446 -44 446 -56 c 0
EndSplineSet
Ligature2: "'nukt' Nukta Forms in Bengali lookup 1 subtable" u09a1 u09bc
EndChar

StartChar: u09dd
Encoding: 2525 2525 162
Width: 521
GlyphClass: 2
Flags: HW
HStem: -97 88<188 263> 33 100<204 290> 587 83<-6 112 193 523>
VStem: 113 80<147 587> 181 90<-90 -15>
AnchorPoint: "Anchor-2" 220 -73 basechar 0
AnchorPoint: "Anchor-1" 308 -81 basechar 0
AnchorPoint: "Anchor-0" 154 681 basechar 0
LayerCount: 2
Fore
SplineSet
523 587 m 1
 193 587 l 1
 193 181 l 2
 193 168 197 155 206 146 c 0
 215 137 227 132 241 132 c 0
 262 132 283 144 303 166 c 0
 356 224 380 280 374 333 c 0
 372 350 365 364 353 374 c 0
 341 384 330 393 318 401 c 1
 315 406 313 411 313 418 c 0
 313 429 317 439 326 448 c 0
 335 457 346 461 359 461 c 1
 389 439 411 420 424 402 c 0
 441 379 450 353 450 322 c 0
 450 260 427 198 380 134 c 0
 331 67 279 33 225 33 c 0
 199 33 173 46 149 74 c 0
 125 102 113 132 113 165 c 2
 113 599 l 1
 112 590 l 1
 -6 590 l 1
 -6 673 l 1
 112 673 l 2
 112 671 136 670 182 670 c 2
 523 670 l 1
 523 587 l 1
271 -51 m 0
 271 -63 266 -74 257 -83 c 0
 248 -92 237 -97 226 -97 c 0
 215 -97 204 -92 195 -83 c 0
 186 -74 181 -63 181 -51 c 0
 181 -39 185 -29 194 -21 c 0
 203 -13 214 -8 226 -8 c 0
 238 -8 248 -13 257 -21 c 0
 266 -29 271 -39 271 -51 c 0
EndSplineSet
Ligature2: "'nukt' Nukta Forms in Bengali lookup 1 subtable" u09a2 u09bc
EndChar

StartChar: u09df
Encoding: 2527 2527 163
Width: 489
GlyphClass: 2
Flags: HW
HStem: 45 110<74 151> 590 83<-6 25 127 342 423 496>
VStem: 57 105<62 138> 342 81<143 590>
AnchorPoint: "Anchor-2" 425 29 basechar 0
AnchorPoint: "Anchor-1" 388 29 basechar 0
AnchorPoint: "Anchor-0" 330 667 basechar 0
LayerCount: 2
Fore
SplineSet
342 143 m 1
 342 590 l 1
 127 590 l 1
 236 454 l 2
 240 447 241 438 241 430 c 0
 241 417 237 408 230 401 c 2
 116 304 l 1
 342 143 l 1
162 101 m 0
 162 86 157 73 147 62 c 0
 137 51 125 45 111 45 c 0
 96 45 83 51 72 62 c 0
 61 73 56 86 57 101 c 0
 58 116 63 128 73 139 c 0
 83 150 97 155 112 155 c 0
 126 155 137 149 147 138 c 0
 157 127 162 115 162 101 c 0
496 590 m 1
 423 590 l 1
 423 69 l 2
 423 46 408 34 377 34 c 0
 364 34 354 37 346 43 c 2
 34 271 l 2
 24 278 19 288 19 299 c 0
 19 309 22 319 29 329 c 1
 152 438 l 1
 25 590 l 1
 -6 590 l 1
 -6 673 l 1
 496 673 l 1
 496 590 l 1
EndSplineSet
Ligature2: "'nukt' Nukta Forms in Bengali lookup 1 subtable" u09af u09bc
EndChar

StartChar: u09e0
Encoding: 2528 2528 164
Width: 673
GlyphClass: 2
Flags: HW
HStem: -201 255 492 81<129 235>
VStem: 299 221 408 81<156 246 369 469 565 686> 570 82<275 686>
LayerCount: 2
Fore
SplineSet
408 156 m 1
 408 469 l 1
 205 342 l 1
 408 156 l 1
652 169 m 2
 652 159 647 150 637 144 c 0
 627 138 616 135 603 135 c 0
 589 135 579 139 573 146 c 2
 488 246 l 1
 487 66 l 2
 487 56 482 48 471 41 c 0
 469 40 467 38 465 37 c 1
 468 32 469 27 469 20 c 0
 469 12 466 6 461 -0 c 1
 384 -45 l 1
 513 -150 l 2
 518 -155 520 -161 520 -168 c 0
 520 -176 517 -184 510 -191 c 0
 503 -198 495 -201 486 -201 c 0
 482 -201 479 -200 475 -199 c 2
 310 -67 l 2
 303 -61 299 -53 299 -43 c 0
 299 -31 304 -21 312 -14 c 1
 408 41 l 1
 110 323 l 2
 103 329 101 337 101 346 c 0
 101 361 107 374 119 383 c 2
 323 514 l 1
 296 543 l 1
 264 509 228 492 185 492 c 0
 126 492 78 520 41 575 c 0
 40 579 39 583 39 587 c 0
 39 598 43 607 52 615 c 0
 61 623 73 627 87 627 c 0
 93 627 98 626 104 625 c 1
 124 590 151 573 184 573 c 0
 216 573 238 589 253 622 c 1
 269 638 289 642 314 635 c 1
 331 617 357 590 391 554 c 1
 408 565 l 1
 408 664 l 2
 408 680 422 688 450 688 c 0
 476 688 488 681 488 666 c 2
 488 369 l 1
 570 275 l 1
 570 666 l 2
 570 681 584 688 611 688 c 0
 638 688 652 681 652 666 c 2
 652 169 l 2
EndSplineSet
EndChar

StartChar: u09e1
Encoding: 2529 2529 165
Width: 548
GlyphClass: 2
Flags: HW
HStem: -51 30<399 442> 275 76<168 274>
VStem: 37 77<610 675> 63 78<106 250> 302 77<127 247> 347 31<83 109> 357 31<-119 -61> 453 31<-110 -62> 492 79<194 348> 529 32<-84 -22>
LayerCount: 2
Fore
SplineSet
561 203 m 1
 543 155 509 116 460 85 c 0
 449 78 437 72 426 66 c 1
 430 65 436 63 441 61 c 0
 521 34 561 -4 561 -52 c 0
 561 -61 559 -70 556 -80 c 0
 549 -99 536 -115 516 -127 c 0
 498 -139 477 -146 456 -147 c 1
 444 -145 438 -142 438 -136 c 0
 438 -133 440 -129 442 -125 c 0
 444 -119 447 -112 449 -106 c 0
 451 -100 453 -94 453 -89 c 0
 453 -83 451 -76 448 -69 c 0
 442 -57 432 -51 419 -51 c 0
 411 -51 405 -54 399 -59 c 0
 392 -65 388 -73 388 -84 c 0
 388 -93 391 -103 395 -112 c 0
 395 -113 395 -115 395 -116 c 0
 395 -125 390 -129 379 -129 c 0
 373 -129 368 -127 366 -123 c 0
 360 -111 357 -98 357 -85 c 0
 357 -70 361 -57 369 -46 c 0
 382 -29 399 -21 420 -21 c 0
 432 -21 443 -24 454 -31 c 0
 465 -38 473 -46 478 -58 c 0
 482 -70 484 -81 484 -91 c 0
 484 -97 483 -104 481 -110 c 1
 513 -99 529 -81 529 -54 c 0
 529 -49 528 -45 527 -40 c 0
 522 -21 510 -4 489 8 c 0
 478 15 458 23 430 33 c 0
 411 40 396 44 386 49 c 1
 362 41 337 37 311 35 c 1
 281 40 266 50 266 64 c 0
 266 71 269 80 275 90 c 0
 281 105 287 121 293 137 c 0
 299 153 302 167 302 180 c 0
 302 195 298 212 291 231 c 1
 275 260 251 275 218 275 c 0
 199 275 183 269 168 256 c 0
 150 241 141 219 141 192 c 0
 141 170 146 147 157 124 c 0
 158 121 158 118 158 114 c 0
 158 92 144 81 116 81 c 0
 101 81 91 86 86 95 c 0
 71 126 63 157 63 190 c 0
 63 228 73 260 93 287 c 0
 124 330 166 351 219 351 c 0
 250 351 279 342 305 326 c 0
 331 310 351 287 364 258 c 1
 374 229 379 201 379 175 c 0
 379 159 377 143 373 127 c 1
 452 154 492 201 492 268 c 0
 492 279 491 291 488 303 c 0
 477 352 445 392 392 423 c 0
 365 440 316 461 245 485 c 0
 170 511 122 531 100 544 c 0
 56 571 35 604 37 643 c 0
 38 666 50 678 71 678 c 0
 97 678 111 667 114 646 c 1
 113 627 128 610 160 595 c 0
 166 591 203 578 272 555 c 0
 472 487 571 393 571 273 c 0
 571 251 568 228 561 203 c 1
EndSplineSet
EndChar

StartChar: u09e2
Encoding: 2530 2530 166
Width: 1
GlyphClass: 2
Flags: HW
HStem: 110 30<67 110>
VStem: 15 31<244 270> 25 31<42 100> 121 31<51 99> 197 32<78 139>
LayerCount: 2
Fore
SplineSet
224 81 m 0
 217 62 204 46 184 34 c 0
 166 22 145 15 124 14 c 1
 112 16 106 20 106 26 c 0
 106 29 108 32 110 36 c 0
 112 42 115 49 117 55 c 0
 119 61 121 67 121 72 c 0
 121 78 119 85 116 92 c 0
 110 104 100 110 87 110 c 0
 79 110 73 107 67 102 c 0
 60 96 56 88 56 77 c 0
 56 68 59 59 63 50 c 0
 63 49 63 47 63 46 c 0
 63 37 57 32 46 32 c 0
 40 32 36 34 34 38 c 0
 28 50 25 63 25 76 c 0
 25 91 29 104 37 115 c 0
 50 132 67 140 88 140 c 0
 100 140 111 138 122 131 c 0
 133 124 141 115 146 103 c 0
 150 91 152 80 152 70 c 0
 152 64 151 57 149 51 c 1
 181 62 197 80 197 107 c 0
 197 112 196 116 195 121 c 0
 190 140 178 157 157 169 c 0
 146 176 126 184 98 194 c 0
 68 204 49 213 40 218 c 0
 22 229 14 241 15 257 c 0
 16 266 20 271 29 271 c 0
 39 271 45 267 46 258 c 0
 45 250 51 244 64 238 c 0
 66 237 82 231 109 222 c 0
 189 195 229 157 229 109 c 0
 229 100 227 91 224 81 c 0
EndSplineSet
EndChar

StartChar: u09e3
Encoding: 2531 2531 167
Width: 4
GlyphClass: 2
Flags: HW
HStem: -4 23<-341 -288> 113 23<-189 -136>
VStem: -387 23<127 154> -375 23<-81 -15> -276 23<-76 -16> -235 23<244 271> -224 23<64 103> -197 23<-45 30> -125 23<41 101> -45 23<72 144>
LayerCount: 2
Fore
SplineSet
-212 262 m 0
 -213 269 -217 271 -225 271 c 0
 -232 271 -235 268 -235 261 c 0
 -236 246 -228 233 -210 223 c 0
 -203 219 -183 211 -151 200 c 0
 -121 190 -100 181 -88 174 c 0
 -66 160 -52 143 -47 122 c 0
 -46 117 -45 111 -45 106 c 0
 -45 90 -52 75 -64 63 c 0
 -75 53 -89 46 -107 41 c 1
 -104 51 -102 61 -102 69 c 0
 -102 79 -105 89 -109 100 c 0
 -113 111 -121 120 -131 126 c 0
 -141 132 -152 136 -164 136 c 0
 -185 136 -201 127 -213 111 c 0
 -220 101 -224 89 -224 74 c 0
 -224 73 -224 72 -224 71 c 1
 -242 82 -265 93 -294 103 c 0
 -322 113 -339 119 -344 122 c 0
 -358 129 -365 137 -364 145 c 0
 -365 152 -368 154 -376 154 c 0
 -383 154 -387 151 -387 144 c 0
 -388 129 -379 115 -361 105 c 0
 -354 101 -335 94 -303 83 c 0
 -273 73 -252 64 -240 57 c 0
 -230 51 -222 44 -216 37 c 0
 -215 36 l 0
 -215 35 -214 35 -213 34 c 0
 -206 25 -202 15 -199 4 c 0
 -198 -1 -197 -6 -197 -11 c 0
 -197 -27 -203 -42 -215 -54 c 0
 -226 -64 -240 -71 -258 -76 c 1
 -255 -66 -253 -56 -253 -48 c 0
 -253 -38 -256 -28 -260 -17 c 0
 -264 -6 -272 3 -282 9 c 0
 -292 15 -303 19 -315 19 c 0
 -336 19 -352 10 -364 -6 c 0
 -371 -16 -375 -28 -375 -43 c 0
 -375 -56 -373 -69 -367 -81 c 0
 -366 -84 -363 -85 -358 -85 c 0
 -354 -85 -351 -84 -348 -82 c 0
 -345 -80 -345 -76 -346 -72 c 0
 -351 -62 -353 -52 -353 -43 c 0
 -353 -30 -348 -21 -339 -13 c 0
 -332 -7 -324 -4 -316 -4 c 0
 -300 -4 -288 -11 -281 -25 c 0
 -278 -33 -276 -41 -276 -48 c 0
 -276 -54 -277 -59 -280 -66 c 0
 -283 -73 -286 -80 -288 -87 c 0
 -290 -90 -291 -92 -291 -94 c 0
 -291 -98 -286 -101 -277 -103 c 1
 -256 -101 -235 -94 -217 -83 c 0
 -197 -71 -184 -56 -177 -37 c 0
 -174 -28 -173 -18 -173 -9 c 0
 -173 12 -181 31 -196 48 c 1
 -200 57 -201 66 -201 74 c 0
 -201 87 -197 96 -188 104 c 0
 -181 110 -173 113 -165 113 c 0
 -149 113 -137 106 -130 92 c 0
 -127 84 -125 76 -125 69 c 0
 -125 63 -126 58 -129 51 c 0
 -132 44 -134 37 -136 30 c 0
 -138 27 -140 25 -140 23 c 0
 -140 19 -134 16 -125 14 c 1
 -104 16 -84 23 -66 34 c 0
 -46 46 -33 62 -26 81 c 0
 -23 90 -22 99 -22 108 c 0
 -22 137 -35 161 -62 181 c 0
 -81 195 -108 208 -143 220 c 0
 -171 230 -188 236 -193 239 c 0
 -207 246 -213 254 -212 262 c 0
EndSplineSet
EndChar

StartChar: u09e6
Encoding: 2534 2534 168
Width: 576
GlyphClass: 2
Flags: HW
HStem: 117 82<180 328> 513 79<220 380>
VStem: 49 78<253 410> 429 82<303 464>
LayerCount: 2
Fore
SplineSet
407 302 m 0
 422 329 429 357 429 387 c 0
 429 423 419 453 398 476 c 0
 375 501 343 514 303 513 c 0
 229 512 175 473 141 395 c 0
 132 374 127 351 127 329 c 0
 127 301 134 276 149 253 c 0
 164 230 184 215 210 206 c 0
 223 201 237 199 252 199 c 0
 283 199 314 209 343 230 c 0
 370 249 391 273 407 302 c 0
507 356 m 0
 481 226 411 148 297 123 c 0
 280 119 263 117 246 117 c 0
 188 117 140 138 103 181 c 0
 67 222 49 271 49 330 c 0
 49 373 60 415 82 455 c 0
 104 495 135 527 173 552 c 0
 211 577 251 590 293 592 c 0
 354 595 406 577 448 538 c 0
 490 499 511 452 511 395 c 0
 511 382 510 369 507 356 c 0
EndSplineSet
EndChar

StartChar: u09e7
Encoding: 2535 2535 169
Width: 480
GlyphClass: 2
Flags: HW
HStem: 49 71<156 292>
VStem: 335 74<172 358>
LayerCount: 2
Fore
SplineSet
409 249 m 0
 400 164 374 108 335 80 c 0
 313 65 289 55 260 51 c 0
 249 50 221 49 177 49 c 0
 159 49 127 67 84 102 c 1
 81 111 81 118 81 125 c 0
 81 152 99 165 135 162 c 1
 157 134 188 120 231 120 c 0
 252 120 269 124 280 131 c 0
 318 158 336 215 335 305 c 1
 325 364 269 423 164 482 c 1
 118 516 88 542 75 559 c 0
 55 584 45 615 47 651 c 0
 49 666 61 674 82 674 c 0
 105 674 118 666 120 651 c 1
 119 624 133 599 165 576 c 0
 197 553 229 531 262 509 c 0
 361 436 410 358 410 273 c 0
 410 265 410 257 409 249 c 0
EndSplineSet
EndChar

StartChar: u09e8
Encoding: 2536 2536 170
Width: 479
GlyphClass: 2
Flags: HW
VStem: 80 74<612 652> 305 76<334 434>
LayerCount: 2
Fore
SplineSet
484 2 m 2
 490 -4 493 -11 493 -19 c 0
 493 -28 490 -36 482 -43 c 0
 474 -50 464 -53 453 -53 c 0
 442 -53 432 -50 421 -44 c 1
 57 253 l 2
 47 264 42 275 42 286 c 0
 42 308 55 320 81 320 c 0
 86 320 92 319 98 317 c 0
 119 305 145 299 176 299 c 0
 210 299 239 306 264 320 c 0
 291 335 305 356 305 381 c 0
 305 393 302 406 295 419 c 0
 268 460 234 493 195 518 c 1
 168 533 140 547 113 561 c 1
 91 576 80 596 80 622 c 0
 80 630 81 641 83 652 c 1
 92 670 106 679 127 679 c 0
 145 679 156 671 162 653 c 1
 156 640 154 631 154 628 c 0
 154 624 156 621 160 619 c 0
 218 589 261 562 290 539 c 0
 349 490 379 438 381 383 c 0
 382 340 366 304 331 275 c 0
 302 250 264 233 216 225 c 1
 484 2 l 2
EndSplineSet
EndChar

StartChar: u09e9
Encoding: 2537 2537 171
Width: 681
GlyphClass: 2
Flags: HW
HStem: 74 78<303 440> 569 75<335 460>
VStem: 40 75<416 557> 238 77<407 549> 537 75<261 477>
LayerCount: 2
Fore
SplineSet
611 370 m 0
 614 307 596 243 555 181 c 0
 508 110 449 74 379 74 c 0
 322 74 265 101 205 155 c 0
 145 209 104 273 79 347 c 0
 58 409 45 470 40 531 c 1
 47 551 59 560 77 560 c 0
 92 560 105 552 115 537 c 1
 122 483 130 443 137 416 c 0
 147 378 164 340 186 301 c 0
 208 262 234 230 263 204 c 0
 300 169 337 152 373 152 c 0
 392 152 411 157 430 167 c 0
 466 186 493 215 512 254 c 0
 530 289 538 326 537 364 c 0
 532 501 478 570 375 569 c 1
 335 561 315 534 315 487 c 0
 315 474 317 457 320 437 c 0
 320 428 316 420 307 413 c 0
 298 406 289 403 278 403 c 0
 261 403 252 410 248 424 c 0
 242 444 238 463 238 483 c 0
 238 526 250 563 274 595 c 0
 298 627 332 643 373 644 c 0
 449 645 508 618 550 565 c 0
 587 518 608 453 611 370 c 0
EndSplineSet
EndChar

StartChar: u09ea
Encoding: 2538 2538 172
Width: 510
GlyphClass: 2
Flags: HW
HStem: 42 85<157 298>
VStem: 50 86<430 547> 349 92<176 299 452 574>
LayerCount: 2
Fore
SplineSet
315 163 m 0
 337 185 349 211 349 241 c 0
 349 266 340 287 323 304 c 0
 306 321 283 328 254 325 c 0
 174 318 132 288 125 234 c 0
 121 201 129 174 150 154 c 0
 170 136 195 127 226 127 c 0
 262 127 291 139 315 163 c 0
338 463 m 0
 347 477 352 493 352 511 c 0
 352 535 343 556 327 574 c 0
 311 592 290 600 265 598 c 0
 233 595 204 585 180 567 c 0
 151 546 136 520 137 489 c 0
 138 460 146 438 163 424 c 0
 180 410 200 403 225 403 c 0
 276 403 313 423 338 463 c 0
366 98 m 0
 320 61 273 42 226 42 c 0
 206 42 187 45 166 51 c 0
 83 74 41 122 41 198 c 0
 41 259 68 311 121 354 c 1
 74 386 50 428 50 480 c 0
 50 530 71 576 112 617 c 0
 153 658 201 678 257 678 c 0
 315 678 360 663 392 633 c 0
 421 605 435 570 435 528 c 0
 435 469 409 418 359 377 c 1
 413 346 440 301 440 244 c 0
 440 187 416 139 366 98 c 0
EndSplineSet
EndChar

StartChar: u09eb
Encoding: 2539 2539 173
Width: 573
GlyphClass: 2
Flags: HW
HStem: 36 80<233 335> 434 72<422 502>
VStem: 33 78<229 405> 262 81<202 360>
LayerCount: 2
Fore
SplineSet
371 473 m 1
 348 492 330 508 320 519 c 0
 303 538 294 559 291 580 c 1
 250 561 210 526 173 475 c 0
 131 418 110 363 110 310 c 0
 110 290 114 273 120 256 c 0
 136 212 165 177 206 152 c 0
 244 129 286 117 335 116 c 1
 286 168 262 227 262 290 c 0
 262 368 298 429 371 473 c 1
494 434 m 1
 447 431 409 414 381 383 c 0
 355 355 342 321 342 283 c 0
 342 216 376 167 444 135 c 1
 462 125 471 112 471 97 c 0
 471 84 465 74 453 67 c 0
 419 46 380 36 337 36 c 0
 274 36 213 56 154 97 c 0
 95 138 57 184 42 234 c 0
 35 255 33 278 33 302 c 0
 33 388 68 472 139 554 c 0
 207 632 272 672 334 671 c 0
 345 671 355 667 362 660 c 0
 369 653 373 644 373 633 c 0
 373 629 372 625 371 620 c 0
 368 613 366 607 366 600 c 0
 366 580 378 560 404 540 c 0
 427 523 449 511 472 506 c 0
 495 501 506 486 506 463 c 0
 506 452 502 442 494 434 c 1
EndSplineSet
EndChar

StartChar: u90ec
Encoding: 2540 2540 174
Width: 637
GlyphClass: 2
Flags: HW
HStem: 78 77<265 401> 334 72<301 369> 534 10G<65 85>
VStem: 41 72<472 542> 219 82<406 656> 495 74<267 429>
LayerCount: 2
Fore
SplineSet
517 520 m 0
 552 482 568 433 568 372 c 0
 568 299 546 233 502 173 c 0
 456 111 402 79 340 78 c 0
 297 78 255 90 214 116 c 0
 173 142 139 176 113 217 c 0
 63 297 39 381 39 471 c 0
 39 486 40 502 41 517 c 1
 45 535 56 544 75 544 c 0
 96 544 108 534 112 514 c 1
 107 440 119 370 148 306 c 0
 165 267 192 233 226 204 c 0
 264 171 301 155 339 155 c 0
 346 155 352 155 359 157 c 0
 397 167 430 194 457 236 c 0
 482 276 495 319 495 366 c 0
 495 388 490 410 483 430 c 1
 413 366 356 334 309 334 c 0
 270 334 240 357 219 402 c 1
 219 636 l 2
 219 650 232 657 259 657 c 0
 286 657 300 650 300 636 c 2
 300 418 l 1
 306 410 314 406 323 406 c 0
 342 406 366 422 398 454 c 0
 418 476 438 498 458 520 c 0
 469 529 478 534 487 534 c 0
 496 534 506 529 517 520 c 0
EndSplineSet
EndChar

StartChar: u09ed
Encoding: 2541 2541 175
Width: 473
GlyphClass: 2
Flags: HW
HStem: 38 72<416 461> 302 74<133 338>
VStem: 41 79<392 512> 339 66<115 309> 340 74<386 563> 356 117<54 109>
LayerCount: 2
Fore
SplineSet
340 389 m 1
 338 453 336 497 332 520 c 0
 322 573 302 598 275 593 c 1
 231 590 196 575 167 547 c 0
 135 515 119 471 120 416 c 1
 130 389 160 376 213 376 c 0
 232 376 256 378 285 381 c 0
 304 384 321 386 340 389 c 1
442 110 m 0
 463 111 474 102 474 82 c 0
 474 71 469 61 461 52 c 0
 453 43 442 38 428 38 c 0
 394 37 370 53 356 84 c 0
 346 108 340 144 339 192 c 0
 339 250 339 250 339 309 c 1
 285 304 248 302 227 302 c 0
 117 302 55 335 43 401 c 0
 41 413 41 425 41 438 c 0
 41 498 64 551 110 596 c 0
 156 641 209 666 269 671 c 0
 317 674 352 656 375 616 c 0
 390 589 402 545 411 482 c 0
 414 465 415 445 415 420 c 0
 415 398 413 362 410 313 c 0
 407 264 405 230 405 209 c 0
 405 142 417 109 442 110 c 0
EndSplineSet
EndChar

StartChar: u09ee
Encoding: 2542 2542 176
Width: 651
GlyphClass: 2
Flags: HW
HStem: 38 75<171 252> 388 76<174 336> 598 75<13 65>
VStem: 65 73<139 361 439 511> 75 70<277 593> 358 77<231 364>
LayerCount: 2
Fore
SplineSet
345 356 m 0
 332 377 309 388 276 388 c 0
 243 388 197 377 140 354 c 1
 140 349 140 337 139 316 c 0
 138 299 138 286 138 275 c 0
 138 200 149 149 171 121 c 1
 178 115 186 113 195 113 c 0
 227 113 263 135 301 179 c 0
 339 223 358 266 358 308 c 0
 358 326 353 342 345 356 c 0
617 440 m 1
 430 362 l 1
 433 348 435 334 435 319 c 0
 435 251 409 187 356 127 c 0
 301 65 240 35 174 38 c 1
 143 45 121 57 107 73 c 0
 93 89 82 113 75 145 c 1
 64 180 60 238 65 321 c 0
 72 446 75 509 75 511 c 0
 74 570 62 599 39 598 c 1
 18 601 7 611 7 630 c 0
 7 641 12 650 20 659 c 0
 28 668 39 673 52 673 c 0
 86 673 110 660 124 636 c 0
 138 612 145 573 145 520 c 0
 145 497 144 470 141 439 c 1
 198 456 244 464 279 464 c 0
 323 464 359 452 387 429 c 1
 589 512 l 1
 601 514 611 511 619 503 c 0
 627 495 631 484 631 472 c 0
 631 459 626 449 617 440 c 1
EndSplineSet
EndChar

StartChar: u09ef
Encoding: 2543 2543 177
Width: 641
GlyphClass: 2
Flags: HW
HStem: 275 76<168 274>
VStem: 37 77<610 675> 63 78<106 250> 302 77<127 247> 492 79<194 348>
LayerCount: 2
Fore
SplineSet
561 203 m 1
 543 155 509 116 460 85 c 0
 414 55 364 38 311 35 c 1
 281 40 266 50 266 64 c 0
 266 71 269 80 275 90 c 0
 281 105 287 121 293 137 c 0
 299 153 302 167 302 180 c 0
 302 195 298 212 291 231 c 1
 275 260 251 275 218 275 c 0
 199 275 183 269 168 256 c 0
 150 241 141 219 141 192 c 0
 141 170 146 147 157 124 c 0
 158 121 158 118 158 114 c 0
 158 92 144 81 116 81 c 0
 101 81 91 86 86 95 c 0
 71 126 63 157 63 190 c 0
 63 228 73 260 93 287 c 0
 124 330 166 351 219 351 c 0
 250 351 279 342 305 326 c 0
 331 310 351 287 364 258 c 1
 374 229 379 201 379 175 c 0
 379 159 377 143 373 127 c 1
 452 154 492 201 492 268 c 0
 492 279 491 291 488 303 c 0
 477 352 445 392 392 423 c 0
 365 440 316 461 245 485 c 0
 170 511 122 531 100 544 c 0
 56 571 35 604 37 643 c 0
 38 666 50 678 71 678 c 0
 97 678 111 667 114 646 c 1
 113 627 128 610 160 595 c 0
 166 591 203 578 272 555 c 0
 472 487 571 393 571 273 c 0
 571 251 568 228 561 203 c 1
EndSplineSet
EndChar

StartChar: u09f0
Encoding: 2544 2544 178
Width: 480
GlyphClass: 2
Flags: HW
HStem: 590 83<-6 333 414 487>
VStem: 333 80<161 231 315 475 564 590>
LayerCount: 2
Fore
SplineSet
333 161 m 1
 333 231 l 1
 181 379 l 1
 129 346 l 1
 333 161 l 1
333 315 m 1
 333 475 l 1
 234 412 l 1
 333 315 l 1
487 590 m 1
 414 590 l 1
 413 71 l 2
 411 63 405 55 396 49 c 0
 387 43 377 39 367 39 c 0
 355 39 345 43 336 51 c 2
 39 324 l 2
 32 330 29 339 29 351 c 0
 29 367 34 378 43 384 c 2
 333 564 l 1
 333 590 l 1
 -6 590 l 1
 -6 673 l 1
 487 673 l 1
 487 590 l 1
EndSplineSet
EndChar

StartChar: u09f1
Encoding: 2545 2545 179
Width: 480
GlyphClass: 2
Flags: HW
HStem: 590 83<-6 333 414 487>
VStem: 333 80<161 475 564 590>
LayerCount: 2
Fore
SplineSet
333 161 m 1
 333 475 l 1
 129 346 l 1
 333 161 l 1
218 79 m 1
 183 43 l 1
 31 188 l 1
 73 217 l 1
 218 79 l 1
487 590 m 1
 414 590 l 1
 413 71 l 2
 411 63 405 55 396 49 c 0
 387 43 377 39 367 39 c 0
 355 39 345 43 336 51 c 2
 39 324 l 2
 32 330 29 339 29 351 c 0
 29 367 34 378 43 384 c 2
 333 564 l 1
 333 590 l 1
 -6 590 l 1
 -6 673 l 1
 487 673 l 1
 487 590 l 1
EndSplineSet
EndChar

StartChar: cbindusmall
Encoding: 65539 -1 180
Width: 0
GlyphClass: 2
Flags: HW
HStem: 749 55<-143 -105>
VStem: -223 43<756 789> -151 55<758 796> -68 47<760 789>
LayerCount: 2
Fore
SplineSet
-124 805 m 0
 -116 805 -109 802 -104 797 c 0
 -99 792 -96 785 -96 777 c 0
 -96 769 -99 762 -104 757 c 0
 -109 752 -116 749 -124 749 c 0
 -132 749 -138 752 -143 757 c 0
 -148 762 -151 769 -151 777 c 0
 -151 785 -148 792 -143 797 c 0
 -138 802 -132 805 -124 805 c 0
-22 777 m 1
 -28 734 -56 707 -105 695 c 1
 -141 693 -170 699 -191 714 c 0
 -212 729 -223 750 -223 776 c 1
 -216 786 -208 791 -202 791 c 0
 -196 791 -189 788 -179 782 c 1
 -177 769 -171 758 -161 750 c 0
 -151 742 -140 737 -129 738 c 0
 -111 739 -97 743 -88 752 c 0
 -82 757 -75 769 -68 786 c 1
 -61 790 -54 793 -48 793 c 0
 -38 793 -29 787 -22 777 c 1
EndSplineSet
EndChar

StartChar: janya
Encoding: 65540 -1 181
Width: 883
GlyphClass: 2
Flags: HW
HStem: 28 71<305 445> 220 76<652 721> 590 83<-6 273 416 890>
VStem: 29 79<413 528> 204 80<356 500> 517 85<194 294> 735 80<147 209 310 373>
AnchorPoint: "Anchor-2" 359 73 basechar 0
AnchorPoint: "Anchor-1" 388 29 basechar 0
AnchorPoint: "Anchor-0" 344 659 basechar 0
LayerCount: 2
Fore
SplineSet
420 395 m 1
 407 428 383 480 349 553 c 1
 331 540 316 521 303 495 c 0
 290 469 284 443 284 418 c 0
 284 387 294 364 314 348 c 1
 420 395 l 1
709 146 m 1
 726 147 735 157 735 176 c 0
 735 187 730 198 721 207 c 0
 712 216 698 220 681 220 c 1
 660 227 649 240 649 258 c 0
 649 277 659 289 680 296 c 1
 695 298 708 304 718 314 c 0
 728 324 733 334 733 345 c 0
 733 364 719 375 691 378 c 1
 665 372 645 363 631 351 c 0
 620 340 607 322 592 295 c 1
 603 268 606 242 602 218 c 1
 621 195 637 179 649 170 c 0
 666 157 686 149 709 146 c 1
890 590 m 1
 416 590 l 1
 497 411 l 1
 516 402 534 389 549 373 c 1
 592 430 641 459 695 459 c 0
 724 459 750 449 774 429 c 0
 802 406 816 378 816 345 c 0
 816 313 803 286 778 262 c 1
 803 239 815 211 815 177 c 0
 815 132 795 97 755 75 c 0
 742 70 729 68 715 68 c 0
 662 68 613 91 568 138 c 1
 546 104 524 80 503 65 c 0
 477 45 445 33 409 29 c 0
 400 28 392 28 383 28 c 0
 288 28 205 84 133 198 c 0
 74 293 39 395 29 503 c 1
 38 523 50 532 66 532 c 0
 79 532 93 527 108 516 c 1
 123 412 154 319 202 236 c 0
 256 145 314 99 376 99 c 0
 411 99 446 115 480 148 c 1
 505 177 517 209 517 244 c 0
 517 282 502 313 472 336 c 1
 461 333 435 319 393 296 c 0
 360 278 333 269 312 269 c 0
 299 269 287 272 276 277 c 1
 228 318 204 367 204 426 c 0
 204 488 227 542 273 590 c 1
 -6 590 l 1
 -6 673 l 1
 890 673 l 1
 890 590 l 1
EndSplineSet
Ligature2: "'akhn' Akhand in Bengali lookup 2 subtable" u099c u09cd u099e
EndChar

StartChar: kassa
Encoding: 65541 -1 182
Width: 834
GlyphClass: 2
Flags: HW
HStem: 590 83<-6 120 195 325 402 476 559 837>
VStem: 131 71<513 577> 285 81<287 402> 323 79<537 590> 476 83<165 389 506 590> 671 89<268 341>
AnchorPoint: "Anchor-2" 520 44 basechar 0
AnchorPoint: "Anchor-1" 520 44 basechar 0
AnchorPoint: "Anchor-0" 425 674 basechar 0
LayerCount: 2
Fore
SplineSet
476 165 m 1
 476 420 l 1
 374 464 323 514 323 571 c 0
 323 578 324 584 325 590 c 1
 195 590 l 1
 204 568 206 544 202 517 c 1
 247 510 286 490 318 457 c 0
 350 424 366 387 366 343 c 0
 366 321 361 298 351 275 c 1
 476 165 l 1
476 506 m 1
 476 590 l 1
 411 590 l 1
 405 583 402 576 402 569 c 0
 402 550 427 529 476 506 c 1
837 590 m 1
 559 590 l 1
 559 475 l 1
 616 455 663 429 700 398 c 0
 740 365 760 332 760 298 c 0
 760 252 722 212 646 179 c 1
 636 177 626 180 616 189 c 0
 606 198 602 210 602 224 c 0
 602 231 603 237 605 243 c 1
 649 261 671 281 671 302 c 0
 671 332 634 361 559 389 c 1
 559 77 l 2
 559 68 553 59 541 52 c 0
 529 45 516 42 503 42 c 0
 492 42 484 44 479 49 c 2
 303 210 l 1
 280 191 249 171 212 151 c 1
 200 153 190 159 181 168 c 0
 172 177 168 187 168 198 c 0
 168 206 171 213 177 219 c 1
 237 252 272 287 282 322 c 0
 284 329 285 337 285 344 c 0
 285 369 275 391 255 411 c 0
 235 431 212 441 187 441 c 0
 182 441 178 441 173 440 c 1
 154 410 123 382 80 357 c 1
 65 356 53 359 44 367 c 0
 35 375 31 386 31 397 c 0
 31 404 33 411 37 417 c 1
 59 428 80 446 100 468 c 0
 121 493 131 517 131 538 c 0
 131 563 114 581 80 590 c 1
 -6 590 l 1
 -6 673 l 1
 837 673 l 1
 837 590 l 1
EndSplineSet
Ligature2: "'akhn' Akhand in Bengali lookup 2 subtable" u0995 u09cd u09b7
EndChar

StartChar: hama
Encoding: 65542 -1 183
Width: 783
GlyphClass: 2
Flags: HW
HStem: 416 73<342 453> 450 73<537 630> 590 83<-6 107 182 453 535 790>
VStem: 117 80<531 578> 274 80<300 416> 453 82<201 415 511 590> 648 64<122 436>
AnchorPoint: "Anchor-2" 520 37 basechar 0
AnchorPoint: "Anchor-1" 498 81 basechar 0
AnchorPoint: "Anchor-0" 447 688 basechar 0
LayerCount: 2
Fore
SplineSet
453 201 m 1
 453 415 l 1
 416 413 379 413 342 416 c 1
 350 396 354 375 354 354 c 0
 354 339 352 324 348 309 c 1
 453 201 l 1
453 493 m 1
 453 590 l 1
 182 590 l 1
 192 568 197 549 197 534 c 1
 227 530 254 521 276 505 c 1
 327 494 370 489 404 489 c 0
 422 489 438 490 453 493 c 1
790 590 m 1
 535 590 l 1
 535 511 l 1
 564 519 590 523 612 523 c 0
 632 523 647 520 658 513 c 0
 694 485 712 425 712 334 c 0
 712 322 712 322 712 297 c 0
 712 272 712 272 712 260 c 0
 712 174 727 116 758 86 c 0
 761 81 762 76 762 70 c 0
 762 58 756 48 744 41 c 0
 732 34 719 30 704 32 c 1
 673 59 655 110 648 184 c 1
 647 244 645 303 642 362 c 0
 639 421 626 450 603 450 c 0
 600 450 578 444 535 433 c 1
 535 96 l 1
 461 80 l 1
 310 238 l 1
 283 213 248 192 205 175 c 1
 182 182 170 196 170 217 c 0
 170 225 172 234 177 243 c 1
 242 263 274 301 274 357 c 0
 274 384 265 407 247 427 c 0
 229 447 205 457 175 456 c 1
 160 427 128 395 78 360 c 1
 67 360 57 365 47 376 c 0
 37 387 32 399 32 411 c 0
 32 416 33 421 36 425 c 1
 56 433 75 449 92 472 c 0
 109 495 117 517 117 538 c 0
 117 573 91 590 40 590 c 2
 -6 590 l 1
 -6 673 l 1
 790 673 l 1
 790 590 l 1
EndSplineSet
Ligature2: "'akhn' Akhand in Bengali lookup 2 subtable" u09b9 u09cd u09ae
EndChar

StartChar: tata
Encoding: 65543 -1 184
Width: 692
GlyphClass: 2
Flags: HW
HStem: 31 80<340 507> 502 77<362 475> 590 83<-6 690>
VStem: 19 74<462 558> 259 79<337 477> 508 79<363 469> 536 81<139 255>
AnchorPoint: "Anchor-2" 439 22 basechar 0
AnchorPoint: "Anchor-1" 417 22 basechar 0
AnchorPoint: "Anchor-0" 388 688 basechar 0
LayerCount: 2
Fore
SplineSet
557 324 m 1
 597 285 617 242 617 194 c 0
 617 149 600 111 565 80 c 0
 528 47 478 31 417 31 c 0
 380 31 339 44 293 70 c 0
 247 96 208 128 173 167 c 0
 100 248 49 365 19 518 c 1
 16 548 28 563 52 563 c 0
 70 563 83 554 93 535 c 1
 106 488 120 441 133 394 c 1
 150 343 172 299 201 260 c 0
 274 161 350 111 427 111 c 0
 441 111 455 112 469 116 c 0
 514 126 536 154 536 197 c 0
 536 229 523 252 497 269 c 1
 470 280 457 294 457 311 c 0
 457 324 466 341 483 360 c 1
 500 374 508 392 508 413 c 0
 508 436 499 457 481 475 c 0
 463 493 441 502 414 502 c 0
 405 502 396 501 388 499 c 1
 354 481 338 455 338 421 c 0
 338 404 342 386 350 365 c 1
 352 335 339 321 312 321 c 0
 299 321 288 326 280 337 c 0
 266 362 259 389 259 418 c 0
 259 461 273 499 302 531 c 0
 331 563 368 579 412 579 c 0
 425 579 437 578 450 575 c 0
 492 566 525 546 550 516 c 0
 575 486 587 452 587 415 c 0
 587 382 577 351 557 324 c 1
690 590 m 1
 -6 590 l 1
 -6 673 l 1
 690 673 l 1
 690 590 l 1
EndSplineSet
Ligature2: "'pres' Pre Base Substitutions in Bengali lookup 6 subtable" u09a4_u09cd.half u09a4
EndChar

StartChar: halfka
Encoding: 65544 -1 185
Width: 707
GlyphClass: 2
Flags: HW
HStem: 224 75<473 538> 495 79<428 503> 590 83<-7 346 428 711>
VStem: 346 82<153 468 572 590> 557 74<316 446>
LayerCount: 2
Fore
SplineSet
346 153 m 1
 346 468 l 1
 138 340 l 1
 346 153 l 1
711 590 m 1
 428 590 l 1
 428 574 l 1
 510 565 567 536 601 488 c 0
 621 460 631 425 631 383 c 0
 631 340 621 303 600 272 c 0
 578 239 548 223 512 224 c 1
 483 221 469 232 469 258 c 0
 469 278 479 292 498 299 c 1
 515 297 529 305 540 322 c 0
 551 339 557 359 557 382 c 0
 557 407 550 429 535 446 c 0
 509 477 473 493 428 495 c 1
 428 64 l 2
 428 45 417 35 396 35 c 0
 377 35 362 41 349 52 c 2
 46 320 l 1
 33 328 27 338 27 349 c 0
 27 362 35 373 51 382 c 2
 346 560 l 1
 346 590 l 1
 -7 590 l 1
 -7 673 l 1
 711 673 l 1
 711 590 l 1
471 15 m 1
 436 -23 l 1
 604 -149 l 1
 636 -106 l 1
 471 15 l 1
EndSplineSet
Ligature2: "'haln' Halant Forms in Bengali lookup 12 subtable" u0995 u09cd
EndChar

StartChar: halfkha
Encoding: 65545 -1 186
Width: 603
GlyphClass: 2
Flags: HW
HStem: 458 80<88 221> 590 83<557 632>
VStem: 308 76<428 537> 475 82<149 590>
LayerCount: 2
Fore
SplineSet
632 590 m 1
 557 590 l 1
 557 73 l 2
 557 64 552 57 541 50 c 0
 530 43 518 39 505 39 c 0
 495 39 486 42 479 47 c 2
 149 292 l 1
 142 303 139 313 139 323 c 0
 139 333 141 341 147 348 c 0
 153 355 160 359 168 359 c 0
 204 364 236 379 265 405 c 0
 294 431 308 460 308 494 c 0
 308 509 305 523 299 538 c 1
 269 485 226 458 169 458 c 0
 131 458 90 470 46 494 c 1
 35 502 30 513 30 526 c 0
 30 537 34 546 42 554 c 0
 50 562 58 567 68 567 c 0
 72 567 76 566 81 564 c 0
 112 547 139 538 164 538 c 0
 213 538 240 567 246 625 c 1
 245 652 256 665 279 665 c 0
 288 665 296 662 304 657 c 0
 361 620 388 563 384 486 c 0
 381 404 338 344 257 306 c 1
 475 149 l 1
 475 608 l 2
 475 651 496 673 538 673 c 2
 632 673 l 1
 632 590 l 1
544 10 m 1
 509 -28 l 1
 677 -154 l 1
 709 -111 l 1
 544 10 l 1
EndSplineSet
Ligature2: "'haln' Halant Forms in Bengali lookup 12 subtable" u0996 u09cd
EndChar

StartChar: halfga
Encoding: 65546 -1 187
Width: 599
GlyphClass: 2
Flags: HW
HStem: 413 77<143 208> 561 78<196 366> 589 84<549 624>
VStem: 243 79<254 378> 467 82<32 466 565 589> 467 157<589 673>
LayerCount: 2
Fore
SplineSet
624 589 m 1
 549 589 l 1
 549 60 l 2
 549 40 535 30 508 30 c 0
 481 30 467 40 467 60 c 2
 467 380 l 2
 467 419 457 452 436 479 c 0
 393 534 341 561 279 561 c 0
 222 561 177 537 142 490 c 1
 197 491 241 473 275 437 c 0
 306 404 322 364 322 316 c 0
 322 245 289 192 225 156 c 0
 220 155 215 154 210 154 c 0
 199 154 188 158 179 165 c 0
 170 172 166 181 166 191 c 0
 166 202 171 212 181 221 c 1
 222 244 243 276 243 316 c 0
 243 342 234 365 216 384 c 0
 198 403 176 413 150 413 c 0
 131 413 113 407 94 396 c 0
 82 389 71 385 60 385 c 0
 40 385 31 396 31 417 c 0
 31 423 32 429 34 436 c 0
 49 493 73 537 106 569 c 0
 136 598 178 619 232 634 c 0
 252 638 271 639 290 639 c 0
 357 639 417 614 467 565 c 1
 467 673 l 1
 624 673 l 1
 624 589 l 1
544 0 m 1
 509 -38 l 1
 677 -164 l 1
 709 -121 l 1
 544 0 l 1
EndSplineSet
Ligature2: "'haln' Halant Forms in Bengali lookup 12 subtable" u0997 u09cd
EndChar

StartChar: u0998_u09cd.haln
Encoding: 65547 -1 188
Width: 546
GlyphClass: 2
Flags: HW
HStem: 590 83<-9 38 113 389 471 546>
VStem: 27 78<499 582> 389 82<149 590>
LayerCount: 2
Fore
SplineSet
389 149 m 1
 389 590 l 1
 137 590 l 1
 116 577 105 561 105 541 c 0
 105 526 111 512 124 501 c 0
 137 490 152 484 170 484 c 0
 176 484 182 486 191 488 c 0
 200 490 206 491 211 491 c 0
 222 491 232 487 239 479 c 0
 246 471 250 462 250 452 c 0
 250 442 247 433 240 425 c 2
 149 318 l 1
 389 149 l 1
546 590 m 1
 471 590 l 1
 471 71 l 2
 471 63 466 55 456 49 c 0
 446 43 434 39 422 39 c 0
 411 39 401 42 393 47 c 2
 68 279 l 1
 55 285 48 294 48 307 c 0
 48 316 52 326 60 335 c 2
 124 411 l 1
 96 419 72 434 54 457 c 0
 36 480 27 506 27 536 c 0
 27 554 31 572 38 590 c 1
 -9 590 l 1
 -9 673 l 1
 546 673 l 1
 546 590 l 1
486 15 m 1
 451 -23 l 1
 619 -149 l 1
 651 -106 l 1
 486 15 l 1
EndSplineSet
Ligature2: "'haln' Halant Forms in Bengali lookup 12 subtable" u0998 u09cd
EndChar

StartChar: u0999_u09cd.haln
Encoding: 65548 -1 189
Width: 628
GlyphClass: 2
Flags: HW
HStem: 38 76<309 461> 423 78<321 425> 531 10G<54 72>
VStem: 30 72<422 538> 225 76<355 441> 534 77<181 316>
LayerCount: 2
Fore
SplineSet
446 553 m 1
 448 565 443 575 432 583 c 0
 423 589 412 592 399 591 c 0
 363 584 337 556 321 507 c 1
 341 503 357 501 369 501 c 0
 405 501 431 518 446 553 c 1
514 606 m 1
 519 592 522 578 522 563 c 0
 522 532 512 503 490 477 c 0
 468 451 442 435 413 428 c 0
 398 424 383 423 367 423 c 0
 345 423 324 426 303 433 c 1
 302 411 301 399 301 396 c 0
 303 381 308 367 317 354 c 1
 445 416 l 1
 460 429 481 433 506 426 c 1
 576 376 611 316 611 248 c 0
 611 192 588 143 544 101 c 0
 500 59 449 38 390 38 c 0
 327 38 267 62 209 110 c 0
 159 151 121 200 97 255 c 0
 74 308 51 391 30 506 c 1
 33 529 44 541 64 541 c 0
 79 541 92 533 102 518 c 1
 121 416 144 339 170 286 c 0
 192 240 222 201 260 169 c 0
 303 132 345 114 388 114 c 0
 418 114 446 123 473 143 c 0
 514 172 534 207 534 248 c 0
 534 286 516 320 481 350 c 1
 307 256 l 1
 252 297 225 342 225 391 c 0
 225 398 226 406 227 413 c 1
 226 426 227 441 231 457 c 1
 150 496 95 550 66 621 c 0
 65 625 65 629 65 632 c 0
 65 654 78 665 103 665 c 0
 112 665 121 662 129 657 c 1
 164 596 204 554 247 532 c 1
 259 565 279 595 307 622 c 0
 338 651 368 668 398 671 c 0
 444 676 482 654 514 606 c 1
442 10 m 1
 407 -28 l 1
 575 -154 l 1
 607 -111 l 1
 442 10 l 1
EndSplineSet
Ligature2: "'haln' Halant Forms in Bengali lookup 12 subtable" u0989 u09cd
EndChar

StartChar: u099a_u09cd.haln
Encoding: 65549 -1 190
Width: 473
GlyphClass: 2
Flags: HW
HStem: 32 80<183 251> 588 83<-3 98 182 508>
VStem: 102 80<112 438 531 588> 360 74<248 364>
LayerCount: 2
Fore
SplineSet
508 588 m 1
 182 588 l 1
 182 562 l 1
 201 528 230 501 271 480 c 1
 305 466 339 452 373 438 c 0
 407 422 426 401 432 374 c 0
 434 363 435 350 435 337 c 0
 435 276 413 215 369 152 c 0
 325 89 277 49 224 34 c 0
 219 33 214 32 208 32 c 0
 183 32 161 41 140 58 c 0
 115 79 102 105 102 139 c 2
 102 594 l 1
 98 590 l 1
 -3 590 l 1
 -3 673 l 1
 98 673 l 1
 102 671 l 1
 508 671 l 1
 508 588 l 1
357 355 m 1
 349 370 324 384 281 397 c 0
 231 412 198 425 182 438 c 1
 182 147 l 2
 182 123 190 111 207 111 c 0
 214 111 223 114 233 120 c 0
 261 137 289 166 316 207 c 0
 345 253 360 294 360 330 c 0
 360 339 359 347 357 355 c 1
286 10 m 1
 250 -28 l 1
 418 -154 l 1
 451 -111 l 1
 286 10 l 1
EndSplineSet
Ligature2: "'haln' Halant Forms in Bengali lookup 12 subtable" u099a u09cd
EndChar

StartChar: u099b_u09cd.haln
Encoding: 65550 -1 191
Width: 600
GlyphClass: 2
Flags: HW
HStem: 90 75<194 324> 246 56<182 280> 536 10G<403 434> 589 84<-2 127 212 643>
VStem: 127 82<303 494> 496 73<315 440>
LayerCount: 2
Fore
SplineSet
681 34 m 1
 686 23 689 13 689 4 c 0
 689 -21 672 -32 639 -28 c 1
 537 43 393 82 208 90 c 1
 196 101 190 116 190 134 c 0
 190 150 196 160 208 165 c 1
 258 171 291 176 308 181 c 0
 341 189 371 205 397 226 c 1
 422 243 445 267 464 297 c 0
 485 330 496 360 496 387 c 0
 496 422 479 446 444 459 c 1
 447 402 420 351 365 306 c 0
 315 266 262 246 209 246 c 0
 154 246 127 270 127 318 c 2
 127 592 l 1
 114 591 l 1
 -2 590 l 1
 -2 673 l 1
 159 673 l 2
 162 673 162 673 197 673 c 2
 643 673 l 1
 643 589 l 1
 212 589 l 1
 219 574 239 561 273 553 c 0
 301 546 332 543 365 543 c 0
 383 543 397 544 408 546 c 1
 460 543 501 526 530 495 c 0
 556 466 569 430 569 387 c 0
 569 335 552 286 518 239 c 0
 484 192 448 160 410 145 c 1
 510 128 600 91 681 34 c 1
368 435 m 0
 364 456 344 468 306 474 c 0
 253 481 221 488 209 494 c 1
 209 323 l 2
 209 309 215 302 228 302 c 0
 250 302 280 319 317 353 c 0
 354 387 371 415 368 435 c 0
461 -39 m 1
 426 -77 l 1
 594 -203 l 1
 626 -160 l 1
 461 -39 l 1
EndSplineSet
Ligature2: "'haln' Halant Forms in Bengali lookup 12 subtable" u099b u09cd
EndChar

StartChar: u099c_u09cd.haln
Encoding: 65551 -1 192
Width: 839
GlyphClass: 2
Flags: HW
HStem: 76 77<312 475> 590 83<-11 302 578 840>
VStem: 29 73<416 545> 247 75<390 509> 547 76<218 347> 649 77<108 339>
LayerCount: 2
Fore
SplineSet
840 590 m 1
 578 590 l 1
 763 476 l 1
 778 471 786 461 786 444 c 0
 786 437 784 431 780 424 c 0
 744 342 727 274 727 222 c 0
 727 165 745 101 781 31 c 1
 781 -1 767 -17 739 -17 c 0
 732 -17 724 -15 716 -12 c 1
 671 76 649 154 649 221 c 0
 649 277 665 345 697 424 c 1
 430 592 l 1
 400 575 374 552 353 523 c 0
 332 494 321 467 321 441 c 0
 321 416 333 396 354 382 c 1
 385 394 415 406 446 417 c 0
 483 431 515 438 540 437 c 1
 596 396 624 344 624 279 c 0
 624 206 589 150 521 112 c 0
 478 88 435 76 392 76 c 0
 291 76 200 136 119 254 c 1
 102 272 84 306 66 355 c 0
 47 407 35 459 29 509 c 1
 29 536 40 550 61 550 c 0
 76 550 90 543 103 528 c 1
 111 434 140 352 193 281 c 0
 256 196 324 153 396 153 c 0
 437 153 475 169 510 201 c 0
 535 223 547 250 547 281 c 0
 547 312 536 339 514 363 c 1
 505 360 475 349 425 329 c 0
 390 314 361 306 339 305 c 1
 277 331 247 376 247 440 c 0
 247 491 265 541 302 590 c 1
 -11 590 l 1
 -12 673 l 1
 840 673 l 1
 840 590 l 1
696 -29 m 1
 661 -67 l 1
 829 -193 l 1
 861 -150 l 1
 696 -29 l 1
EndSplineSet
Ligature2: "'haln' Halant Forms in Bengali lookup 12 subtable" u099c u09cd
EndChar

StartChar: u099d_u09cd.haln
Encoding: 65552 -1 193
Width: 697
GlyphClass: 2
Flags: HW
HStem: 590 83<-6 336 622 700>
VStem: 336 82<154 251 355 466 560 590> 539 82<263 590>
LayerCount: 2
Fore
SplineSet
336 154 m 1
 336 466 l 1
 132 340 l 1
 336 154 l 1
700 590 m 1
 622 590 l 1
 621 168 l 2
 621 149 606 139 575 139 c 0
 560 139 549 143 542 150 c 2
 418 251 l 1
 418 66 l 2
 418 55 414 47 404 40 c 0
 394 33 383 30 370 30 c 0
 357 30 347 34 339 41 c 2
 37 319 l 2
 31 325 29 333 29 346 c 0
 29 363 35 375 46 382 c 2
 336 560 l 1
 336 590 l 1
 -6 590 l 1
 -6 673 l 1
 347 673 l 2
 394 673 418 649 418 601 c 2
 418 355 l 1
 539 263 l 1
 539 601 l 2
 539 649 563 673 610 673 c 2
 700 673 l 1
 700 590 l 1
481 -10 m 1
 446 -47 l 1
 614 -173 l 1
 646 -130 l 1
 481 -10 l 1
EndSplineSet
Ligature2: "'haln' Halant Forms in Bengali lookup 12 subtable" u099d u09cd
EndChar

StartChar: u099e_u09cd.haln
Encoding: 65553 -1 194
Width: 954
GlyphClass: 2
Flags: HW
HStem: 101 75<153 382> 122 74<215 467> 340 77<745 810> 586 81<426 521>
VStem: 31 77<223 388> 259 81<328 507> 528 82<149 214 435 582> 528 92<149 352> 830 87<437 510> 842 85<252 321>
LayerCount: 2
Fore
SplineSet
610 67 m 2
 610 59 603 52 590 46 c 0
 577 40 564 36 551 36 c 0
 540 36 533 39 529 44 c 0
 491 96 442 122 383 122 c 0
 364 122 335 119 296 112 c 0
 257 105 228 101 208 101 c 0
 192 101 177 103 162 106 c 0
 113 123 79 150 58 185 c 0
 40 216 31 258 31 309 c 0
 31 329 32 352 35 377 c 1
 48 388 61 393 73 393 c 0
 86 393 99 386 112 372 c 1
 109 330 108 307 108 303 c 0
 108 254 124 217 158 194 c 0
 175 182 195 176 220 176 c 0
 235 176 261 179 297 186 c 0
 333 193 362 196 383 196 c 0
 436 196 484 180 528 149 c 1
 528 528 l 2
 528 567 515 586 489 586 c 0
 474 586 453 579 429 566 c 0
 369 535 340 490 340 431 c 0
 340 404 346 373 358 337 c 1
 355 313 341 301 314 301 c 0
 301 301 290 305 282 314 c 1
 266 349 259 386 259 422 c 0
 259 477 275 527 308 571 c 0
 341 615 385 643 441 658 c 0
 456 664 471 667 486 667 c 0
 515 667 543 655 570 632 c 0
 597 609 610 575 610 532 c 2
 608 435 l 1
 627 470 647 500 667 524 c 0
 702 568 743 591 790 594 c 1
 826 591 856 578 880 554 c 0
 904 530 917 502 917 471 c 0
 917 438 902 409 875 382 c 1
 910 353 927 319 927 278 c 0
 927 224 898 190 841 174 c 0
 832 173 824 172 816 172 c 0
 733 172 668 232 620 352 c 1
 610 67 l 2
821 251 m 1
 835 260 842 271 842 284 c 0
 842 298 834 311 819 323 c 0
 804 335 788 340 771 340 c 1
 751 351 740 364 740 379 c 0
 740 394 748 406 765 417 c 1
 784 420 800 427 812 440 c 0
 824 453 830 466 830 479 c 0
 830 503 814 515 782 514 c 0
 761 513 740 498 719 467 c 0
 713 458 699 431 677 387 c 1
 691 350 710 319 734 293 c 0
 763 260 792 246 821 251 c 1
598 0 m 1
 563 -38 l 1
 731 -164 l 1
 763 -121 l 1
 598 0 l 1
EndSplineSet
Ligature2: "'haln' Halant Forms in Bengali lookup 12 subtable" u099e u09cd
EndChar

StartChar: u099f_u09cd.haln
Encoding: 65554 -1 195
Width: 546
GlyphClass: 2
Flags: HW
HStem: 34 102<231 318> 588 83<-4 138 220 424 502 555> 740 77<80 404>
VStem: -39 73<858 945> 138 82<150 588> 405 76<243 377>
LayerCount: 2
Fore
SplineSet
555 588 m 1
 220 588 l 1
 220 184 l 2
 220 171 224 159 233 150 c 0
 242 141 254 136 267 136 c 0
 288 136 310 146 332 168 c 1
 381 227 405 277 405 319 c 0
 405 325 404 331 403 337 c 0
 401 355 394 369 382 379 c 0
 370 389 358 398 346 407 c 1
 343 412 341 416 341 423 c 0
 341 434 345 445 354 454 c 0
 363 463 375 468 388 468 c 1
 450 426 480 379 480 327 c 0
 480 264 457 200 410 136 c 0
 360 68 306 34 251 34 c 0
 224 34 200 48 175 76 c 0
 150 104 138 134 138 167 c 2
 138 588 l 1
 128 590 l 1
 -4 590 l 1
 -4 673 l 1
 128 673 l 1
 208 671 l 1
 424 671 l 1
 431 717 387 740 289 740 c 0
 275 740 258 739 239 738 c 0
 220 737 210 736 208 736 c 0
 115 745 55 758 28 773 c 0
 -12 797 -35 846 -39 920 c 1
 -38 938 -25 947 -2 947 c 0
 15 947 27 941 35 930 c 1
 36 884 52 852 83 835 c 0
 106 823 144 817 197 816 c 2
 273 816 l 2
 340 815 390 807 424 792 c 0
 474 769 501 729 504 671 c 1
 555 671 l 1
 555 588 l 1
276 -5 m 1
 241 -42 l 1
 409 -168 l 1
 441 -125 l 1
 276 -5 l 1
EndSplineSet
Ligature2: "'haln' Halant Forms in Bengali lookup 12 subtable" u099f u09cd
EndChar

StartChar: u09a0_u09cd.haln
Encoding: 65555 -1 196
Width: 502
GlyphClass: 2
Flags: HW
HStem: 39 77<153 277> 590 83<-6 177 330 516> 976 76<150 207>
VStem: 32 76<165 254> 66 78<864 970> 220 73<421 516> 368 74<218 416>
LayerCount: 2
Fore
SplineSet
301 157 m 0
 346 200 368 252 368 311 c 0
 368 374 343 442 293 516 c 1
 292 393 231 303 108 246 c 1
 109 207 119 176 139 152 c 0
 159 128 184 116 213 116 c 0
 244 116 273 130 301 157 c 0
516 590 m 1
 330 590 l 1
 405 490 442 393 442 300 c 0
 442 234 421 175 380 123 c 0
 335 67 281 39 216 39 c 0
 192 39 168 44 143 52 c 0
 116 62 92 88 68 129 c 0
 44 170 32 209 32 246 c 0
 32 273 39 294 54 307 c 1
 112 331 155 360 181 393 c 0
 207 426 220 469 220 522 c 0
 220 543 218 566 214 590 c 1
 -6 590 l 1
 -6 673 l 1
 177 673 l 1
 160 705 142 737 125 768 c 0
 104 807 89 843 78 874 c 0
 70 899 66 921 66 941 c 0
 66 1001 103 1038 179 1052 c 1
 201 1045 212 1030 212 1005 c 0
 212 990 207 980 196 976 c 1
 161 976 144 963 144 937 c 0
 144 919 155 887 176 841 c 0
 196 800 225 744 266 673 c 1
 516 673 l 1
 516 590 l 1
310 20 m 1
 275 -18 l 1
 443 -144 l 1
 475 -101 l 1
 310 20 l 1
EndSplineSet
Ligature2: "'haln' Halant Forms in Bengali lookup 12 subtable" u09a0 u09cd
EndChar

StartChar: u09a1_u09cd.haln
Encoding: 65556 -1 197
Width: 741
GlyphClass: 2
Flags: HW
HStem: 35 80<337 498> 264 76<332 419> 590 83<-6 281 364 734>
VStem: 29 73<457 521> 281 83<342 590> 581 79<201 378>
LayerCount: 2
Fore
SplineSet
466 -10 m 1
 431 -47 l 1
 599 -173 l 1
 631 -130 l 1
 466 -10 l 1
734 590 m 1
 364 590 l 1
 364 354 l 1
 368 345 374 340 381 340 c 0
 406 340 449 384 508 473 c 0
 514 481 523 486 536 486 c 0
 553 486 569 480 582 467 c 0
 634 418 660 363 660 300 c 0
 660 267 653 231 640 192 c 1
 591 89 521 37 432 35 c 0
 377 34 322 51 268 87 c 0
 223 116 186 152 158 194 c 0
 108 270 65 370 29 495 c 0
 28 505 31 513 39 521 c 0
 47 529 58 533 70 533 c 0
 83 533 93 528 102 519 c 1
 137 412 168 335 195 289 c 1
 217 240 249 200 292 166 c 0
 335 132 378 115 422 115 c 0
 471 115 513 137 548 181 c 1
 570 214 581 251 581 292 c 0
 581 331 571 364 550 392 c 1
 512 350 484 321 464 306 c 0
 428 278 392 264 357 264 c 1
 306 272 281 311 281 381 c 2
 281 590 l 1
 -6 590 l 1
 -6 673 l 1
 734 673 l 1
 734 590 l 1
EndSplineSet
Ligature2: "'haln' Halant Forms in Bengali lookup 12 subtable" u09a1 u09cd
EndChar

StartChar: u09a2_u09cd.haln
Encoding: 65557 -1 198
Width: 497
GlyphClass: 2
Flags: HW
HStem: 33 100<204 290> 587 83<-6 112 193 523>
VStem: 113 80<147 587>
LayerCount: 2
Fore
SplineSet
523 587 m 1
 193 587 l 1
 193 181 l 2
 193 168 197 155 206 146 c 0
 215 137 227 132 241 132 c 0
 262 132 283 144 303 166 c 0
 356 224 380 280 374 333 c 0
 372 350 365 364 353 374 c 0
 341 384 330 393 318 401 c 1
 315 406 313 411 313 418 c 0
 313 429 317 439 326 448 c 0
 335 457 346 461 359 461 c 1
 389 439 411 420 424 402 c 0
 441 379 450 353 450 322 c 0
 450 260 427 198 380 134 c 0
 331 67 279 33 225 33 c 0
 199 33 173 46 149 74 c 0
 125 102 113 132 113 165 c 2
 113 599 l 1
 112 590 l 1
 -6 590 l 1
 -6 673 l 1
 112 673 l 2
 112 671 136 670 182 670 c 2
 523 670 l 1
 523 587 l 1
403 -10 m 1
 368 -47 l 1
 536 -173 l 1
 568 -130 l 1
 403 -10 l 1
EndSplineSet
Ligature2: "'haln' Halant Forms in Bengali lookup 12 subtable" u09a2 u09cd
EndChar

StartChar: u09a3_u09cd.haln
Encoding: 65558 -1 199
Width: 507
GlyphClass: 2
Flags: HW
HStem: 274 75<154 217> 572 76<163 307> 590 83<451 523>
VStem: 40 75<389 524> 370 81<49 512>
LayerCount: 2
Fore
SplineSet
523 590 m 1
 451 590 l 1
 451 77 l 2
 451 55 439 44 414 44 c 0
 403 44 392 47 383 53 c 0
 374 59 370 67 370 76 c 2
 370 411 l 2
 370 426 365 451 358 486 c 0
 353 509 339 529 313 546 c 0
 287 563 259 572 230 572 c 0
 199 572 174 562 153 543 c 0
 127 519 115 490 115 457 c 0
 115 429 124 404 141 383 c 0
 158 362 180 350 205 349 c 1
 217 346 223 337 223 321 c 0
 223 310 220 299 213 289 c 0
 206 279 198 274 189 274 c 0
 116 288 69 328 49 393 c 0
 42 414 40 436 40 458 c 0
 40 503 53 543 80 578 c 0
 107 613 143 634 190 642 c 0
 211 646 231 648 248 648 c 0
 291 648 332 632 371 601 c 1
 378 649 400 673 439 673 c 2
 523 673 l 1
 523 590 l 1
457 -5 m 1
 421 -42 l 1
 589 -168 l 1
 622 -125 l 1
 457 -5 l 1
EndSplineSet
Ligature2: "'haln' Halant Forms in Bengali lookup 12 subtable" u09a3 u09cd
EndChar

StartChar: u09a4_u09cd.haln
Encoding: 65559 -1 200
Width: 668
GlyphClass: 2
Flags: HW
HStem: 38 78<343 500> 590 83<-6 726>
VStem: 29 74<447 541> 302 79<356 459> 574 78<206 415>
LayerCount: 2
Fore
SplineSet
646 252 m 0
 633 188 609 137 573 99 c 0
 535 58 488 38 432 38 c 0
 418 38 404 39 389 42 c 0
 334 52 288 71 250 99 c 0
 229 115 202 143 169 183 c 0
 90 280 44 390 29 515 c 0
 26 525 29 534 38 541 c 0
 47 548 57 552 69 552 c 0
 86 552 97 545 103 532 c 1
 123 451 138 398 148 371 c 0
 169 318 198 268 235 223 c 0
 264 188 291 163 315 150 c 0
 331 141 361 130 405 117 c 0
 412 116 418 116 425 116 c 0
 473 116 510 136 536 175 c 0
 559 210 572 255 574 312 c 0
 576 365 564 407 537 437 c 0
 512 465 478 477 437 474 c 1
 400 467 381 446 381 411 c 0
 381 396 385 382 394 370 c 1
 394 359 390 349 382 340 c 0
 374 331 363 327 352 327 c 0
 343 327 335 330 327 335 c 1
 310 362 302 388 302 415 c 0
 302 453 317 485 349 512 c 0
 378 538 412 551 451 551 c 0
 514 552 565 528 602 479 c 0
 635 435 652 380 652 315 c 0
 652 294 650 273 646 252 c 0
726 590 m 1
 -6 590 l 1
 -6 673 l 1
 726 673 l 1
 726 590 l 1
491 20 m 1
 456 -18 l 1
 624 -144 l 1
 656 -101 l 1
 491 20 l 1
EndSplineSet
Ligature2: "'haln' Halant Forms in Bengali lookup 12 subtable" u09a4 u09cd
EndChar

StartChar: u09a5_u09cd.haln
Encoding: 65560 -1 201
Width: 567
GlyphClass: 2
Flags: HW
HStem: 575 79<121 240> 590 83<502 575>
VStem: 21 75<458 548> 264 75<427 551> 420 82<145 590>
LayerCount: 2
Fore
SplineSet
575 590 m 1
 502 590 l 1
 502 69 l 2
 502 61 496 55 485 49 c 0
 474 43 463 40 450 40 c 0
 439 40 431 42 424 47 c 2
 128 269 l 1
 123 280 121 292 121 302 c 0
 121 318 127 327 138 332 c 0
 170 345 199 368 225 402 c 0
 251 436 264 467 264 498 c 0
 264 534 245 559 207 573 c 1
 196 574 185 575 176 575 c 0
 126 575 99 545 96 483 c 0
 93 465 80 456 56 456 c 0
 37 456 26 463 21 476 c 1
 14 585 58 644 152 653 c 0
 160 654 168 654 176 654 c 0
 225 654 264 640 294 611 c 0
 324 582 339 545 339 500 c 0
 339 463 330 425 310 387 c 0
 297 360 268 329 224 294 c 1
 420 145 l 1
 420 601 l 2
 420 625 428 644 444 657 c 0
 457 667 473 673 491 673 c 2
 575 673 l 1
 575 590 l 1
525 5 m 1
 490 -33 l 1
 658 -159 l 1
 690 -116 l 1
 525 5 l 1
EndSplineSet
Ligature2: "'haln' Halant Forms in Bengali lookup 12 subtable" u09a5 u09cd
EndChar

StartChar: u09a6_u09cd.haln
Encoding: 65561 -1 202
Width: 453
GlyphClass: 2
Flags: HW
HStem: 590 83<-6 38 119 447>
VStem: 38 81<401 590> 249 76<140 397>
LayerCount: 2
Fore
SplineSet
447 590 m 1
 119 590 l 1
 119 401 l 1
 148 428 180 453 215 476 c 0
 260 505 295 519 321 519 c 0
 325 519 329 519 332 518 c 0
 361 516 374 501 371 472 c 1
 340 387 325 317 325 262 c 0
 325 202 341 142 372 82 c 1
 375 65 369 53 354 46 c 0
 342 39 327 37 308 40 c 1
 269 110 249 182 249 255 c 0
 249 304 258 359 275 420 c 1
 215 393 159 349 107 288 c 1
 98 282 87 279 76 279 c 0
 51 279 38 290 38 311 c 2
 38 590 l 1
 -6 590 l 1
 -6 673 l 1
 447 673 l 1
 447 590 l 1
447 24 m 1
 412 -13 l 1
 580 -139 l 1
 612 -96 l 1
 447 24 l 1
EndSplineSet
Ligature2: "'haln' Halant Forms in Bengali lookup 12 subtable" u09a6 u09cd
EndChar

StartChar: u09a7_u09cd.haln
Encoding: 65562 -1 203
Width: 498
GlyphClass: 2
Flags: HW
HStem: 590 83<109 205 412 484>
VStem: 28 78<512 583> 331 81<152 469 563 590>
LayerCount: 2
Fore
SplineSet
331 152 m 1
 331 469 l 1
 128 341 l 1
 331 152 l 1
484 590 m 1
 412 590 l 1
 412 61 l 2
 412 54 407 48 396 43 c 0
 385 38 373 36 360 36 c 0
 350 36 341 38 335 42 c 2
 38 321 l 2
 33 328 31 336 31 347 c 0
 31 362 36 376 46 387 c 1
 115 428 l 1
 74 450 46 483 30 525 c 1
 29 534 28 543 28 551 c 0
 28 592 44 622 77 643 c 0
 106 662 142 671 186 671 c 1
 202 666 210 655 210 638 c 0
 210 615 203 600 188 593 c 1
 133 593 106 580 106 554 c 0
 106 548 107 543 109 536 c 0
 129 502 157 486 195 486 c 0
 201 486 206 486 211 487 c 1
 331 563 l 1
 331 601 l 2
 331 649 354 673 400 673 c 2
 484 673 l 1
 484 590 l 1
461 0 m 1
 426 -38 l 1
 594 -164 l 1
 626 -121 l 1
 461 0 l 1
EndSplineSet
Ligature2: "'haln' Halant Forms in Bengali lookup 12 subtable" u09a7 u09cd
EndChar

StartChar: u09a8_u09cd.haln
Encoding: 65563 -1 204
Width: 526
GlyphClass: 2
Flags: HW
HStem: 381 78<158 313> 589 84<-6 372 453 526>
VStem: 37 79<204 340> 372 81<34 319 411 589>
LayerCount: 2
Fore
SplineSet
526 589 m 1
 453 589 l 1
 453 56 l 2
 453 40 440 32 413 32 c 0
 386 32 372 40 372 56 c 2
 372 260 l 1
 364 295 352 322 335 341 c 0
 318 360 294 372 261 378 c 0
 251 380 241 381 230 381 c 0
 197 381 171 372 150 353 c 0
 128 333 116 307 116 275 c 0
 116 267 117 259 118 251 c 0
 121 232 127 217 136 206 c 0
 145 195 159 184 180 173 c 1
 186 166 189 159 189 150 c 0
 189 138 185 127 176 118 c 0
 167 109 157 106 146 108 c 1
 102 126 72 154 55 192 c 0
 43 220 37 248 37 277 c 0
 37 323 51 362 80 396 c 0
 109 430 147 449 196 456 c 0
 209 458 223 459 236 459 c 0
 288 459 333 443 372 411 c 1
 372 589 l 1
 -6 589 l 1
 -6 673 l 1
 526 673 l 1
 526 589 l 1
481 15 m 1
 446 -23 l 1
 614 -149 l 1
 646 -106 l 1
 481 15 l 1
EndSplineSet
Ligature2: "'haln' Halant Forms in Bengali lookup 12 subtable" u09a8 u09cd
EndChar

StartChar: u09aa_u09cd.haln
Encoding: 65564 -1 205
Width: 672
GlyphClass: 2
Flags: HW
HStem: 589 84<222 359 600 672>
VStem: 518 82<37 407 531 589>
LayerCount: 2
Fore
SplineSet
404 535 m 1
 366 569 328 586 290 586 c 0
 252 586 213 569 176 534 c 1
 279 411 l 1
 404 535 l 1
672 589 m 1
 600 589 l 1
 600 61 l 2
 600 44 587 35 560 35 c 0
 532 35 518 43 518 60 c 2
 518 327 l 2
 518 364 498 414 457 477 c 1
 243 267 l 1
 239 266 235 266 231 266 c 0
 218 266 208 270 199 278 c 0
 190 286 187 296 187 308 c 0
 187 313 187 317 188 322 c 1
 222 357 l 1
 130 468 l 1
 107 431 l 1
 101 427 95 426 88 426 c 0
 77 426 66 430 56 439 c 0
 46 448 41 458 40 469 c 1
 87 573 156 638 251 661 c 0
 266 665 281 667 296 667 c 0
 375 667 450 622 518 531 c 1
 518 600 l 2
 518 620 524 637 538 651 c 0
 552 665 568 673 587 673 c 2
 672 673 l 1
 672 589 l 1
583 0 m 1
 548 -38 l 1
 716 -164 l 1
 749 -121 l 1
 583 0 l 1
EndSplineSet
Ligature2: "'haln' Halant Forms in Bengali lookup 12 subtable" u09aa u09cd
EndChar

StartChar: u09ab_u09cd.haln
Encoding: 65565 -1 206
Width: 663
GlyphClass: 2
Flags: HW
HStem: 226 79<474 525> 498 75<417 495> 590 83<-24 6 115 694>
VStem: 335 81<152 498> 541 79<319 455>
LayerCount: 2
Fore
SplineSet
694 590 m 1
 115 590 l 1
 225 465 l 1
 229 454 231 444 231 436 c 0
 231 424 226 415 216 408 c 1
 126 323 l 1
 335 152 l 1
 335 509 l 2
 335 552 349 573 376 573 c 0
 490 573 564 541 598 476 c 0
 613 448 620 419 620 388 c 0
 620 347 608 310 584 278 c 0
 560 246 533 229 504 226 c 1
 482 229 470 243 470 270 c 0
 470 287 477 299 492 305 c 1
 505 304 516 311 526 328 c 0
 536 345 541 364 541 387 c 0
 541 407 537 425 528 442 c 0
 510 477 473 495 417 498 c 1
 416 73 l 1
 419 50 406 38 377 38 c 0
 362 38 349 43 338 51 c 2
 42 292 l 1
 36 302 33 312 33 321 c 0
 33 333 38 344 48 355 c 2
 141 440 l 1
 6 590 l 1
 -24 590 l 1
 -24 673 l 1
 694 673 l 1
 694 590 l 1
481 15 m 1
 446 -23 l 1
 614 -149 l 1
 646 -106 l 1
 481 15 l 1
EndSplineSet
Ligature2: "'haln' Halant Forms in Bengali lookup 12 subtable" u09ab u09cd
EndChar

StartChar: u09ac_u09cd.haln
Encoding: 65566 -1 207
Width: 482
GlyphClass: 2
Flags: HW
HStem: 590 83<-6 333 414 487>
VStem: 333 80<161 475 564 590>
LayerCount: 2
Fore
SplineSet
333 161 m 1
 333 475 l 1
 129 346 l 1
 333 161 l 1
487 590 m 1
 414 590 l 1
 413 71 l 2
 411 63 405 55 396 49 c 0
 387 43 377 39 367 39 c 0
 355 39 345 43 336 51 c 2
 39 324 l 2
 32 330 29 339 29 351 c 0
 29 367 34 378 43 384 c 2
 333 564 l 1
 333 590 l 1
 -6 590 l 1
 -6 673 l 1
 487 673 l 1
 487 590 l 1
432 10 m 1
 397 -28 l 1
 565 -154 l 1
 597 -111 l 1
 432 10 l 1
EndSplineSet
Ligature2: "'haln' Halant Forms in Bengali lookup 12 subtable" u09ac u09cd
EndChar

StartChar: u09ad_u09cd.haln
Encoding: 65567 -1 208
Width: 800
GlyphClass: 2
Flags: HW
HStem: 24 87<365 546> 280 77<403 510> 590 83<-6 799>
VStem: 29 72<475 583> 309 82<368 476> 647 81<208 359>
LayerCount: 2
Fore
SplineSet
696 175 m 0
 637 74 558 24 458 24 c 0
 345 24 245 89 156 219 c 0
 118 275 90 328 71 378 c 0
 54 425 40 484 29 556 c 1
 34 576 46 586 66 586 c 0
 77 586 88 583 101 577 c 1
 113 492 139 411 180 332 c 0
 210 274 245 226 286 187 c 0
 340 136 396 111 455 111 c 0
 479 111 503 115 527 124 c 0
 560 136 588 158 612 188 c 0
 636 218 647 250 647 285 c 0
 647 317 636 347 615 374 c 1
 571 323 528 292 485 284 c 0
 472 281 460 280 449 280 c 0
 407 280 374 294 348 323 c 0
 322 352 309 388 309 429 c 0
 309 448 312 466 317 484 c 1
 327 494 338 499 349 499 c 0
 366 499 381 489 396 470 c 1
 393 454 391 440 391 428 c 0
 391 380 411 357 450 357 c 0
 455 357 461 357 466 358 c 0
 492 365 514 378 532 399 c 0
 540 408 554 426 571 455 c 1
 577 468 589 475 610 475 c 0
 621 475 630 472 637 465 c 0
 698 408 728 348 728 286 c 0
 728 249 717 212 696 175 c 0
799 590 m 1
 -6 590 l 1
 -6 673 l 1
 799 673 l 1
 799 590 l 1
588 5 m 1
 553 -33 l 1
 721 -159 l 1
 753 -116 l 1
 588 5 l 1
EndSplineSet
Ligature2: "'haln' Halant Forms in Bengali lookup 12 subtable" u09ad u09cd
EndChar

StartChar: u09ae_u09cd.haln
Encoding: 65568 -1 209
Width: 561
GlyphClass: 2
Flags: HW
HStem: 63 76<178 253> 346 80<249 321> 590 83<-6 65 157 416 498 571>
VStem: 65 75<176 307> 416 82<42 240 350 590>
LayerCount: 2
Fore
SplineSet
416 350 m 1
 416 590 l 1
 157 590 l 1
 132 548 l 1
 166 541 193 527 215 506 c 0
 237 485 250 458 253 426 c 1
 310 427 365 401 416 350 c 1
571 590 m 1
 498 590 l 1
 498 64 l 2
 498 48 485 40 460 40 c 0
 431 40 416 48 416 65 c 2
 416 108 l 2
 416 200 395 265 353 302 c 0
 320 332 285 346 246 346 c 0
 199 346 166 324 145 280 c 1
 142 268 140 256 140 244 c 0
 140 215 149 191 166 171 c 0
 184 150 208 139 239 139 c 1
 251 133 257 122 257 105 c 0
 257 94 255 84 249 75 c 0
 243 66 236 62 228 63 c 0
 146 68 93 113 69 196 c 1
 66 214 65 230 65 245 c 0
 65 314 102 370 176 411 c 1
 175 436 161 454 137 464 c 0
 117 472 94 475 67 473 c 1
 41 478 28 492 28 516 c 0
 28 521 29 526 30 531 c 2
 65 590 l 1
 -6 590 l 1
 -6 673 l 1
 571 673 l 1
 571 590 l 1
481 10 m 1
 446 -28 l 1
 614 -154 l 1
 646 -111 l 1
 481 10 l 1
EndSplineSet
Ligature2: "'haln' Halant Forms in Bengali lookup 12 subtable" u09ae u09cd
EndChar

StartChar: u09af_u09cd.haln
Encoding: 65569 -1 210
Width: 502
GlyphClass: 2
Flags: HW
HStem: 590 83<-6 25 127 342 423 496>
VStem: 342 81<143 590>
LayerCount: 2
Fore
SplineSet
342 143 m 1
 342 590 l 1
 127 590 l 1
 236 454 l 2
 240 447 241 438 241 430 c 0
 241 417 237 408 230 401 c 2
 116 304 l 1
 342 143 l 1
496 590 m 1
 423 590 l 1
 423 69 l 2
 423 46 408 34 377 34 c 0
 364 34 354 37 346 43 c 2
 34 271 l 2
 24 278 19 288 19 299 c 0
 19 309 22 319 29 329 c 1
 152 438 l 1
 25 590 l 1
 -6 590 l 1
 -6 673 l 1
 496 673 l 1
 496 590 l 1
461 0 m 1
 426 -38 l 1
 594 -164 l 1
 626 -121 l 1
 461 0 l 1
EndSplineSet
Ligature2: "'haln' Halant Forms in Bengali lookup 12 subtable" u09af u09cd
EndChar

StartChar: u09b0_u09cd.haln
Encoding: 65570 -1 211
Width: 482
GlyphClass: 2
Flags: HW
HStem: 96 109<31 105> 590 83<-6 333 414 487>
VStem: 15 106<112 187> 333 80<161 475 564 590>
LayerCount: 2
Fore
SplineSet
333 161 m 1
 333 475 l 1
 129 346 l 1
 333 161 l 1
121 148 m 0
 121 133 115 121 105 111 c 0
 95 101 83 96 69 96 c 0
 54 96 41 101 30 111 c 0
 19 121 14 133 15 148 c 0
 14 163 19 177 29 188 c 0
 39 199 52 205 68 205 c 0
 82 205 94 199 105 188 c 0
 116 177 121 164 121 148 c 0
487 590 m 1
 414 590 l 1
 413 71 l 2
 411 63 405 55 396 49 c 0
 387 43 377 39 367 39 c 0
 355 39 345 43 336 51 c 2
 39 324 l 2
 32 330 29 339 29 351 c 0
 29 367 34 378 43 384 c 2
 333 564 l 1
 333 590 l 1
 -6 590 l 1
 -6 673 l 1
 487 673 l 1
 487 590 l 1
481 0 m 1
 446 -38 l 1
 614 -164 l 1
 646 -121 l 1
 481 0 l 1
EndSplineSet
Ligature2: "'haln' Halant Forms in Bengali lookup 12 subtable" u09b0 u09cd
EndChar

StartChar: u09b0_u09cd.haln
Encoding: 65571 -1 212
Width: 697
GlyphClass: 2
Flags: HW
HStem: 182 74<213 255> 445 82<391 483> 454 80<141 266> 590 83<-6 539 621 695>
VStem: 27 79<295 420> 539 82<33 383 475 590>
LayerCount: 2
Fore
SplineSet
695 590 m 1
 621 590 l 1
 621 72 l 2
 621 44 607 30 579 30 c 0
 552 30 539 43 539 70 c 2
 539 348 l 1
 504 412 469 445 434 445 c 0
 407 445 385 424 367 383 c 1
 360 376 349 372 332 372 c 0
 315 372 303 377 295 385 c 1
 280 431 249 454 203 454 c 0
 162 454 132 435 113 396 c 0
 108 383 106 370 106 357 c 0
 106 324 119 298 145 279 c 0
 171 260 200 252 233 256 c 1
 250 250 259 239 259 223 c 0
 259 204 251 190 235 182 c 1
 228 181 220 181 213 181 c 0
 160 181 116 198 80 233 c 0
 44 268 27 309 27 356 c 0
 27 389 36 419 55 449 c 0
 90 506 140 534 205 534 c 0
 255 534 297 514 331 475 c 1
 364 510 397 527 431 527 c 0
 465 527 501 510 539 475 c 1
 539 590 l 1
 -6 590 l 1
 -6 673 l 1
 695 673 l 1
 695 590 l 1
588 -15 m 1
 553 -52 l 1
 721 -178 l 1
 753 -135 l 1
 588 -15 l 1
EndSplineSet
Ligature2: "'haln' Halant Forms in Bengali lookup 12 subtable" u09b0 u09cd
EndChar

StartChar: u09b6_u09cd.haln
Encoding: 65572 -1 213
Width: 631
GlyphClass: 2
Flags: HW
HStem: 330 76<4 102 300 400> 590 83<-14 116 279 434 563 638>
VStem: 152 99<450 555> 480 83<44 551>
LayerCount: 2
Fore
SplineSet
638 590 m 1
 563 590 l 1
 563 67 l 2
 563 50 550 41 525 41 c 0
 495 41 480 50 480 67 c 2
 480 507 l 2
 480 528 467 547 441 564 c 0
 413 582 382 591 346 591 c 0
 323 591 302 584 283 571 c 0
 261 556 250 535 251 508 c 0
 252 472 266 446 293 431 c 0
 312 420 346 412 393 406 c 1
 400 402 403 393 403 378 c 0
 403 356 398 339 387 330 c 1
 336 334 297 342 273 353 c 0
 246 365 223 387 203 419 c 1
 182 381 156 356 125 343 c 0
 104 335 68 330 18 327 c 1
 7 336 0 349 0 364 c 0
 0 379 5 392 14 403 c 1
 49 405 78 414 104 429 c 0
 130 444 146 465 152 491 c 1
 155 512 150 531 137 548 c 0
 121 568 102 581 79 586 c 0
 66 589 41 590 4 590 c 0
 -9 590 -16 604 -16 633 c 0
 -16 660 -9 673 4 673 c 0
 57 673 92 671 109 666 c 0
 144 655 176 630 202 590 c 1
 223 618 242 637 262 649 c 0
 282 661 308 669 343 673 c 0
 366 676 392 672 420 662 c 0
 448 652 470 640 486 625 c 1
 500 657 522 673 551 673 c 2
 638 673 l 1
 638 590 l 1
549 -24 m 1
 514 -62 l 1
 682 -188 l 1
 714 -145 l 1
 549 -24 l 1
EndSplineSet
Ligature2: "'haln' Halant Forms in Bengali lookup 12 subtable" u09b6 u09cd
EndChar

StartChar: u09b7_u09cd.haln
Encoding: 65573 -1 214
Width: 487
GlyphClass: 2
Flags: HW
HStem: 590 83<-6 25 127 342 423 496>
VStem: 342 81<143 322 406 590>
LayerCount: 2
Fore
SplineSet
342 143 m 1
 342 322 l 1
 207 382 l 1
 116 304 l 1
 342 143 l 1
342 406 m 1
 342 590 l 1
 127 590 l 1
 216 479 l 1
 216 461 258 437 342 406 c 1
496 590 m 1
 423 590 l 1
 423 69 l 2
 423 46 408 34 377 34 c 0
 364 34 354 37 346 43 c 2
 34 271 l 2
 24 278 19 288 19 299 c 0
 19 309 22 319 29 329 c 1
 152 438 l 1
 25 590 l 1
 -6 590 l 1
 -6 673 l 1
 496 673 l 1
 496 590 l 1
461 -5 m 1
 426 -42 l 1
 594 -168 l 1
 626 -125 l 1
 461 -5 l 1
EndSplineSet
Ligature2: "'haln' Halant Forms in Bengali lookup 12 subtable" u09b7 u09cd
EndChar

StartChar: u09b8_u09cd.haln
Encoding: 65574 -1 215
Width: 653
GlyphClass: 2
Flags: HW
HStem: 113 85<128 209> 385 71<374 437> 589 84<-6 130 227 506 589 662>
VStem: 506 83<31 270 390 589>
LayerCount: 2
Fore
SplineSet
506 390 m 1
 506 589 l 1
 227 589 l 1
 199 543 l 1
 254 530 303 496 343 441 c 1
 361 451 377 456 394 456 c 0
 427 456 464 434 506 390 c 1
662 589 m 1
 589 589 l 1
 589 56 l 2
 589 38 576 29 551 29 c 0
 521 29 506 38 506 56 c 2
 506 122 l 2
 506 193 493 255 469 310 c 0
 446 360 423 385 400 385 c 0
 389 385 380 377 373 361 c 0
 352 290 323 232 287 186 c 0
 248 137 208 113 166 113 c 0
 117 113 72 148 32 217 c 0
 30 223 29 229 29 234 c 0
 29 257 42 269 69 269 c 0
 79 269 88 266 97 261 c 1
 121 219 145 198 169 198 c 0
 206 198 246 254 291 367 c 1
 271 405 251 432 230 447 c 0
 207 463 174 472 132 473 c 1
 120 471 110 474 103 481 c 0
 96 488 93 498 93 509 c 0
 93 517 95 525 99 533 c 2
 130 589 l 1
 -6 589 l 1
 -6 673 l 1
 662 673 l 1
 662 589 l 1
588 -15 m 1
 553 -52 l 1
 721 -178 l 1
 753 -135 l 1
 588 -15 l 1
EndSplineSet
Ligature2: "'haln' Halant Forms in Bengali lookup 12 subtable" u09b8 u09cd
EndChar

StartChar: u09b9_u09cd.haln
Encoding: 65575 -1 216
Width: 448
GlyphClass: 2
Flags: HW
HStem: 518 155<168 291> 589 84<-6 111 291 453>
VStem: 55 74<393 480> 338 76<356 482>
LayerCount: 2
Fore
SplineSet
291 589 m 1
 373 565 414 506 414 413 c 0
 414 402 413 390 412 378 c 0
 389 285 313 228 186 208 c 1
 500 10 l 1
 502 3 503 -3 503 -9 c 0
 503 -35 488 -47 458 -44 c 1
 30 221 l 1
 23 231 19 242 19 254 c 0
 19 279 30 292 52 292 c 0
 57 292 62 291 67 289 c 0
 93 285 118 283 141 283 c 0
 242 283 306 318 335 388 c 0
 337 397 338 406 338 415 c 0
 338 440 331 462 317 481 c 0
 303 500 285 512 262 517 c 0
 255 518 249 518 243 518 c 0
 171 518 133 482 129 410 c 1
 122 397 110 390 92 390 c 0
 73 390 61 399 55 418 c 1
 55 447 62 475 77 504 c 0
 92 533 111 554 136 569 c 1
 111 589 l 1
 -6 589 l 1
 -6 673 l 1
 453 673 l 1
 453 589 l 1
 291 589 l 1
408 -59 m 1
 373 -96 l 1
 541 -222 l 1
 573 -179 l 1
 408 -59 l 1
EndSplineSet
Ligature2: "'haln' Halant Forms in Bengali lookup 12 subtable" u09b9 u09cd
EndChar

StartChar: u09dc_u09cd.haln
Encoding: 65576 -1 217
Width: 736
GlyphClass: 2
Flags: HW
HStem: -102 88<364 439> 35 80<337 498> 264 76<332 419> 590 83<-6 281 364 734>
VStem: 29 73<457 521> 281 83<342 590> 356 90<-94 -19> 581 79<201 378>
LayerCount: 2
Fore
SplineSet
734 590 m 1
 364 590 l 1
 364 354 l 1
 368 345 374 340 381 340 c 0
 406 340 449 384 508 473 c 0
 514 481 523 486 536 486 c 0
 553 486 569 480 582 467 c 0
 634 418 660 363 660 300 c 0
 660 267 653 231 640 192 c 1
 591 89 521 37 432 35 c 0
 377 34 322 51 268 87 c 0
 223 116 186 152 158 194 c 0
 108 270 65 370 29 495 c 0
 28 505 31 513 39 521 c 0
 47 529 58 533 70 533 c 0
 83 533 93 528 102 519 c 1
 137 412 168 335 195 289 c 1
 217 240 249 200 292 166 c 0
 335 132 378 115 422 115 c 0
 471 115 513 137 548 181 c 1
 570 214 581 251 581 292 c 0
 581 331 571 364 550 392 c 1
 512 350 484 321 464 306 c 0
 428 278 392 264 357 264 c 1
 306 272 281 311 281 381 c 2
 281 590 l 1
 -6 590 l 1
 -6 673 l 1
 734 673 l 1
 734 590 l 1
446 -56 m 0
 446 -68 441 -79 432 -88 c 0
 423 -97 412 -102 401 -102 c 0
 390 -102 379 -97 370 -88 c 0
 361 -79 356 -68 356 -56 c 0
 356 -44 361 -34 370 -26 c 0
 379 -18 389 -13 401 -13 c 0
 413 -13 424 -18 433 -26 c 0
 442 -34 446 -44 446 -56 c 0
559 -24 m 1
 524 -62 l 1
 692 -188 l 1
 724 -145 l 1
 559 -24 l 1
EndSplineSet
Ligature2: "'haln' Halant Forms in Bengali lookup 12 subtable" u09dc u09cd
EndChar

StartChar: u09dd_u09cd.haln
Encoding: 65577 -1 218
Width: 502
GlyphClass: 2
Flags: HW
HStem: -97 88<188 263> 33 100<204 290> 587 83<-6 112 193 523>
VStem: 113 80<147 587> 181 90<-90 -15>
LayerCount: 2
Fore
SplineSet
523 587 m 1
 193 587 l 1
 193 181 l 2
 193 168 197 155 206 146 c 0
 215 137 227 132 241 132 c 0
 262 132 283 144 303 166 c 0
 356 224 380 280 374 333 c 0
 372 350 365 364 353 374 c 0
 341 384 330 393 318 401 c 1
 315 406 313 411 313 418 c 0
 313 429 317 439 326 448 c 0
 335 457 346 461 359 461 c 1
 389 439 411 420 424 402 c 0
 441 379 450 353 450 322 c 0
 450 260 427 198 380 134 c 0
 331 67 279 33 225 33 c 0
 199 33 173 46 149 74 c 0
 125 102 113 132 113 165 c 2
 113 599 l 1
 112 590 l 1
 -6 590 l 1
 -6 673 l 1
 112 673 l 2
 112 671 136 670 182 670 c 2
 523 670 l 1
 523 587 l 1
271 -51 m 0
 271 -63 266 -74 257 -83 c 0
 248 -92 237 -97 226 -97 c 0
 215 -97 204 -92 195 -83 c 0
 186 -74 181 -63 181 -51 c 0
 181 -39 185 -29 194 -21 c 0
 203 -13 214 -8 226 -8 c 0
 238 -8 248 -13 257 -21 c 0
 266 -29 271 -39 271 -51 c 0
422 -10 m 1
 387 -47 l 1
 555 -173 l 1
 587 -130 l 1
 422 -10 l 1
EndSplineSet
Ligature2: "'haln' Halant Forms in Bengali lookup 12 subtable" u09dd u09cd
EndChar

StartChar: glyph219
Encoding: 65578 -1 219
Width: 497
GlyphClass: 2
Flags: HW
HStem: 45 110<74 151> 590 83<-6 25 127 342 423 496>
VStem: 57 105<62 138> 342 81<143 590>
LayerCount: 2
Fore
SplineSet
342 143 m 1
 342 590 l 1
 127 590 l 1
 236 454 l 2
 240 447 241 438 241 430 c 0
 241 417 237 408 230 401 c 2
 116 304 l 1
 342 143 l 1
162 101 m 0
 162 86 157 73 147 62 c 0
 137 51 125 45 111 45 c 0
 96 45 83 51 72 62 c 0
 61 73 56 86 57 101 c 0
 58 116 63 128 73 139 c 0
 83 150 97 155 112 155 c 0
 126 155 137 149 147 138 c 0
 157 127 162 115 162 101 c 0
496 590 m 1
 423 590 l 1
 423 69 l 2
 423 46 408 34 377 34 c 0
 364 34 354 37 346 43 c 2
 34 271 l 2
 24 278 19 288 19 299 c 0
 19 309 22 319 29 329 c 1
 152 438 l 1
 25 590 l 1
 -6 590 l 1
 -6 673 l 1
 496 673 l 1
 496 590 l 1
457 0 m 1
 421 -38 l 1
 589 -164 l 1
 622 -121 l 1
 457 0 l 1
EndSplineSet
EndChar

StartChar: glyph220
Encoding: 65579 -1 220
Width: 500
GlyphClass: 2
Flags: HW
HStem: 593 78<147 261>
VStem: 39 74<434 559> 401 76<38 91>
LayerCount: 2
Fore
SplineSet
477 70 m 0
 478 68 478 65 478 63 c 0
 478 56 475 49 468 44 c 0
 459 37 449 34 437 34 c 0
 419 34 407 40 401 52 c 0
 382 97 345 141 292 184 c 0
 245 220 199 257 152 294 c 1
 101 341 66 391 48 445 c 0
 41 465 39 483 39 502 c 0
 39 550 58 591 96 625 c 0
 129 656 164 671 201 671 c 2
 204 671 l 2
 246 670 280 658 306 636 c 0
 328 616 347 585 363 542 c 1
 363 531 358 522 348 515 c 0
 338 508 327 505 316 505 c 0
 305 505 298 508 294 514 c 0
 276 566 247 593 208 593 c 0
 201 593 194 592 185 590 c 0
 137 575 112 544 112 499 c 0
 112 477 119 455 134 433 c 0
 160 392 199 352 250 311 c 0
 333 245 375 211 377 209 c 0
 422 167 456 121 477 70 c 0
EndSplineSet
EndChar

StartChar: janya_u09cd.haln
Encoding: 65580 -1 221
Width: 888
GlyphClass: 2
Flags: HW
HStem: 28 71<305 445> 220 76<652 721> 590 83<-6 273 416 890>
VStem: 29 79<413 528> 204 80<356 500> 517 85<194 294> 735 80<147 209 310 373>
LayerCount: 2
Fore
SplineSet
420 395 m 1
 407 428 383 480 349 553 c 1
 331 540 316 521 303 495 c 0
 290 469 284 443 284 418 c 0
 284 387 294 364 314 348 c 1
 420 395 l 1
709 146 m 1
 726 147 735 157 735 176 c 0
 735 187 730 198 721 207 c 0
 712 216 698 220 681 220 c 1
 660 227 649 240 649 258 c 0
 649 277 659 289 680 296 c 1
 695 298 708 304 718 314 c 0
 728 324 733 334 733 345 c 0
 733 364 719 375 691 378 c 1
 665 372 645 363 631 351 c 0
 620 340 607 322 592 295 c 1
 603 268 606 242 602 218 c 1
 621 195 637 179 649 170 c 0
 666 157 686 149 709 146 c 1
890 590 m 1
 416 590 l 1
 497 411 l 1
 516 402 534 389 549 373 c 1
 592 430 641 459 695 459 c 0
 724 459 750 449 774 429 c 0
 802 406 816 378 816 345 c 0
 816 313 803 286 778 262 c 1
 803 239 815 211 815 177 c 0
 815 132 795 97 755 75 c 0
 742 70 729 68 715 68 c 0
 662 68 613 91 568 138 c 1
 546 104 524 80 503 65 c 0
 492 56 480 50 467 44 c 1
 466 44 l 1
 466 43 l 1
 449 36 430 31 409 29 c 0
 400 28 392 28 383 28 c 0
 288 28 205 84 133 198 c 0
 74 293 39 395 29 503 c 1
 38 523 50 532 66 532 c 0
 79 532 93 527 108 516 c 1
 123 412 154 319 202 236 c 0
 256 145 314 99 376 99 c 0
 411 99 446 115 480 148 c 1
 505 177 517 209 517 244 c 0
 517 282 502 313 472 336 c 1
 461 333 435 319 393 296 c 0
 360 278 333 269 312 269 c 0
 299 269 287 272 276 277 c 1
 228 318 204 367 204 426 c 0
 204 488 227 542 273 590 c 1
 -6 590 l 1
 -6 673 l 1
 890 673 l 1
 890 590 l 1
467 44 m 2
 466 43 l 2
 431 6 l 1
 599 -120 l 1
 631 -77 l 1
 467 44 l 2
EndSplineSet
Ligature2: "'haln' Halant Forms in Bengali lookup 12 subtable" janya u09cd
EndChar

StartChar: kassa_u09cd.haln
Encoding: 65581 -1 222
Width: 812
GlyphClass: 2
Flags: HW
HStem: 590 83<-6 120 195 325 402 476 559 837>
VStem: 131 71<513 577> 285 81<287 402> 323 79<537 590> 476 83<165 389 506 590> 671 89<268 341>
LayerCount: 2
Fore
SplineSet
476 165 m 1
 476 420 l 1
 374 464 323 514 323 571 c 0
 323 578 324 584 325 590 c 1
 195 590 l 1
 204 568 206 544 202 517 c 1
 247 510 286 490 318 457 c 0
 350 424 366 387 366 343 c 0
 366 321 361 298 351 275 c 1
 476 165 l 1
476 506 m 1
 476 590 l 1
 411 590 l 1
 405 583 402 576 402 569 c 0
 402 550 427 529 476 506 c 1
837 590 m 1
 559 590 l 1
 559 475 l 1
 616 455 663 429 700 398 c 0
 740 365 760 332 760 298 c 0
 760 252 722 212 646 179 c 1
 636 177 626 180 616 189 c 0
 606 198 602 210 602 224 c 0
 602 231 603 237 605 243 c 1
 649 261 671 281 671 302 c 0
 671 332 634 361 559 389 c 1
 559 77 l 2
 559 68 553 59 541 52 c 0
 529 45 516 42 503 42 c 0
 492 42 484 44 479 49 c 2
 303 210 l 1
 280 191 249 171 212 151 c 1
 200 153 190 159 181 168 c 0
 172 177 168 187 168 198 c 0
 168 206 171 213 177 219 c 1
 237 252 272 287 282 322 c 0
 284 329 285 337 285 344 c 0
 285 369 275 391 255 411 c 0
 235 431 212 441 187 441 c 0
 182 441 178 441 173 440 c 1
 154 410 123 382 80 357 c 1
 65 356 53 359 44 367 c 0
 35 375 31 386 31 397 c 0
 31 404 33 411 37 417 c 1
 59 428 80 446 100 468 c 0
 121 493 131 517 131 538 c 0
 131 563 114 581 80 590 c 1
 -6 590 l 1
 -6 673 l 1
 837 673 l 1
 837 590 l 1
569 -10 m 1
 534 -47 l 1
 702 -173 l 1
 734 -130 l 1
 569 -10 l 1
EndSplineSet
Ligature2: "'haln' Halant Forms in Bengali lookup 12 subtable" kassa u09cd
EndChar

StartChar: hama_u09cd.haln
Encoding: 65582 -1 223
Width: 788
GlyphClass: 2
Flags: HW
HStem: 416 73<342 453> 450 73<537 630> 590 83<-6 107 182 453 535 790>
VStem: 117 80<531 578> 274 80<300 416> 453 82<201 415 511 590> 648 64<122 436>
LayerCount: 2
Fore
SplineSet
453 201 m 1
 453 415 l 1
 416 413 379 413 342 416 c 1
 350 396 354 375 354 354 c 0
 354 339 352 324 348 309 c 1
 453 201 l 1
453 493 m 1
 453 590 l 1
 182 590 l 1
 192 568 197 549 197 534 c 1
 227 530 254 521 276 505 c 1
 327 494 370 489 404 489 c 0
 422 489 438 490 453 493 c 1
790 590 m 1
 535 590 l 1
 535 511 l 1
 564 519 590 523 612 523 c 0
 632 523 647 520 658 513 c 0
 694 485 712 425 712 334 c 0
 712 322 712 322 712 297 c 0
 712 272 712 272 712 260 c 0
 712 174 727 116 758 86 c 0
 761 81 762 76 762 70 c 0
 762 58 756 48 744 41 c 0
 732 34 719 30 704 32 c 1
 673 59 655 110 648 184 c 1
 647 244 645 303 642 362 c 0
 639 421 626 450 603 450 c 0
 600 450 578 444 535 433 c 1
 535 96 l 1
 461 80 l 1
 310 238 l 1
 283 213 248 192 205 175 c 1
 182 182 170 196 170 217 c 0
 170 225 172 234 177 243 c 1
 242 263 274 301 274 357 c 0
 274 384 265 407 247 427 c 0
 229 447 205 457 175 456 c 1
 160 427 128 395 78 360 c 1
 67 360 57 365 47 376 c 0
 37 387 32 399 32 411 c 0
 32 416 33 421 36 425 c 1
 56 433 75 449 92 472 c 0
 109 495 117 517 117 538 c 0
 117 573 91 590 40 590 c 2
 -6 590 l 1
 -6 673 l 1
 790 673 l 1
 790 590 l 1
559 -5 m 1
 524 -42 l 1
 692 -168 l 1
 724 -125 l 1
 559 -5 l 1
EndSplineSet
Ligature2: "'haln' Halant Forms in Bengali lookup 12 subtable" hama u09cd
EndChar

StartChar: tata_u09cd.haln
Encoding: 65583 -1 224
Width: 636
GlyphClass: 2
Flags: HW
HStem: 31 80<340 507> 502 77<362 475> 590 83<-6 690>
VStem: 19 74<462 558> 259 79<337 477> 508 79<363 469> 536 81<139 255>
LayerCount: 2
Fore
SplineSet
557 324 m 1
 597 285 617 242 617 194 c 0
 617 149 600 111 565 80 c 0
 528 47 478 31 417 31 c 0
 380 31 339 44 293 70 c 0
 247 96 208 128 173 167 c 0
 100 248 49 365 19 518 c 1
 16 548 28 563 52 563 c 0
 70 563 83 554 93 535 c 1
 106 488 120 441 133 394 c 1
 150 343 172 299 201 260 c 0
 274 161 350 111 427 111 c 0
 441 111 455 112 469 116 c 0
 514 126 536 154 536 197 c 0
 536 229 523 252 497 269 c 1
 470 280 457 294 457 311 c 0
 457 324 466 341 483 360 c 1
 500 374 508 392 508 413 c 0
 508 436 499 457 481 475 c 0
 463 493 441 502 414 502 c 0
 405 502 396 501 388 499 c 1
 354 481 338 455 338 421 c 0
 338 404 342 386 350 365 c 1
 352 335 339 321 312 321 c 0
 299 321 288 326 280 337 c 0
 266 362 259 389 259 418 c 0
 259 461 273 499 302 531 c 0
 331 563 368 579 412 579 c 0
 425 579 437 578 450 575 c 0
 492 566 525 546 550 516 c 0
 575 486 587 452 587 415 c 0
 587 382 577 351 557 324 c 1
690 590 m 1
 -6 590 l 1
 -6 673 l 1
 690 673 l 1
 690 590 l 1
554 29 m 1
 519 -8 l 1
 687 -134 l 1
 719 -91 l 1
 554 29 l 1
EndSplineSet
Ligature2: "'haln' Halant Forms in Bengali lookup 12 subtable" tata u09cd
EndChar

StartChar: u09b0_u09cd.rphf
Encoding: 65584 -1 225
Width: 5
GlyphClass: 4
Flags: HW
HStem: 687 222
VStem: -146 330
AnchorPoint: "Anchor-0" -139 659 mark 0
LayerCount: 2
Fore
SplineSet
173 857 m 2
 -39 689 l 1
 -146 687 l 1
 128 905 l 2
 131 908 135 909 141 909 c 0
 151 909 161 906 170 899 c 0
 179 892 184 885 184 876 c 0
 184 869 180 863 173 857 c 2
EndSplineSet
LCarets2: 1 0
Ligature2: "'rphf' Reph Form in Bengali lookup 3 subtable" u09b0 u09cd
EndChar

StartChar: u09af_u09cd.pstf
Encoding: 65585 -1 226
Width: 265
GlyphClass: 4
Flags: HW
HStem: -15 71<30 95> 590 83<-6 93 163 272>
LayerCount: 2
Fore
SplineSet
272 590 m 1
 224 590 l 2
 188 590 164 577 151 551 c 1
 144 531 140 508 140 482 c 0
 140 447 149 392 167 315 c 0
 185 238 195 182 195 148 c 0
 195 65 153 10 70 -15 c 1
 41 -11 27 1 27 21 c 0
 27 35 34 47 48 56 c 1
 108 72 138 109 138 168 c 0
 138 197 127 250 105 327 c 0
 83 404 72 462 72 499 c 0
 72 534 79 565 93 590 c 1
 -6 590 l 1
 -6 673 l 1
 272 673 l 1
 272 590 l 1
EndSplineSet
Ligature2: "'pstf' Post Base Forms in Bengali lookup 7 subtable" u09af u09cd
EndChar

StartChar: u09b0_u09cd.blwf
Encoding: 65586 -1 227
Width: 5
GlyphClass: 4
Flags: HW
HStem: -37 148<-155 -75> -32 74<-417 -233> -9 70<-336 -156>
VStem: -155 81<57 111>
LayerCount: 2
Fore
SplineSet
-74 -10 m 2
 -74 -28 -93 -37 -130 -37 c 0
 -141 -37 -148 -36 -152 -33 c 0
 -168 -17 -189 -9 -214 -9 c 0
 -228 -9 -252 -13 -286 -21 c 0
 -320 -29 -345 -33 -362 -32 c 0
 -405 -30 -438 -22 -459 -7 c 0
 -480 8 -502 39 -523 84 c 1
 -526 111 -514 125 -488 125 c 0
 -477 125 -466 121 -455 114 c 1
 -444 87 -431 68 -418 58 c 0
 -405 48 -388 42 -368 42 c 0
 -355 42 -334 44 -305 49 c 0
 -260 57 -224 61 -197 61 c 0
 -181 61 -167 60 -155 57 c 1
 -155 111 l 1
 -74 111 l 1
 -74 -10 l 2
EndSplineSet
Ligature2: "'blwf' Below Base Forms in Bengali lookup 4 subtable" u09b0 u09cd
EndChar

StartChar: u09ac_u09cd.blwf
Encoding: 65587 -1 228
Width: 5
GlyphClass: 4
Flags: HW
HStem: -139 251<-146 -72>
VStem: -148 78<-53 22>
AnchorPoint: "Anchor-2" -59 7 mark 0
LayerCount: 2
Fore
SplineSet
-148 -53 m 1
 -148 22 l 1
 -221 -12 l 1
 -148 -53 l 1
-70 -107 m 2
 -70 -117 -75 -125 -86 -131 c 0
 -97 -137 -109 -139 -122 -139 c 0
 -130 -139 -137 -138 -143 -135 c 2
 -319 -33 l 1
 -324 -26 -326 -19 -326 -12 c 0
 -326 1 -319 13 -306 23 c 1
 -143 107 l 2
 -137 110 -129 112 -121 112 c 0
 -108 112 -97 109 -86 103 c 0
 -75 97 -70 90 -70 81 c 2
 -70 -107 l 2
EndSplineSet
Ligature2: "'blwf' Below Base Forms in Bengali lookup 4 subtable" u09ac u09cd
EndChar

StartChar: u0995_u09b0_u09cd.blwf.vatu
Encoding: 65588 -1 229
Width: 851
GlyphClass: 2
Flags: HW
HStem: 86 82<138 335> 104 81<200 404> 270 67<617 687> 431 78<605 697> 499 79<373 456> 590 83<-6 611 593 850>
VStem: 29 78<201 354> 227 78<279 440> 456 82<151 498> 706 71<349 410>
AnchorPoint: "Anchor-1" 513 22 basechar 0
LayerCount: 2
Fore
SplineSet
538 59 m 2
 538 50 532 42 520 35 c 0
 508 28 495 24 482 24 c 0
 471 24 463 27 458 33 c 0
 420 80 379 104 334 104 c 0
 320 104 298 101 268 95 c 0
 238 89 215 86 197 86 c 0
 182 86 168 87 155 90 c 0
 71 108 29 171 29 277 c 0
 29 295 30 313 32 333 c 1
 38 350 49 358 65 358 c 0
 86 358 101 349 111 330 c 1
 108 313 107 297 107 282 c 0
 107 206 139 168 202 168 c 0
 217 168 239 171 269 177 c 0
 299 183 322 185 337 185 c 0
 385 185 424 174 456 151 c 1
 456 472 l 2
 456 490 450 499 437 499 c 0
 434 499 430 498 426 497 c 0
 346 477 305 435 305 372 c 0
 305 350 310 326 320 299 c 0
 322 294 323 290 323 286 c 0
 323 265 310 255 284 255 c 0
 269 255 257 260 247 271 c 1
 234 306 227 339 227 371 c 0
 227 425 245 471 280 508 c 0
 315 545 361 567 418 576 c 0
 426 577 434 578 442 578 c 0
 476 578 501 566 518 542 c 0
 531 523 538 501 538 474 c 2
 538 450 l 1
 547 460 557 470 566 480 c 0
 587 499 613 508 644 509 c 0
 680 511 712 498 738 473 c 0
 764 448 777 419 777 386 c 0
 777 377 776 368 774 359 c 0
 757 295 710 265 633 270 c 1
 621 277 614 288 614 301 c 0
 614 318 622 330 638 337 c 1
 659 335 676 340 688 350 c 0
 700 360 706 373 706 388 c 0
 706 391 706 395 705 399 c 0
 692 420 676 431 657 431 c 0
 622 431 582 399 538 336 c 1
 538 59 l 2
611 673 m 1
 850 673 l 1
 850 590 l 1
 611 590 l 1
 593 590 l 1
 -6 590 l 1
 -6 673 l 1
 593 673 l 1
 611 673 l 1
EndSplineSet
Ligature2: "'vatu' Vattu Variants in Bengali lookup 8 subtable" u0995 u09b0_u09cd.blwf
EndChar

StartChar: u0996_u09b0_u09cd.blwf.vatu
Encoding: 65589 -1 230
Width: 647
GlyphClass: 2
Flags: HW
HStem: 19 165<473 551> 29 71<142 333> 59 72<285 461> 458 80<88 221> 590 83<557 632>
VStem: 308 76<428 537> 472 81<119 184> 475 82<149 590>
AnchorPoint: "Anchor-1" 542 15 basechar 0
LayerCount: 2
Fore
SplineSet
632 590 m 1
 557 590 l 1
 557 73 l 2
 557 68 556 64 553 60 c 1
 553 47 l 2
 553 39 547 32 536 27 c 0
 525 22 513 19 500 19 c 0
 489 19 480 20 474 25 c 0
 452 47 426 59 396 59 c 0
 376 59 348 53 312 43 c 0
 280 34 249 29 218 29 c 0
 118 29 53 73 24 160 c 1
 25 183 42 194 74 194 c 0
 81 194 88 193 95 191 c 1
 116 130 154 101 213 101 c 0
 231 101 250 103 272 108 c 0
 311 118 343 125 369 128 c 1
 149 292 l 1
 142 303 139 313 139 323 c 0
 139 333 141 341 147 348 c 0
 153 355 160 359 168 359 c 0
 204 364 236 379 265 405 c 0
 294 431 308 460 308 494 c 0
 308 509 305 523 299 538 c 1
 269 485 226 458 169 458 c 0
 131 458 90 470 46 494 c 1
 35 502 30 513 30 526 c 0
 30 537 34 546 42 554 c 0
 50 562 58 567 68 567 c 0
 72 567 76 566 81 564 c 0
 112 547 139 538 164 538 c 0
 213 538 240 567 246 625 c 1
 245 652 256 665 279 665 c 0
 288 665 296 662 304 657 c 0
 361 620 388 563 384 486 c 0
 381 404 338 344 257 306 c 1
 472 151 l 1
 472 184 l 1
 475 184 l 1
 475 608 l 2
 475 651 496 673 538 673 c 2
 632 673 l 1
 632 590 l 1
EndSplineSet
Ligature2: "'vatu' Vattu Variants in Bengali lookup 8 subtable" u0996 u09b0_u09cd.blwf
EndChar

StartChar: u0997_u09b0_u09cd.blwf.vatu
Encoding: 65590 -1 231
Width: 620
GlyphClass: 2
Flags: HW
HStem: 1 165<463 542> 12 71<132 323> 42 72<275 451> 413 77<143 208> 561 78<196 366> 589 84<549 624>
VStem: 243 79<254 378> 462 81<102 167> 467 82<32 466 565 589> 467 157<589 673>
AnchorPoint: "Anchor-1" 520 -7 basechar 0
LayerCount: 2
Fore
SplineSet
624 589 m 1
 549 589 l 1
 549 60 l 2
 549 52 547 46 543 41 c 1
 543 30 l 2
 543 22 537 15 526 10 c 0
 515 5 503 1 490 1 c 0
 479 1 470 3 464 8 c 0
 442 30 416 42 386 42 c 0
 366 42 338 36 302 26 c 0
 270 17 239 12 208 12 c 0
 108 12 44 56 15 143 c 1
 16 166 32 177 64 177 c 0
 71 177 78 176 85 174 c 1
 106 113 145 83 204 83 c 0
 222 83 241 86 263 91 c 0
 320 106 362 113 391 113 c 0
 415 113 439 110 462 102 c 1
 462 167 l 1
 467 167 l 1
 467 380 l 2
 467 419 457 452 436 479 c 0
 393 534 341 561 279 561 c 0
 222 561 177 537 142 490 c 1
 197 491 241 473 275 437 c 0
 306 404 322 364 322 316 c 0
 322 245 289 192 225 156 c 0
 220 155 215 154 210 154 c 0
 199 154 188 158 179 165 c 0
 170 172 166 181 166 191 c 0
 166 202 171 212 181 221 c 1
 222 244 243 276 243 316 c 0
 243 342 234 365 216 384 c 0
 198 403 176 413 150 413 c 0
 131 413 113 407 94 396 c 0
 82 389 71 385 60 385 c 0
 40 385 31 396 31 417 c 0
 31 423 32 429 34 436 c 0
 49 493 73 537 106 569 c 0
 136 598 178 619 232 634 c 0
 252 638 271 639 290 639 c 0
 357 639 417 614 467 565 c 1
 467 673 l 1
 624 673 l 1
 624 589 l 1
EndSplineSet
Ligature2: "'vatu' Vattu Variants in Bengali lookup 8 subtable" u0997 u09b0_u09cd.blwf
EndChar

StartChar: u0998_u09b0_u09cd.blwf.vatu
Encoding: 65591 -1 232
Width: 544
GlyphClass: 2
Flags: HW
HStem: -18 148<387 467> -13 74<124 309> 11 70<205 386> 590 83<-9 38 113 389 471 546>
VStem: 27 78<499 582> 386 81<77 130> 389 82<149 590>
AnchorPoint: "Anchor-1" 432 -15 basechar 0
LayerCount: 2
Fore
SplineSet
389 149 m 1
 389 590 l 1
 137 590 l 1
 116 577 105 561 105 541 c 0
 105 526 111 512 124 501 c 0
 137 490 152 484 170 484 c 0
 176 484 182 486 191 488 c 0
 200 490 206 491 211 491 c 0
 222 491 232 487 239 479 c 0
 246 471 250 462 250 452 c 0
 250 442 247 433 240 425 c 2
 149 318 l 1
 389 149 l 1
546 590 m 1
 471 590 l 1
 471 71 l 2
 471 67 470 63 467 59 c 1
 467 10 l 2
 467 -8 448 -18 411 -18 c 0
 400 -18 393 -17 389 -14 c 0
 373 2 352 11 327 11 c 0
 313 11 290 7 256 -1 c 0
 222 -9 196 -14 179 -13 c 0
 136 -11 103 -2 82 13 c 0
 61 28 39 59 18 104 c 1
 15 131 27 145 53 145 c 0
 64 145 76 140 87 133 c 1
 98 106 111 87 124 77 c 0
 137 67 153 62 173 62 c 0
 186 62 207 63 236 68 c 0
 281 76 317 81 344 81 c 0
 345 81 345 81 346 81 c 2
 68 279 l 1
 55 285 48 294 48 307 c 0
 48 316 52 326 60 335 c 2
 124 411 l 1
 96 419 72 434 54 457 c 0
 36 480 27 506 27 536 c 0
 27 554 31 572 38 590 c 1
 -9 590 l 1
 -9 673 l 1
 546 673 l 1
 546 590 l 1
EndSplineSet
Ligature2: "'vatu' Vattu Variants in Bengali lookup 8 subtable" u0998 u09b0_u09cd.blwf
EndChar

